<?xml version="1.0" standalone="no"?>
<!DOCTYPE svg PUBLIC "-//W3C//DTD SVG 20010904//EN"
 "http://www.w3.org/TR/2001/REC-SVG-20010904/DTD/svg10.dtd">
<svg version="1.0" xmlns="http://www.w3.org/2000/svg"
 width="144.000000pt" height="144.000000pt" viewBox="0 0 144.000000 144.000000"
 preserveAspectRatio="xMidYMid meet">
<metadata>
Created by potrace 1.11, written by Peter Selinger 2001-2013
</metadata>
<g transform="translate(0.000000,144.000000) scale(0.100000,-0.100000)"
fill="#000000" stroke="none">
<path d="M586 1375 c-86 -18 -192 -68 -271 -128 -101 -77 -170 -172 -221 -309
-26 -68 -28 -84 -28 -218 0 -138 1 -149 30 -225 67 -175 171 -293 330 -373
106 -53 166 -66 304 -66 108 0 136 4 206 27 162 54 304 174 381 323 58 111 77
188 77 314 0 126 -19 203 -75 311 -78 149 -214 265 -376 321 -104 36 -250 45
-357 23z m298 -25 c223 -57 405 -232 472 -455 13 -42 18 -94 18 -175 1 -127
-17 -200 -77 -315 -45 -87 -182 -221 -271 -264 -333 -163 -723 -34 -879 290
-25 52 -51 121 -58 154 -16 77 -15 194 1 270 21 102 3 95 230 95 l198 0 32
-26 c28 -24 31 -31 28 -77 -3 -46 -7 -54 -37 -74 -32 -22 -43 -23 -215 -23
l-181 0 195 -195 195 -195 105 0 105 0 -120 120 -120 120 49 0 c67 0 130 32
163 82 23 34 27 52 31 141 5 117 -6 172 -45 218 -47 56 -77 63 -298 69 l-200
5 40 43 c156 173 413 250 639 192z"/>
<path d="M810 745 l0 -346 25 -25 25 -24 196 2 197 3 33 60 c19 33 34 66 34
73 0 9 -43 12 -180 12 l-180 0 0 295 0 295 -75 0 -75 0 0 -345z"/>
</g>
</svg>
