<svg xmlns="http://www.w3.org/2000/svg" xmlns:xlink="http://www.w3.org/1999/xlink" viewBox="0 0 163.66 140"><defs><style>.cls-1,.cls-10,.cls-11,.cls-12,.cls-13,.cls-16,.cls-17,.cls-5,.cls-6{fill:none;}.cls-2{fill:#fff;}.cls-3{fill:#f6921e;}.cls-14,.cls-15,.cls-4{fill:#c3996b;}.cls-10,.cls-11,.cls-12,.cls-13,.cls-14,.cls-15,.cls-16,.cls-5,.cls-6{stroke:#231f20;}.cls-10,.cls-11,.cls-12,.cls-13,.cls-14,.cls-15,.cls-16,.cls-17,.cls-5,.cls-6{stroke-miterlimit:10;}.cls-5{stroke-width:0.11px;}.cls-6{stroke-width:0.05px;}.cls-7,.cls-9{opacity:0.43;}.cls-20,.cls-8,.cls-9{fill:#231f20;}.cls-10{stroke-width:0.79px;}.cls-11,.cls-15{stroke-width:0.27px;}.cls-12{stroke-width:0.23px;}.cls-13,.cls-14{stroke-width:0.3px;}.cls-16{stroke-width:0.54px;}.cls-17{stroke:#f6921e;stroke-width:0.7px;}.cls-18{fill:#318ac5;}.cls-19{clip-path:url(#clip-path);}.cls-20{opacity:0.37;}.cls-21{clip-path:url(#clip-path-2);}</style><clipPath id="clip-path"><path class="cls-1" d="M59.19,91.19c-.07-1-1.1-1-1.9-1.22-.62-.16-5.27-.39-5.27-.39h0a38.69,38.69,0,0,0-4.89.28c-.51.1-1.8.33-2.16,1.36-.15.42,0,10,0,10.33.08,1,1.1,1,1.9,1.22.63.16,5.25.39,5.25.39h0a38.55,38.55,0,0,0,4.88-.28c.51-.1,1.8-.33,2.16-1.36C59.34,101.1,59.22,91.56,59.19,91.19Z"/></clipPath><clipPath id="clip-path-2"><path class="cls-1" d="M127.57,90.28c-.08-1-1.1-1-1.91-1.22-.62-.16-5.27-.39-5.27-.39h0a36.65,36.65,0,0,0-4.88.28c-.52.1-1.8.33-2.17,1.36-.15.42,0,10,0,10.33.08,1,1.1,1,1.91,1.22.62.16,5.24.39,5.24.39h0a38.55,38.55,0,0,0,4.88-.28c.51-.1,1.8-.33,2.17-1.36C127.72,100.19,127.59,90.65,127.57,90.28Z"/></clipPath></defs><title>becuriousArtboard 7</title><g id="Layer_6" data-name="Layer 6"><path class="cls-2" d="M44.13,64.54a.43.43,0,0,0-.12-.17.31.31,0,0,0-.15-.1.43.43,0,0,0-.14,0h-1.9a.56.56,0,0,0-.15,0,.44.44,0,0,0-.15.1.56.56,0,0,0-.11.17.49.49,0,0,0,0,.25v1.26a.49.49,0,0,0,0,.25.56.56,0,0,0,.11.17.44.44,0,0,0,.15.1.56.56,0,0,0,.15,0h1.9a.43.43,0,0,0,.14,0,.31.31,0,0,0,.15-.1.43.43,0,0,0,.12-.17.62.62,0,0,0,0-.25V64.79A.62.62,0,0,0,44.13,64.54Zm-.37,1.33a.23.23,0,0,1,0,.11l-.06.07-.07,0-.05,0H42l0,0s0,0-.07-.06a.18.18,0,0,1,0-.07.17.17,0,0,1,0-.1V65a.23.23,0,0,1,0-.11l.06-.07a.15.15,0,0,1,.07-.05l.05,0h1.56l.06,0,.07.06a.18.18,0,0,1,0,.07.17.17,0,0,1,0,.1Z"/><circle class="cls-3" cx="85.45" cy="71.75" r="55.55"/><path class="cls-2" d="M95.63,99.5h.73a1.68,1.68,0,0,0,.58-.11,1.83,1.83,0,0,0,.62-.35,2.06,2.06,0,0,0,.49-.59,1.74,1.74,0,0,0,.2-.84V95.93a1.71,1.71,0,0,0-.2-.84,2.25,2.25,0,0,0-.49-.6,2,2,0,0,0-.62-.34,1.72,1.72,0,0,0-.58-.12H89.61a.57.57,0,0,0-.45.26,1.61,1.61,0,0,0-.2,1v6.88h1.75V96q0-.21.09-.24h4.87l.22.08a1.86,1.86,0,0,1,.28.18,1.13,1.13,0,0,1,.23.26.59.59,0,0,1,.1.34V97a.61.61,0,0,1-.11.36,1.35,1.35,0,0,1-.25.28,1.1,1.1,0,0,1-.3.16.58.58,0,0,1-.2.06H93.1a.59.59,0,0,0-.41,1l3.36,3.3H98.3Z"/><path class="cls-2" d="M78.68,102.14l5.14-7.71L84,94.2a1.68,1.68,0,0,1,.21-.18l.28,0h.27a.52.52,0,0,1,.23,0,.75.75,0,0,1,.19.17l5.49,7.92h-2l-1.26-1.79L86.26,98.7l-1.58-2.24a.12.12,0,0,0-.1.05l-.12.14-3.77,5.49Z"/><path class="cls-4" d="M103.63,59.88h1.18a4.89,4.89,0,0,1,4.89,4.89v1.51a0,0,0,0,1,0,0h-11a0,0,0,0,1,0,0V64.77A4.89,4.89,0,0,1,103.63,59.88Z"/><path class="cls-4" d="M85.81,69.46a57.56,57.56,0,0,0,6.63-1c.51-.3,1.74-1.31,1.65-1.94A7.09,7.09,0,0,0,92,63.62a23.22,23.22,0,0,0-3.21-.55c-.38,0-10.75,2.54-11.17,2.71S75,67.05,74.77,67.21c-1.24,1,1.25,1,4,1.39C81.91,69,85.49,69.48,85.81,69.46Z"/><circle class="cls-5" cx="88.48" cy="64.72" r="1.16"/><circle class="cls-6" cx="90.25" cy="67.23" r="1.16"/><circle class="cls-6" cx="85.44" cy="67.61" r="1.16"/><circle class="cls-5" cx="83.17" cy="66.26" r="1.16"/><circle class="cls-5" cx="78.36" cy="67" r="1.16"/><g class="cls-7"><path class="cls-8" d="M114,85.73a4.06,4.06,0,0,0-3.1,1.08,4.24,4.24,0,0,0-1.35,2.76,11,11,0,0,0,.81,3.53c.24.7.48,1.42.71,2.25.06.23.2.73,1.67,1.81v-3.7c-.12-.37-.24-.72-.35-1a9.33,9.33,0,0,1-.7-2.81,2.28,2.28,0,0,1,.7-1.26,2,2,0,0,1,1.49-.47c1.53.09,2.85.07,3.66,0V85.76C116.79,85.79,115.5,85.82,114,85.73Z"/></g><path class="cls-9" d="M58.57,85.84a4.09,4.09,0,0,1,3.1,1.07A4.33,4.33,0,0,1,63,89.68a11.07,11.07,0,0,1-.81,3.53c-.24.7-.49,1.42-.71,2.24-.06.23-.2.73-1.67,1.81V93.57l.35-1a9.33,9.33,0,0,0,.7-2.81,2.25,2.25,0,0,0-.71-1.26A1.93,1.93,0,0,0,58.69,88c-1.54.08-2.85.06-3.66,0V85.87C55.78,85.9,57.07,85.93,58.57,85.84Z"/><path class="cls-9" d="M54.4,85.6c-.14-.42-.68-.63-.95-.72a.25.25,0,0,1-.17-.21L53,81.16a.23.23,0,0,0-.2-.21l-.56-.11a1.5,1.5,0,0,0-.3,0l-.56.11a.23.23,0,0,0-.2.21l-.29,3.51a.25.25,0,0,1-.17.21c-.27.09-.81.3-1,.72A3.06,3.06,0,0,0,49.82,88c.46.7,2.26.67,2.26.67s1.75.13,2.21-.58A3.31,3.31,0,0,0,54.4,85.6Z"/><path class="cls-9" d="M122.48,85.6c-.14-.42-.68-.63-1-.72a.23.23,0,0,1-.17-.21l-.3-3.51a.23.23,0,0,0-.19-.21l-.57-.11a1.4,1.4,0,0,0-.29,0l-.56.11a.23.23,0,0,0-.2.21l-.3,3.51a.22.22,0,0,1-.17.21c-.27.09-.81.3-1,.72a3.06,3.06,0,0,0,.06,2.39c.46.7,2.27.67,2.27.67s1.74.13,2.2-.58A3.31,3.31,0,0,0,122.48,85.6Z"/><polygon class="cls-9" points="59.21 77.1 53.6 82.14 53.6 84.66 59.9 79 59.21 77.1"/><polygon class="cls-9" points="112.79 77.2 118.39 82.23 118.39 84.75 112.1 79.1 112.79 77.2"/><rect class="cls-4" x="66.54" y="66.86" width="39.1" height="19.07"/><path class="cls-4" d="M105.25,66.86V85.93H109l7.16-19.07Zm4.11,9.93v3.79H106V76.79ZM106,76V72.24h3.32V76Zm4.11.79h1.4l-1.4,3.72Zm0-.79V72.24h3.11L111.85,76Zm0-4.55v-3.8H115l-1.43,3.8Zm-.79-3.8v3.8H106v-3.8Zm-.94,17.49H106V81.37h3.32v1.24Z"/><path class="cls-4" d="M56.14,66.86l7.15,19.07H67V66.86Zm10.08,9.93v3.79H62.89V76.79ZM62.89,76V72.24h3.33V76Zm-.79,4.51-1.39-3.72H62.1ZM60.41,76,59,72.24h3.1V76ZM58.7,71.45l-1.42-3.8H62.1v3.8Zm7.52-3.8v3.8H62.89v-3.8Zm-3.33,15V81.37h3.33v3.77H63.84Z"/><circle class="cls-10" cx="71.06" cy="81.37" r="1.4"/><circle class="cls-11" cx="71.06" cy="81.37" r="2.54"/><circle class="cls-12" cx="73.83" cy="79.13" r="0.68"/><circle class="cls-12" cx="68.32" cy="79.13" r="0.68"/><circle class="cls-12" cx="68.32" cy="83.61" r="0.68"/><circle class="cls-12" cx="73.83" cy="83.61" r="0.68"/><circle class="cls-10" cx="80.19" cy="79.13" r="1.4"/><circle class="cls-11" cx="80.19" cy="79.13" r="2.54"/><circle class="cls-12" cx="82.96" cy="76.89" r="0.68"/><circle class="cls-12" cx="77.44" cy="76.89" r="0.68"/><circle class="cls-12" cx="77.44" cy="81.37" r="0.68"/><circle class="cls-12" cx="82.96" cy="81.37" r="0.68"/><rect class="cls-11" x="83.42" y="82.28" width="14.41" height="2.62" rx="1.17" ry="1.17"/><circle class="cls-11" cx="93" cy="83.59" r="1.09"/><circle class="cls-11" cx="96.15" cy="83.61" r="1.09"/><circle class="cls-11" cx="88.29" cy="83.61" r="1.09"/><circle class="cls-11" cx="85.16" cy="83.61" r="1.09"/><circle class="cls-8" cx="88.29" cy="83.61" r="0.27"/><circle class="cls-8" cx="93.06" cy="83.61" r="0.27"/><circle class="cls-8" cx="96.22" cy="83.61" r="0.27"/><circle class="cls-8" cx="85.16" cy="83.61" r="0.27"/><circle class="cls-13" cx="100.72" cy="78.17" r="3.01"/><rect class="cls-11" x="99.17" y="77.2" width="2.84" height="2.01" rx="0.9" ry="0.9"/><path class="cls-8" d="M100,78.82l.44-.45a.22.22,0,0,1,.32,0l.45.45a.23.23,0,0,1-.16.39h-.89A.23.23,0,0,1,100,78.82Z"/><path class="cls-8" d="M101.19,77.59l-.44.44a.24.24,0,0,1-.33,0l-.44-.44a.23.23,0,0,1,.16-.39H101A.23.23,0,0,1,101.19,77.59Z"/><circle class="cls-14" cx="100.72" cy="78.17" r="3.01"/><rect class="cls-11" x="99.17" y="77.2" width="2.84" height="2.01" rx="0.9" ry="0.9"/><path class="cls-8" d="M100,78.82l.44-.45a.22.22,0,0,1,.32,0l.45.45a.23.23,0,0,1-.16.39h-.89A.23.23,0,0,1,100,78.82Z"/><path class="cls-8" d="M101.19,77.59l-.44.44a.24.24,0,0,1-.33,0l-.44-.44a.23.23,0,0,1,.16-.39H101A.23.23,0,0,1,101.19,77.59Z"/><circle class="cls-14" cx="68.05" cy="69.23" r="3.01"/><rect class="cls-11" x="66.66" y="68.36" width="2.84" height="2.01" rx="0.9" ry="0.9" transform="translate(0.56 139.27) rotate(-91.53)"/><path class="cls-8" d="M68.71,69.92l-.46-.44a.23.23,0,0,1,0-.32l.43-.46a.23.23,0,0,1,.4.15l0,.89A.23.23,0,0,1,68.71,69.92Z"/><path class="cls-8" d="M67.45,68.77l.46.43a.24.24,0,0,1,0,.33l-.43.45a.22.22,0,0,1-.39-.15l0-.88A.23.23,0,0,1,67.45,68.77Z"/><circle class="cls-14" cx="99.17" cy="66.86" r="3.01"/><rect class="cls-11" x="97.73" y="66" width="2.84" height="2.01" rx="0.9" ry="0.9" transform="translate(4.77 140.57) rotate(-71.98)"/><path class="cls-8" d="M99.56,67.73l-.29-.56a.23.23,0,0,1,.1-.3l.56-.29a.23.23,0,0,1,.32.28l-.27.84A.23.23,0,0,1,99.56,67.73Z"/><path class="cls-8" d="M98.76,66.24l.28.56a.22.22,0,0,1-.1.3l-.56.29a.23.23,0,0,1-.32-.28l.27-.84A.23.23,0,0,1,98.76,66.24Z"/><path class="cls-15" d="M97.71,78.17a3,3,0,0,1,.86-2.11L77.2,70.2l-6.54.53a3,3,0,0,1-.69.81l27.92,7.67A3.2,3.2,0,0,1,97.71,78.17Z"/><path class="cls-15" d="M96.71,68.6a3,3,0,0,1-.41-2.67,2.61,2.61,0,0,1,.24-.54l-26,2.13a3,3,0,0,1,.53,1.63,3,3,0,0,1-.4,1.58Z"/><path class="cls-4" d="M59.71,62.86h0a1.66,1.66,0,0,0-1.87,1.61v1.86h3.73V64.47A1.65,1.65,0,0,0,59.71,62.86Z"/><path class="cls-4" d="M112.57,62.81h0a1.66,1.66,0,0,0-1.87,1.6v1.87h3.74V64.41A1.66,1.66,0,0,0,112.57,62.81Z"/><polygon class="cls-4" points="71.47 53.14 71.47 51.37 69.68 51.37 69.68 49.04 70.53 49.04 70.53 48.16 69.68 48.16 69.68 43.14 66.01 43.14 66.01 48.16 65.17 48.16 65.17 49.04 66.01 49.04 66.01 51.37 64.17 51.37 64.17 53.14 66.01 53.14 66.01 65.05 64.56 65.05 64.56 65.8 66.01 65.8 69.68 65.8 71.06 65.8 71.06 65.05 69.68 65.05 69.68 53.14 71.47 53.14"/><rect class="cls-4" x="71.05" y="47.29" width="6.4" height="2.62"/><rect class="cls-4" x="74.26" y="44.91" width="2.78" height="1.99" rx="0.89" ry="0.89"/><circle class="cls-8" cx="75.56" cy="45.94" r="0.66"/><rect class="cls-4" x="74.26" y="42.68" width="2.78" height="1.99" rx="0.89" ry="0.89"/><circle class="cls-8" cx="75.56" cy="43.71" r="0.66"/><rect class="cls-4" x="58.76" y="44.79" width="2.78" height="1.99" rx="0.89" ry="0.89"/><circle class="cls-8" cx="60.07" cy="45.82" r="0.66"/><rect class="cls-4" x="58.76" y="42.56" width="2.78" height="1.99" rx="0.89" ry="0.89"/><circle class="cls-8" cx="60.07" cy="43.58" r="0.66"/><rect class="cls-4" x="70.08" y="42.68" width="3.75" height="2.76" rx="1.23" ry="1.23"/><rect class="cls-8" x="71.05" y="43.14" width="1.78" height="1.78"/><rect class="cls-4" x="62.03" y="42.68" width="3.69" height="2.76" rx="1.23" ry="1.23"/><rect class="cls-8" x="63.36" y="43.71" width="0.81" height="0.81"/><rect class="cls-4" x="58.25" y="41.24" width="19.21" height="1.04"/><polygon class="cls-4" points="60.72 32.12 74.74 32.12 77.04 34.09 77.04 40.88 58.76 40.88 58.76 34.06 60.72 32.12"/><circle class="cls-16" cx="106.15" cy="62.87" r="1.1"/><circle class="cls-16" cx="101.18" cy="62.43" r="1.54"/><rect class="cls-16" x="102.92" y="64.53" width="5.37" height="0.53"/><circle class="cls-8" cx="108.16" cy="63.87" r="0.23"/><circle class="cls-8" cx="104" cy="63.87" r="0.23"/><circle class="cls-8" cx="104" cy="61.55" r="0.23"/><circle class="cls-8" cx="108.16" cy="61.55" r="0.23"/><path class="cls-8" d="M72.42,33.2a3.14,3.14,0,0,0-3.14,3.14v4.54h6.28V36.34A3.15,3.15,0,0,0,72.42,33.2Z"/><circle class="cls-17" cx="72.42" cy="36.34" r="1.43"/><path class="cls-2" d="M103.59,52.53a.76.76,0,0,0-.19-.21,1,1,0,0,0-.22-.15L103,52.1H98.89s-.07.09-.07.2v5H97.4V51.74a1.37,1.37,0,0,1,.16-.78.47.47,0,0,1,.37-.21h5.62a1.54,1.54,0,0,1,.48.09,1.77,1.77,0,0,1,.5.28,1.86,1.86,0,0,1,.39.48,1.34,1.34,0,0,1,.16.68v1.36a1.34,1.34,0,0,1-.16.68,1.86,1.86,0,0,1-.39.48,1.77,1.77,0,0,1-.5.28,1.54,1.54,0,0,1-.48.09H103l2.15,2.13h-1.81l-3.54-3.48H103l.16,0a.94.94,0,0,0,.24-.13.83.83,0,0,0,.2-.22.53.53,0,0,0,.09-.3V52.8A.5.5,0,0,0,103.59,52.53Z"/><path class="cls-2" d="M90.22,55.58a.73.73,0,0,0,.19.2l.22.12a.49.49,0,0,0,.17,0h4.12s.07-.07.07-.19v-5H96.4v5.56a1.33,1.33,0,0,1-.16.78.47.47,0,0,1-.37.21H90.25a1.58,1.58,0,0,1-.48-.1,1.51,1.51,0,0,1-.49-.28,1.54,1.54,0,0,1-.4-.47,1.49,1.49,0,0,1-.16-.69v-5h1.41v4.56A.44.44,0,0,0,90.22,55.58Z"/><path class="cls-2" d="M117.92,55.58a.73.73,0,0,0,.19.2,1.27,1.27,0,0,0,.23.12.45.45,0,0,0,.17,0h4.11s.07-.07.07-.19v-5h1.41v5.56a1.33,1.33,0,0,1-.16.78.47.47,0,0,1-.37.21H118a1.58,1.58,0,0,1-.48-.1,1.51,1.51,0,0,1-.49-.28,1.48,1.48,0,0,1-.56-1.16v-5h1.42v4.56A.43.43,0,0,0,117.92,55.58Z"/><path class="cls-2" d="M80.73,55.75c0,.12,0,.18.07.19h6.92V57.3H79.85a.47.47,0,0,1-.38-.21,1.43,1.43,0,0,1-.15-.78V51.74a1.39,1.39,0,0,1,.15-.78.47.47,0,0,1,.38-.21h7.87V52.1H80.8s-.07.09-.07.2Z"/><path class="cls-2" d="M89.77,48.17c0,.12,0,.19.08.2h6.91v1.35H88.89a.47.47,0,0,1-.37-.2,1.35,1.35,0,0,1-.16-.79V44.16a1.33,1.33,0,0,1,.16-.78.47.47,0,0,1,.37-.2h7.87v1.35H89.85s-.08.08-.08.2Zm7-2.49V47H89.27V45.68Z"/><path class="cls-18" d="M87.61,46a1.76,1.76,0,0,1-.23.41,1.76,1.76,0,0,1,.23.41,1.25,1.25,0,0,1,.11.5v.84a1.34,1.34,0,0,1-.17.68,1.53,1.53,0,0,1-.39.48,1.46,1.46,0,0,1-.5.28,1.49,1.49,0,0,1-.47.09H79.85a.48.48,0,0,1-.37-.2,1.35,1.35,0,0,1-.16-.79V44.16a1.33,1.33,0,0,1,.16-.78.48.48,0,0,1,.37-.2h6.34a1.49,1.49,0,0,1,.47.09,1.46,1.46,0,0,1,.5.28,1.53,1.53,0,0,1,.39.48,1.34,1.34,0,0,1,.17.68v.81A1.26,1.26,0,0,1,87.61,46Zm-1.38,1.44a1.07,1.07,0,0,0-.19-.18.88.88,0,0,0-.21-.12l-.18-.06H82.32V45.77h3.33l.17,0a.71.71,0,0,0,.22-.13,1.14,1.14,0,0,0,.19-.19.5.5,0,0,0,.07-.27.38.38,0,0,0-.08-.26A.69.69,0,0,0,86,44.7a1.79,1.79,0,0,0-.22-.13.54.54,0,0,0-.17,0H80.81s-.07.06-.08.13v3.51c0,.12,0,.19.08.2h4.83l.17,0L86,48.2a.69.69,0,0,0,.19-.19.48.48,0,0,0,.08-.28A.46.46,0,0,0,86.23,47.47Z"/><path class="cls-2" d="M115.42,54.63a2.65,2.65,0,0,1-.2,1.07,2.6,2.6,0,0,1-.55.85,2.66,2.66,0,0,1-.84.55,2.86,2.86,0,0,1-1.06.2H111.2a2.86,2.86,0,0,1-1.06-.2,2.66,2.66,0,0,1-.84-.55,2.62,2.62,0,0,1-.56-.85,2.83,2.83,0,0,1-.2-1.07V53.42a2.83,2.83,0,0,1,.2-1.07,2.62,2.62,0,0,1,.56-.85,2.66,2.66,0,0,1,.84-.55,2.86,2.86,0,0,1,1.06-.2h1.57a2.86,2.86,0,0,1,1.06.2,2.66,2.66,0,0,1,.84.55,2.6,2.6,0,0,1,.55.85,2.65,2.65,0,0,1,.2,1.07ZM114,53.48a1.43,1.43,0,0,0-.1-.56,1.17,1.17,0,0,0-.27-.42,1.28,1.28,0,0,0-.43-.28,1.57,1.57,0,0,0-.54-.1h-1.41a1.63,1.63,0,0,0-.55.1,1.39,1.39,0,0,0-.43.28,1.32,1.32,0,0,0-.27.42,1.43,1.43,0,0,0-.1.56v1.09a1.38,1.38,0,0,0,.1.55,1.26,1.26,0,0,0,.27.43,1.21,1.21,0,0,0,.43.27,1.42,1.42,0,0,0,.55.1h1.4a1.42,1.42,0,0,0,.55-.1,1.21,1.21,0,0,0,.43-.27,1.12,1.12,0,0,0,.27-.43,1.38,1.38,0,0,0,.1-.55Z"/><rect class="cls-2" x="106.13" y="50.75" width="1.41" height="6.54"/><path class="cls-2" d="M131.7,54.17a2.62,2.62,0,0,0-.54-.38,5,5,0,0,0-.64-.26c-.22-.06-.45-.11-.68-.15a4.85,4.85,0,0,0-.64-.05h-1a1.13,1.13,0,0,1-.66-.16.49.49,0,0,1-.24-.44.51.51,0,0,1,.24-.44,1.13,1.13,0,0,1,.66-.16h4.08V50.75h-4.08a5.92,5.92,0,0,0-1,.1,3.57,3.57,0,0,0-1,.35,2.24,2.24,0,0,0-.75.61,1.38,1.38,0,0,0-.31.92,1.41,1.41,0,0,0,.31.93,2.15,2.15,0,0,0,.75.61,3.56,3.56,0,0,0,1,.34,5.07,5.07,0,0,0,1,.11h1a1.48,1.48,0,0,1,.38,0,1,1,0,0,1,.28.12.64.64,0,0,1,.18.19.54.54,0,0,1,.06.25.52.52,0,0,1-.23.44,1.25,1.25,0,0,1-.67.16h-4.08V57.3h4.08a5,5,0,0,0,.64,0,5.12,5.12,0,0,0,.68-.14,3.9,3.9,0,0,0,.64-.26,2.41,2.41,0,0,0,.55-.37,1.85,1.85,0,0,0,.37-.51,1.38,1.38,0,0,0,.14-.65,1.47,1.47,0,0,0-.13-.64A1.89,1.89,0,0,0,131.7,54.17Z"/><path class="cls-2" d="M101.46,95.74h9.79a1.22,1.22,0,0,1-.18-.4c-.13-.47-.26-.9-.4-1.32h-9.21a3,3,0,0,0-.81.13,2.55,2.55,0,0,0-.82.42,2.61,2.61,0,0,0-.63.76,2.77,2.77,0,0,0,0,2.3,2.49,2.49,0,0,0,.63.76,2.55,2.55,0,0,0,.82.42,3,3,0,0,0,.81.12h.82a.79.79,0,0,1,.32.06.76.76,0,0,1,.23.15.55.55,0,0,1,.15.24.94.94,0,0,1,0,.3.67.67,0,0,1-.75.74H96.45v1.71h5.83a2.62,2.62,0,0,0,.54-.06,3,3,0,0,0,.56-.18,2.61,2.61,0,0,0,.53-.31,2.06,2.06,0,0,0,.46-.47,2.64,2.64,0,0,0,.31-.63,2.93,2.93,0,0,0,0-1.59,2.31,2.31,0,0,0-.31-.63,2.24,2.24,0,0,0-.45-.47,2.67,2.67,0,0,0-.53-.32,3.37,3.37,0,0,0-.56-.19,2.62,2.62,0,0,0-.54-.06h-.83a.68.68,0,0,1-.75-.74.76.76,0,0,1,.2-.55A.73.73,0,0,1,101.46,95.74Z"/><path class="cls-2" d="M80.2,94.29a.6.6,0,0,0-.46-.25H78.11c-.07,0-.22.14-.45.41s-.5.63-.82,1l-1,1.35c-.34.48-.67.94-1,1.35s-.57.78-.79,1.07a1.81,1.81,0,0,1-.39.45s-.18-.16-.4-.45l-.78-1.07c-.31-.41-.63-.87-1-1.35l-1-1.35c-.31-.42-.59-.77-.82-1s-.39-.41-.46-.41H67.64a.59.59,0,0,0-.46.25,1.71,1.71,0,0,0-.2,1V100a.35.35,0,0,1-.35.35H59.25a7.55,7.55,0,0,1-.06,1.13,1.5,1.5,0,0,1-.41.62h9.6a.35.35,0,0,0,.35-.35V96a.25.25,0,0,1,.08-.22h0l4.28,6.11.18.17a.41.41,0,0,0,.23,0h0v0h.3a.53.53,0,0,0,.21-.06.81.81,0,0,0,.17-.16l4.28-6.11h0c.06,0,.08.11.08.22v6.11h1.75V95.26A1.72,1.72,0,0,0,80.2,94.29Z"/><g class="cls-19"><path class="cls-8" d="M48,92.58a.66.66,0,0,1-.35-.11l-1.14-.79a.36.36,0,0,0-.2-.06H45v-.27h1.36a.63.63,0,0,1,.35.11l1.14.78a.33.33,0,0,0,.44,0l1.94-1.8a.63.63,0,0,1,.78,0L53.37,92a.36.36,0,0,0,.43,0l2-1.66a.62.62,0,0,1,.82,0l1,.93a.3.3,0,0,0,.24.09h1.32v.27H57.87a.65.65,0,0,1-.43-.16l-1-.93a.35.35,0,0,0-.47,0l-2,1.66a.62.62,0,0,1-.75,0l-2.41-1.68a.36.36,0,0,0-.45,0l-1.93,1.8A.63.63,0,0,1,48,92.58Z"/><path class="cls-8" d="M48,94.67a.66.66,0,0,1-.35-.11l-1.14-.78a.31.31,0,0,0-.2-.07H45v-.26h1.36a.62.62,0,0,1,.35.1l1.14.79a.35.35,0,0,0,.44,0l1.94-1.79a.62.62,0,0,1,.78-.06l2.41,1.68a.36.36,0,0,0,.43,0l2-1.66a.62.62,0,0,1,.82,0l1,.93a.35.35,0,0,0,.24.1l1.32,0v.27H57.87a.56.56,0,0,1-.43-.16l-1-.93a.35.35,0,0,0-.47,0l-2,1.66a.63.63,0,0,1-.75,0l-2.41-1.68a.38.38,0,0,0-.45,0l-1.93,1.8A.63.63,0,0,1,48,94.67Z"/><path class="cls-8" d="M48,97a.66.66,0,0,1-.35-.11l-1.14-.78a.37.37,0,0,0-.2-.07H45v-.26h1.36a.56.56,0,0,1,.35.11l1.14.78a.36.36,0,0,0,.44,0l1.94-1.8a.63.63,0,0,1,.78-.06l2.41,1.68a.36.36,0,0,0,.43,0l2-1.66a.62.62,0,0,1,.82,0l1,.93a.35.35,0,0,0,.24.1l1.32,0v.27H57.87a.56.56,0,0,1-.43-.16l-1-.93A.35.35,0,0,0,56,95l-2,1.66a.62.62,0,0,1-.75,0L50.81,95a.38.38,0,0,0-.45,0l-1.93,1.8A.63.63,0,0,1,48,97Z"/><path class="cls-8" d="M48,99.26a.66.66,0,0,1-.35-.11l-1.14-.78a.36.36,0,0,0-.2-.06H45V98h1.36a.63.63,0,0,1,.35.11l1.14.78a.36.36,0,0,0,.44,0l1.94-1.8A.63.63,0,0,1,51,97l2.41,1.68a.36.36,0,0,0,.43,0l2-1.66a.62.62,0,0,1,.82,0l1,.94a.34.34,0,0,0,.24.09h1.32v.26l-1.31,0a.61.61,0,0,1-.43-.17l-1-.93a.36.36,0,0,0-.47,0l-2,1.66a.62.62,0,0,1-.75,0l-2.41-1.68a.38.38,0,0,0-.45,0l-1.93,1.8A.63.63,0,0,1,48,99.26Z"/><path class="cls-8" d="M48,101.63a.66.66,0,0,1-.35-.11l-1.14-.78a.37.37,0,0,0-.2-.07H45v-.26h1.36a.63.63,0,0,1,.35.11l1.14.78a.36.36,0,0,0,.44,0l1.94-1.8a.63.63,0,0,1,.78-.06l2.41,1.68a.36.36,0,0,0,.43,0l2-1.66a.62.62,0,0,1,.82,0l1,.93a.31.31,0,0,0,.24.1l1.32,0v.27l-1.31,0a.61.61,0,0,1-.43-.17l-1-.93a.35.35,0,0,0-.47,0l-2,1.66a.62.62,0,0,1-.75,0l-2.41-1.68a.38.38,0,0,0-.45,0l-1.93,1.8A.63.63,0,0,1,48,101.63Z"/><path class="cls-8" d="M48,103.86a.66.66,0,0,1-.35-.11L46.51,103a.37.37,0,0,0-.2-.07H45v-.26h1.36a.56.56,0,0,1,.35.11l1.14.78a.36.36,0,0,0,.44,0l1.94-1.8a.63.63,0,0,1,.78-.06l2.41,1.68a.36.36,0,0,0,.43,0l2-1.66a.62.62,0,0,1,.82,0l1,.93a.31.31,0,0,0,.24.1l1,0v.27h-1a.56.56,0,0,1-.43-.16l-1-.93a.35.35,0,0,0-.47,0l-2,1.66a.62.62,0,0,1-.75,0l-2.41-1.68a.38.38,0,0,0-.45,0l-1.93,1.8A.63.63,0,0,1,48,103.86Z"/></g><path class="cls-20" d="M59.19,91.19c-.07-1-1.1-1-1.9-1.22-.62-.16-5.27-.39-5.27-.39h0a38.69,38.69,0,0,0-4.89.28c-.51.1-1.8.33-2.16,1.36-.15.42,0,10,0,10.33.08,1,1.1,1,1.9,1.22.63.16,5.25.39,5.25.39h0a38.55,38.55,0,0,0,4.88-.28c.51-.1,1.8-.33,2.16-1.36C59.34,101.1,59.22,91.56,59.19,91.19Z"/><g class="cls-21"><path class="cls-8" d="M116.38,91.66a.59.59,0,0,1-.36-.11l-1.14-.78a.36.36,0,0,0-.2-.06h-1.36v-.27h1.36a.61.61,0,0,1,.35.11l1.14.78a.35.35,0,0,0,.45,0l1.93-1.8a.62.62,0,0,1,.78,0l2.41,1.68a.36.36,0,0,0,.43,0l2-1.66a.62.62,0,0,1,.82,0l1,.93a.36.36,0,0,0,.24.09h1.32v.27h-1.31a.67.67,0,0,1-.43-.16l-1-.94a.35.35,0,0,0-.46,0l-2,1.66a.62.62,0,0,1-.75,0l-2.41-1.67a.36.36,0,0,0-.45,0l-1.93,1.8A.61.61,0,0,1,116.38,91.66Z"/><path class="cls-8" d="M116.38,93.76a.66.66,0,0,1-.36-.11l-1.14-.79a.36.36,0,0,0-.2-.06h-1.36v-.26h1.36a.6.6,0,0,1,.35.1l1.14.79a.36.36,0,0,0,.45,0l1.93-1.79a.62.62,0,0,1,.78-.06l2.41,1.68a.36.36,0,0,0,.43,0l2-1.66a.62.62,0,0,1,.82,0l1,.93a.37.37,0,0,0,.24.1l1.32,0v.27h-1.31a.62.62,0,0,1-.43-.16l-1-.93a.34.34,0,0,0-.46,0l-2,1.65a.62.62,0,0,1-.75,0l-2.41-1.68a.38.38,0,0,0-.45,0l-1.93,1.8A.63.63,0,0,1,116.38,93.76Z"/><path class="cls-8" d="M116.38,96.12A.66.66,0,0,1,116,96l-1.14-.78a.31.31,0,0,0-.2-.07h-1.36V94.9h1.36a.6.6,0,0,1,.35.1l1.14.79a.36.36,0,0,0,.45,0L118.55,94a.62.62,0,0,1,.78-.06l2.41,1.68a.36.36,0,0,0,.43,0l2-1.66a.62.62,0,0,1,.82,0l1,.93a.37.37,0,0,0,.24.1l1.32,0v.27h-1.31a.58.58,0,0,1-.43-.16l-1-.93a.34.34,0,0,0-.46,0l-2,1.66a.63.63,0,0,1-.75,0l-2.41-1.68a.38.38,0,0,0-.45,0L116.8,96A.63.63,0,0,1,116.38,96.12Z"/><path class="cls-8" d="M116.38,98.35a.66.66,0,0,1-.36-.11l-1.14-.78a.36.36,0,0,0-.2-.06h-1.36v-.27h1.36a.61.61,0,0,1,.35.11l1.14.78a.38.38,0,0,0,.45,0l1.93-1.8a.63.63,0,0,1,.78-.06l2.41,1.68a.36.36,0,0,0,.43,0l2-1.66a.62.62,0,0,1,.82,0l1,.93a.33.33,0,0,0,.24.1h1.32v.26l-1.31,0a.63.63,0,0,1-.43-.17l-1-.93a.35.35,0,0,0-.46,0l-2,1.66a.62.62,0,0,1-.75,0l-2.41-1.68a.38.38,0,0,0-.45,0l-1.93,1.8A.63.63,0,0,1,116.38,98.35Z"/><path class="cls-8" d="M116.38,100.72a.66.66,0,0,1-.36-.11l-1.14-.78a.37.37,0,0,0-.2-.07h-1.36V99.5h1.36a.54.54,0,0,1,.35.11l1.14.78a.38.38,0,0,0,.45,0l1.93-1.8a.63.63,0,0,1,.78-.06l2.41,1.68a.36.36,0,0,0,.43,0l2-1.66a.62.62,0,0,1,.82,0l1,.93a.33.33,0,0,0,.24.1l1.32,0v.27h-1.31a.58.58,0,0,1-.43-.16l-1-.93a.34.34,0,0,0-.46,0l-2,1.66a.62.62,0,0,1-.75,0l-2.41-1.68a.38.38,0,0,0-.45,0l-1.93,1.8A.63.63,0,0,1,116.38,100.72Z"/><path class="cls-8" d="M116.38,103a.66.66,0,0,1-.36-.11l-1.14-.78a.37.37,0,0,0-.2-.07h-1.36v-.26h1.36a.54.54,0,0,1,.35.11l1.14.78a.38.38,0,0,0,.45,0l1.93-1.8a.63.63,0,0,1,.78-.06l2.41,1.68a.36.36,0,0,0,.43,0l2-1.66a.62.62,0,0,1,.82,0l1,.93a.37.37,0,0,0,.24.1l1,0V102h-1.05a.58.58,0,0,1-.43-.16l-1-.93a.34.34,0,0,0-.46,0l-2,1.66a.62.62,0,0,1-.75,0L119.18,101a.38.38,0,0,0-.45,0l-1.93,1.8A.63.63,0,0,1,116.38,103Z"/></g><path class="cls-20" d="M127.57,90.28c-.08-1-1.1-1-1.91-1.22-.62-.16-5.27-.39-5.27-.39h0a36.65,36.65,0,0,0-4.88.28c-.52.1-1.8.33-2.17,1.36-.15.42,0,10,0,10.33.08,1,1.1,1,1.91,1.22.62.16,5.24.39,5.24.39h0a38.55,38.55,0,0,0,4.88-.28c.51-.1,1.8-.33,2.17-1.36C127.72,100.19,127.59,90.65,127.57,90.28Z"/></g></svg>