<?xml version="1.0" encoding="utf-8"?>
<!-- Generator: Adobe Illustrator 19.1.1, SVG Export Plug-In . SVG Version: 6.00 Build 0)  -->
<svg version="1.1" id="Layer_1" xmlns="http://www.w3.org/2000/svg" xmlns:xlink="http://www.w3.org/1999/xlink" x="0px" y="0px"
	 viewBox="0 0 402 413" style="enable-background:new 0 0 402 413;" xml:space="preserve">
<style type="text/css">
	.st0{fill:none;stroke:#FFFFFF;stroke-width:10.0054;stroke-linejoin:round;stroke-miterlimit:10;}
	.st1{fill:#00AEEF;stroke:#FFFFFF;stroke-width:10.0054;stroke-linecap:round;stroke-linejoin:round;stroke-miterlimit:10;}
	.st2{fill:none;stroke:#FFFFFF;stroke-width:7.1016;stroke-linejoin:round;stroke-miterlimit:10;}
	.st3{fill:#00AEEF;stroke:#FFFFFF;stroke-miterlimit:10;}
	.st4{fill:none;stroke:#FFFFFF;stroke-width:3.3351;stroke-linecap:round;stroke-linejoin:round;stroke-miterlimit:10;}
	.st5{fill:#FFFFFF;stroke:#FFFFFF;stroke-miterlimit:10;}
	.st6{fill:none;stroke:#FFFFFF;stroke-width:6.6702;stroke-miterlimit:10;}
</style>
<path class="st0" d="M293.8,362l-84.2-179.4h0v-55h10.5c9.3,0,16.9-7.6,16.9-16.9V89.4c0-9.3-7.6-16.9-16.9-16.9H95.1
	c-9.3,0-16.9,7.6-16.9,16.9v21.3c0,9.3,7.6,16.9,16.9,16.9h10.5v55h0L21.4,362c-7.4,15.8,4.1,34,21.6,34h229.2
	C289.7,396.1,301.3,377.9,293.8,362z"/>
<line class="st1" x1="126.6" y1="129.3" x2="188.7" y2="129.3"/>
<path class="st2" d="M105.2,258.5l11.4,3.1c16.3,4.4,33.6-0.6,45.1-12.8l26.9-28.6c3.9-3.3,16.4-2.8,18.7,1.7l71.4,154.2H36.5
	L89,262.7c0.8-1.6,4.2-3.1,7.4-4.1C99.2,257.7,102.3,257.7,105.2,258.5z"/>
<path class="st3" d="M139.8,256"/>
<circle class="st4" cx="146.9" cy="42.5" r="13.8"/>
<circle class="st4" cx="182.4" cy="18.4" r="10.4"/>
<path class="st5" d="M386.7,213.7h-19.6c-0.4-1-0.8-1.9-1.2-2.9l13.9-13.9c1.1-1.1,1.7-2.6,1.7-4.2s-0.6-3.1-1.7-4.2l-26-26
	c-2.3-2.3-6-2.3-8.4,0l-13.9,13.9c-1-0.4-1.9-0.8-2.9-1.2v-19.6c0-3.3-2.6-5.9-5.9-5.9H286c-3.3,0-5.9,2.6-5.9,5.9v19.6
	c-1,0.4-1.9,0.8-2.9,1.2l-13.9-13.9c-2.3-2.3-6-2.3-8.4,0l-26,26c-1.1,1.1-1.7,2.6-1.7,4.2s0.6,3.1,1.7,4.2l13.9,13.9
	c-0.4,1-0.8,1.9-1.2,2.9H235l5.5,11.8h5.4c2.6,0,4.9-1.7,5.6-4.1c1-3.1,2.2-6.1,3.8-9c1.2-2.3,0.8-5.1-1.1-6.9l-12.7-12.7l17.6-17.6
	l12.7,12.7c1.8,1.8,4.6,2.3,6.9,1.1c2.9-1.5,6-2.8,9-3.8c2.5-0.8,4.1-3.1,4.1-5.6v-17.9h24.9v17.9c0,2.6,1.7,4.9,4.1,5.6
	c3.1,1,6.1,2.2,9,3.8c2.3,1.2,5.1,0.8,6.9-1.1l12.7-12.7l17.6,17.6l-12.7,12.7c-1.8,1.8-2.3,4.6-1.1,6.9c1.5,2.9,2.8,6,3.8,9
	c0.8,2.5,3.1,4.1,5.6,4.1h17.9v24.9h-17.9c-2.6,0-4.9,1.7-5.6,4.1c-1,3.1-2.2,6.1-3.8,9c-1.2,2.3-0.8,5.1,1.1,6.9l12.7,12.7
	l-17.6,17.6l-12.7-12.7c-1.8-1.8-4.6-2.3-6.9-1.1c-2.9,1.5-6,2.8-9,3.8c-2.5,0.8-4.1,3.1-4.1,5.6v17.9h-24.9v-17.9
	c0-2.6-1.7-4.9-4.1-5.6c-3.1-1-6.1-2.2-9-3.8c-2.3-1.2-5.1-0.8-6.9,1.1l-1.3,1.3l5.3,11.4l1.4-1.4c1,0.4,1.9,0.8,2.9,1.2v9.3
	l7.6,16.2h35c3.3,0,5.9-2.6,5.9-5.9v-19.6c1-0.4,1.9-0.8,2.9-1.2l13.9,13.9c2.3,2.3,6,2.3,8.4,0l26-26c1.1-1.1,1.7-2.6,1.7-4.2
	s-0.6-3.1-1.7-4.2l-13.9-13.9c0.4-1,0.8-1.9,1.2-2.9h19.6c3.3,0,5.9-2.6,5.9-5.9v-36.7C392.6,216.4,389.9,213.7,386.7,213.7z"/>
<circle class="st6" cx="305.2" cy="238" r="36.5"/>
</svg>
