<?xml version="1.0" encoding="utf-8"?>
<!-- Generator: Adobe Illustrator 19.1.1, SVG Export Plug-In . SVG Version: 6.00 Build 0)  -->
<svg version="1.1" id="Layer_1" xmlns="http://www.w3.org/2000/svg" xmlns:xlink="http://www.w3.org/1999/xlink" x="0px" y="0px"
	 viewBox="0 0 480 420" style="enable-background:new 0 0 480 420;" xml:space="preserve">
<style type="text/css">
	.st0{fill:#FFFFFF;}
	.st1{fill:none;stroke:#414141;stroke-width:5.3747;stroke-miterlimit:10;}
	.st2{fill:#414141;}
	.st3{fill:#FFFFFF;stroke:#414141;stroke-width:3.6548;stroke-miterlimit:10;}
	.st4{fill:#FFFFFF;stroke:#414141;stroke-width:5.3747;stroke-miterlimit:10;}
	.st5{fill:#3089C4;}
	.st6{fill:none;stroke:#414141;stroke-width:1.0749;stroke-miterlimit:10;}
	.st7{fill:#FFFFFF;stroke:#414242;stroke-width:4.2997;stroke-miterlimit:10;}
	.st8{fill:#D0D2D3;stroke:#D0D2D3;stroke-width:3.8005;stroke-miterlimit:10;}
	.st9{fill:none;stroke:#D0D2D3;stroke-width:5.3747;stroke-miterlimit:10;}
	.st10{fill:#3089C4;stroke:#414143;stroke-width:4.8372;stroke-miterlimit:10;}
	.st11{fill:#FFFFFF;stroke:#414143;stroke-width:4.8372;stroke-miterlimit:10;}
	.st12{fill:#3089C4;stroke:#414143;stroke-width:5.3747;stroke-miterlimit:10;}
	.st13{fill:#FFFFFF;stroke:#414141;stroke-width:4.2997;stroke-miterlimit:10;}
	.st14{fill:#FFFFFF;stroke:#414141;stroke-width:4.8372;stroke-miterlimit:10;}
	.st15{fill:#3089C4;stroke:#414141;stroke-width:5.3747;stroke-miterlimit:10;}
	.st16{fill:#414141;stroke:#414141;stroke-width:5.3747;stroke-miterlimit:10;}
	.st17{fill:#FFFFFF;stroke:#414141;stroke-width:2.1499;stroke-miterlimit:10;}
	.st18{fill:#FFFFFF;stroke:#424344;stroke-width:5.3747;stroke-miterlimit:10;}
	.st19{fill:#3089C4;stroke:#424344;stroke-width:5.3747;stroke-miterlimit:10;}
	.st20{fill:#D0D2D3;stroke:#D0D2D3;stroke-width:9.1672;stroke-miterlimit:10;}
	.st21{fill:#D0D2D3;stroke:#D0D2D3;stroke-width:6.4822;stroke-linejoin:round;stroke-miterlimit:10;}
	.st22{fill:#6FCBDC;stroke:#231F20;stroke-width:0.1075;stroke-miterlimit:10;}
	.st23{fill:#6FCBDC;}
	.st24{fill:#6FCBDC;stroke:#000000;stroke-width:9.333617e-002;stroke-miterlimit:10;}
	.st25{fill:none;stroke:#000000;stroke-width:0.3767;stroke-linejoin:round;stroke-miterlimit:10;}
	.st26{fill:#FFFFFF;stroke:#000000;stroke-width:0.3767;stroke-linejoin:round;stroke-miterlimit:10;}
	.st27{fill:#6FCBDC;stroke:#000000;stroke-width:0.3733;stroke-linejoin:round;stroke-miterlimit:10;}
	.st28{fill:none;stroke:#000000;stroke-width:0.3733;stroke-linejoin:round;stroke-miterlimit:10;}
	.st29{stroke:#000000;stroke-width:0.3733;stroke-linejoin:round;stroke-miterlimit:10;}
	.st30{fill:#FFFFFF;stroke:#000000;stroke-width:0.3733;stroke-linejoin:round;stroke-miterlimit:10;}
	.st31{fill:none;stroke:#000000;stroke-width:2.3133;stroke-linejoin:round;stroke-miterlimit:10;}
	.st32{fill:none;stroke:#000000;stroke-width:3;stroke-linejoin:round;stroke-miterlimit:10;}
	.st33{fill:#333333;}
	.st34{fill:#FFFFFF;stroke:#000000;stroke-width:0.7467;stroke-linejoin:round;stroke-miterlimit:10;}
	.st35{fill:#FFFFFF;stroke:#000000;stroke-width:1.4934;stroke-linejoin:round;stroke-miterlimit:10;}
	.st36{font-family:'Audiowide-Regular';}
	.st37{font-size:13.7072px;}
	.st38{fill:#6FCBDC;stroke:#000000;stroke-width:9.418051e-002;stroke-miterlimit:10;}
	.st39{fill:none;}
	.st40{stroke:#000000;stroke-width:0.3767;stroke-linejoin:round;stroke-miterlimit:10;}
	.st41{fill:none;stroke:#EC2024;stroke-width:0.3767;stroke-linejoin:round;stroke-miterlimit:10;}
	.st42{fill:#3089C4;stroke:#414143;stroke-width:4.6237;stroke-miterlimit:10;}
</style>
<g>
	<g id="XMLID_29_">
		<g>
			<path class="st0" d="M206.1,163.7c-5.9-10.8,1.3-24,13.5-24.9c4.6-0.3,10.2,0.6,17,3.7c0,0,9,4.3,19.3,15.3
				c3.4,3.6,4.9,8.5,4.2,13.4c-0.8,4.9-4,10.4-13.4,13.9c-1.2,0.5-2.5,0.6-3.8,0.4C236.3,184.3,214.7,179.5,206.1,163.7z"/>
		</g>
		<g>
			<path class="st1" d="M260.1,171.2c-0.8,4.9-4,10.4-13.4,13.9c-1.2,0.5-2.5,0.6-3.8,0.4c-6.6-1.1-28.2-5.9-36.8-21.8
				c-5.9-10.8,1.3-24,13.5-24.9c4.6-0.3,10.2,0.6,17,3.7c0,0,9,4.3,19.3,15.3C259.3,161.4,260.8,166.3,260.1,171.2z"/>
		</g>
	</g>
	<g>
		<path class="st2" d="M245,181.2c0,0-0.1-2.1-0.1-5.3c0-0.2,0-0.4,0-0.6c0-0.2,0-0.4-0.1-0.6c-0.1-0.4-0.2-0.8-0.3-1.2
			c-0.1-0.4-0.4-0.8-0.6-1.1c-0.2-0.4-0.5-0.6-0.9-1c-1.4-1.4-2.8-3-4.2-4.6c-0.7-0.8-1.4-1.6-2.1-2.4c-0.7-0.8-1.4-1.6-2-2.3
			c-1.3-1.5-2.5-3-3.5-4.2c-2-2.5-3.2-4.3-3.2-4.3s1.6,1.4,3.9,3.6c1.1,1.1,2.5,2.4,3.8,3.9c0.7,0.7,1.4,1.5,2.1,2.2
			c0.7,0.8,1.4,1.6,2.1,2.3c1.4,1.6,2.8,3.2,4.1,4.7c0.3,0.4,0.7,0.8,0.9,1.3c0.3,0.5,0.5,0.9,0.6,1.4c0.1,0.5,0.2,1,0.2,1.4
			c0,0.2,0,0.5,0,0.7c0,0.2,0,0.4-0.1,0.6C245.4,179.1,245,181.2,245,181.2z"/>
	</g>
	<g>
		<path class="st2" d="M224.6,144.4c0,0,0.8-0.4,2.2-0.8c1.3-0.4,3.1-0.7,4.9-0.8c0.9-0.1,1.8-0.1,2.7,0c0.4,0,0.8,0.1,1.2,0.1
			c0.4,0,0.8,0.1,1.1,0.2c0.3,0.1,0.7,0.1,0.9,0.2c0.3,0.1,0.5,0.2,0.7,0.2c0.4,0.2,0.6,0.3,0.6,0.3s-0.2,0-0.6,0
			c-0.2,0-0.4,0-0.7,0.1c-0.3,0-0.6,0.1-0.9,0.1c-1.3,0.1-3.1,0.3-4.8,0.5c-1.8,0.1-3.6,0.2-4.9,0.2
			C225.5,144.5,224.6,144.4,224.6,144.4z"/>
	</g>
	<path class="st3" d="M211.1,132.9c2.8-15.1-22-17.8-22-17.8s-5,0.6-6.6,2.9"/>
	<path class="st4" d="M191.3,120.2c29.8,9.8,22.5,28.4,22.5,28.4s-8.1,23.4-40.1-0.5"/>
	<path class="st4" d="M165.7,137.6c0,0-3.4,6,5.2,10.4c0,0,7.4,1.3,9-3.9"/>
	<path class="st4" d="M169.5,140c0,0-8.4-3.3-4-11.9l12.1,3.9L169.5,140z"/>
	<path class="st4" d="M185.8,129.3c3.3-2.3,5.5-9.2,5.5-9.2s-19.3-6.3-25.2,2.4c0,0-3.6,5.9,5.6,11.3"/>
	<path class="st4" d="M193.1,130.8c0,0,8.7,4.6,0.7,15.1c0,0-4.6,3.7-23.5-4.9c0,0-3.3-3.8,6.2-12.7
		C176.5,128.3,186.6,128,193.1,130.8z"/>
	<g id="XMLID_28_">
		<g>
			<path class="st5" d="M256.3,133.2c-0.5,0-2.6,1.6-11.7,15.9c-11.7,18.5,1.5,25.7,1.5,25.7s6,4.9,21.9-2.5
				c15.9-7.4,20.9-29.3,20.9-29.3c-10.6,2.5-23.7-1.4-32.5-9.5C256.4,133.3,256.4,133.2,256.3,133.2z"/>
			<path class="st0" d="M288.9,142.8c6.5-1.5,12-5.5,15-12.3c5.5-12.7-1.4-20.9-8-25.5c-5-3.5-11.1-5-17.2-4.3
				c-26.7,2.9-29.3,23.2-29.3,23.2c1.7,3.5,4,6.6,6.9,9.2c0.1,0,0.2,0.1,0.2,0.1s0,0,0,0C256.7,133.5,270.3,146,288.9,142.8z"/>
		</g>
		<g>
			<path class="st1" d="M256.3,133.2c-2.8-2.6-5.2-5.7-6.9-9.2c0,0,2.6-20.3,29.3-23.2c6.1-0.7,12.2,0.8,17.2,4.3
				c6.6,4.6,13.5,12.8,8,25.5c-3,6.8-8.5,10.7-15,12.3c-10.6,2.5-23.7-1.4-32.5-9.5C256.4,133.3,256.4,133.2,256.3,133.2z"/>
			<path class="st1" d="M288.9,142.8c0,0-4.9,21.9-20.9,29.3c-15.9,7.4-21.9,2.5-21.9,2.5s-13.2-7.2-1.5-25.7
				c9.1-14.3,11.2-15.9,11.7-15.9c0.1,0,0.2,0.1,0.2,0.1s0,0,0,0C256.7,133.5,270.3,146,288.9,142.8z"/>
		</g>
	</g>
	<g>
		<path class="st0" d="M301.9,114.5l-23.8,10.1c-2,0.9-3.4,2.7-3.8,4.8l-1.5,9.9"/>
		<path class="st2" d="M301.9,114.5c0,0-2.3,1.3-5.9,3c-1.8,0.9-3.9,1.9-6.1,2.9c-2.3,1-4.7,2.1-7.1,3.1c-1.2,0.5-2.4,1-3.6,1.5
			c-0.6,0.3-1.2,0.5-1.6,0.8c-0.5,0.3-0.9,0.7-1.3,1.1c-0.7,0.8-1.2,1.8-1.4,2.9c-0.2,1.1-0.4,2.2-0.6,3.1c-0.8,3.9-1.5,6.5-1.5,6.5
			s0.1-2.7,0.6-6.6c0.1-1,0.2-2.1,0.4-3.2c0.1-1.2,0.6-2.5,1.4-3.6c0.4-0.5,0.9-1,1.5-1.4c0.6-0.4,1.3-0.7,1.8-0.9
			c1.2-0.5,2.4-1,3.6-1.6c2.4-1,4.9-2,7.2-2.9c2.3-0.9,4.5-1.7,6.3-2.4C299.4,115.2,301.9,114.5,301.9,114.5z"/>
	</g>
	<g>
		<path class="st2" d="M268.4,140.8c0,0-1.2,1-2.7,2.6c-0.8,0.8-1.6,1.8-2.4,2.9c-0.4,0.5-0.8,1.1-1.1,1.7c-0.2,0.3-0.3,0.6-0.5,0.9
			c-0.1,0.3-0.3,0.6-0.4,1l-0.2,0.5l-0.1,0.6c-0.1,0.4-0.1,0.7-0.2,1c-0.1,0.7-0.2,1.4-0.2,2.1c0,0.7,0,1.3,0,2c0,0.6,0,1.2,0.1,1.8
			c0.1,2.2,0.3,3.7,0.3,3.7s-0.7-1.4-1.2-3.6c-0.1-0.6-0.3-1.2-0.3-1.8c-0.1-0.7-0.2-1.4-0.2-2.1c0-0.7,0-1.5,0.1-2.3
			c0.1-0.4,0.1-0.8,0.2-1.2l0.1-0.6c0.1-0.2,0.1-0.4,0.2-0.6c0.1-0.4,0.3-0.8,0.4-1.1c0.2-0.4,0.4-0.7,0.6-1.1
			c0.4-0.7,0.9-1.3,1.4-1.8c1-1.1,2-2,2.9-2.7C267,141.4,268.4,140.8,268.4,140.8z"/>
	</g>
	<g id="XMLID_27_">
		<g>
			<path class="st5" d="M325.4,279.3c0,0-3.9,10.4-16.6,7.2c-12.8-3.2-18.4-18.1-18.1-49.4c0,0,1.3-17.2,18.1-23.1
				C308.8,214,334.3,199.7,325.4,279.3z"/>
		</g>
		<g>
			<path class="st1" d="M308.8,214c0,0,25.5-14.3,16.6,65.3c0,0-3.9,10.4-16.6,7.2c-12.8-3.2-18.4-18.1-18.1-49.4
				C290.6,237.1,292,220,308.8,214z"/>
		</g>
	</g>
	<g>
		<path class="st2" d="M324,229c0,0-0.8,0.4-2.1,1.2c-1.3,0.8-3.2,1.9-5.5,3.3c-1.1,0.7-2.3,1.4-3.6,2.3c-1.3,0.8-2.6,1.7-3.9,2.7
			c-0.7,0.5-1.3,1-2,1.5c-0.7,0.5-1.3,1-2,1.6c-1.3,1.1-2.5,2.3-3.6,3.6l-0.7,1l-0.1,0.1l0,0.1l0,0c0,0,0,0.1,0,0l0,0l-0.1,0.3
			l-0.3,0.6l-0.3,0.6l-0.2,0.6c-0.1,0.4-0.2,0.8-0.3,1.2c-0.3,1.6-0.5,3.3-0.5,4.9c-0.1,3.2,0.2,6.3,0.4,8.9
			c0.3,2.6,0.6,4.8,0.9,6.3c0.3,1.5,0.4,2.4,0.4,2.4s-0.3-0.8-0.7-2.3c-0.4-1.5-1-3.6-1.5-6.3c-0.2-1.3-0.5-2.7-0.6-4.3
			c-0.2-1.5-0.3-3.1-0.3-4.8c0-0.4,0-0.8,0-1.3c0-0.4,0.1-0.9,0.1-1.3c0-0.9,0.2-1.8,0.4-2.6c0.1-0.4,0.2-0.9,0.4-1.4l0.2-0.7
			l0.3-0.6l0.3-0.6l0.1-0.3l0,0c0.1-0.1,0,0,0-0.1l0,0l0-0.1l0.1-0.1l0.8-1.2c1.2-1.4,2.5-2.7,3.9-3.8c0.7-0.6,1.4-1.1,2.1-1.6
			c0.7-0.5,1.4-1,2.1-1.4c1.4-0.9,2.8-1.8,4.1-2.5c1.3-0.8,2.6-1.4,3.8-2.1c2.4-1.2,4.4-2.1,5.8-2.8C323.2,229.3,324,229,324,229z"
			/>
	</g>
	<g id="XMLID_26_">
		<g>
			<path class="st0" d="M326.9,354.4l-40.4,2.3c0,0-11.7-82.2,21.4-86.9C341.1,265.2,326.9,354.4,326.9,354.4z"/>
		</g>
		<g>
			<path class="st1" d="M286.5,356.7c0,0-11.7-82.2,21.4-86.9c33.2-4.7,18.9,84.6,18.9,84.6L286.5,356.7z"/>
		</g>
	</g>
	<g>
		<path class="st2" d="M288.3,287.1c0,0,0.6,0.5,1.6,1.5c0.5,0.5,1.1,1,1.8,1.7c0.7,0.7,1.5,1.4,2.3,2.3c0.8,0.9,1.6,1.9,2.4,3.1
			c0.8,1.2,1.5,2.5,2,3.9c0.6,1.4,1.1,2.9,1.3,4.5c0.3,1.6,0.4,3.3,0.5,4.8c0.1,1.6,0.1,3.1,0.2,4.7c0.1,1.5,0.1,3.1,0.1,4.5
			c0,2.9,0,5.7,0,8c-0.1,4.7-0.3,7.9-0.3,7.9s-0.5-3.1-0.9-7.8c-0.2-2.3-0.5-5.1-0.7-8c-0.1-1.5-0.2-3-0.3-4.5
			c-0.1-1.5-0.2-3.1-0.2-4.7c0-1.6-0.1-3-0.4-4.5c-0.3-1.5-0.6-2.9-1.1-4.2c-0.9-2.7-2.2-5-3.6-6.9c-0.7-0.9-1.4-1.8-2-2.5
			c-0.6-0.8-1.1-1.4-1.5-2C288.7,287.8,288.3,287.1,288.3,287.1z"/>
	</g>
	<g>
		<path class="st2" d="M327,285.9c0,0-0.5,0.6-1.3,1.7c-0.4,0.5-0.9,1.2-1.5,2c-0.6,0.8-1.3,1.6-2,2.5c-1.3,1.8-2.7,4.2-3.6,6.9
			c-0.5,1.3-0.8,2.8-1.1,4.2c-0.3,1.5-0.3,2.9-0.4,4.5c-0.1,1.6-0.2,3.1-0.2,4.7c-0.1,1.5-0.2,3.1-0.3,4.5c-0.2,2.9-0.4,5.7-0.7,8
			c-0.4,4.7-0.9,7.8-0.9,7.8s-0.2-3.1-0.3-7.9c0-2.4,0-5.1,0-8c0-1.5,0-3,0.1-4.5c0.1-1.5,0.1-3.1,0.2-4.7c0.1-1.5,0.2-3.2,0.5-4.8
			c0.3-1.6,0.8-3.1,1.3-4.5c0.6-1.4,1.3-2.7,2-3.9c0.8-1.2,1.6-2.2,2.4-3.1c0.8-0.9,1.6-1.6,2.3-2.3c0.7-0.7,1.3-1.2,1.8-1.7
			C326.5,286.4,327,285.9,327,285.9z"/>
	</g>
	<path class="st2" d="M269.6,364.7c0,0,0.6-28.7,29.9-31.6c29.3-2.9,37.3,31.5,37.3,31.5S315.7,364.7,269.6,364.7z"/>
	<path class="st5" d="M273.1,362.2c0,0-3.1-6.2,7.8-17.6c1.4-1.5,3.1-2.6,4.9-3.4c0.1,0,0.1-0.1,0.2-0.1c12.9-5.3,27.7-1.1,36,10
		c2.1,2.7,3.9,5.9,4.7,8.7c0,0-22,0.9-29.3,0.9c0,0,0-4.9-1.1-6.7c-1.1-1.8-11.7-2.6-18.5-1.3C277.9,352.8,274.3,355.5,273.1,362.2z
		"/>
	<g id="XMLID_25_">
		<g>
			<path class="st5" d="M364.5,184.5c1.1,0.4,1.9,0.7,1.9,0.7c2.3,7.6-2.2,11.5-2.2,11.5c-1.3,0.6-2.6,1.2-3.9,1.8h0
				c-4.7,1.8-8.4,3.3-12,4.5c0,0,0,0,0,0c-10.7,3.3-19.8,4.2-27.2,3.8c-8.2-0.7-16.3-3.6-21.2-5.5c-3.1-1.7-4.6-3-4.6-3
				c-3-4.1-4.2-8.2-4.2-12c-0.2-7.7,4.1-14.4,7-18c1.5-1.9,3.7-3,6.1-3.1c8.3-0.5,28.9-1.6,35-0.7c7.7,1.1,12.4,9.4,12.4,9.4
				C354.5,179.9,361.2,183.2,364.5,184.5z"/>
			<path class="st0" d="M350.5,227.8c-0.1,2.5-1.1,9.1-7.8,13.8c-8.3,5.9-25.7,0.8-27.7-7.6c-0.9-3.9-3.1-6.9-5.1-9
				c-1.8-1.8-4-3.2-6.4-4c-11-3.7-8.1-21.8-8.1-21.8s1.7,0.8,4.4,1.9c4.2,2.2,11.3,5,21.2,5.5c2.1,0.2,4.2,0.2,6.2,0.1
				c9.1-0.7,14.8-1.8,21-3.9c0,0,0,0,0,0c3.8-1.2,7.8-2.6,12-4.5h0c1.4-0.5,0.8,4.8,0.6,7.7c-0.2,3.5-1.8,6.8-4.4,9.2
				c-3.1,2.8-4.6,6.2-5.3,8.6C350.8,225.2,350.6,226.5,350.5,227.8z"/>
			<path class="st0" d="M291.1,186.1c-11.3-6.9-18.4-18.1-18.4-34.1c0-30.2,25.6-47.1,56.3-52c64.2-10.1,55.6,35.9,52.1,52.1
				c-3.2,14.6-8.4,25.3-16.6,32.4c-3.3-1.3-10-4.6-13-10.8c0,0-4.7-8.4-12.4-9.4c-6.1-0.9-26.8,0.2-35,0.7c-2.4,0.1-4.6,1.3-6.1,3.1
				C295.2,171.8,290.9,178.5,291.1,186.1L291.1,186.1z"/>
		</g>
		<g>
			<path class="st1" d="M291.1,186.1c-11.3-6.9-18.4-18.1-18.4-34.1c0-30.2,25.6-47.1,56.3-52c64.2-10.1,55.6,35.9,52.1,52.1
				c-3.2,14.6-8.4,25.3-16.6,32.4l0,0"/>
			<path class="st1" d="M360.4,198.4c1.3-0.6,2.6-1.1,3.9-1.8c0,0,4.4-3.9,2.2-11.5c0,0-0.7-0.2-1.9-0.7c-3.3-1.3-10-4.6-13-10.8
				c0,0-4.7-8.4-12.4-9.4c-6.1-0.9-26.8,0.2-35,0.7c-2.4,0.1-4.6,1.3-6.1,3.1c-2.9,3.6-7.2,10.3-7,18c0.1,3.8,1.3,7.9,4.2,12
				c0,0,1.5,1.4,4.6,3c4.2,2.2,11.3,5,21.2,5.5c7.4,0.4,16.5-0.5,27.2-3.8"/>
			<path class="st1" d="M348.4,202.9c3.8-1.2,7.8-2.6,12-4.5"/>
			<path class="st1" d="M360.4,198.4L360.4,198.4c1.4-0.5,0.8,4.8,0.6,7.7c-0.2,3.5-1.8,6.8-4.4,9.2c-3.1,2.8-4.6,6.2-5.3,8.6
				c-0.4,1.3-0.6,2.6-0.7,3.9c-0.1,2.5-1.1,9.1-7.8,13.8c-8.3,5.9-25.7,0.8-27.7-7.6c-0.9-3.9-3.1-6.9-5.1-9c-1.8-1.8-4-3.2-6.4-4
				c-11-3.7-8.1-21.8-8.1-21.8s1.7,0.8,4.4,1.9c4.9,2,13,4.8,21.2,5.5c2.1,0.2,4.2,0.2,6.2,0.1c9.1-0.7,14.8-1.8,21-3.9c0,0,0,0,0,0
				C352,201.7,355.7,200.2,360.4,198.4z"/>
		</g>
	</g>
	<circle class="st6" cx="318" cy="141.8" r="20.7"/>
	<g>
		<path class="st2" d="M275.6,146.5c0,0,1.9,0,4.7,0.4c0.7,0.1,1.4,0.2,2.3,0.3c0.8,0.1,1.7,0.4,2.6,0.7c0.9,0.4,1.7,0.9,2.5,1.5
			c0.8,0.6,1.5,1.4,2.1,2.2c0.5,0.8,1.1,1.6,1.6,2.3c0.5,0.8,1,1.5,1.5,2.3c0.9,1.5,1.8,2.9,2.5,4.1c1.4,2.4,2.2,4.2,2.2,4.2
			s-1.4-1.3-3.2-3.5c-0.9-1.1-1.9-2.3-3-3.7c-0.5-0.7-1.1-1.4-1.6-2.1c-0.5-0.7-1.1-1.5-1.6-2.2c-1-1.4-2.3-2.5-3.7-3.2
			c-0.7-0.4-1.4-0.7-2.1-0.9c-0.7-0.2-1.5-0.4-2.1-0.6C277.3,147.3,275.6,146.5,275.6,146.5z"/>
	</g>
	<g>
		<path class="st2" d="M369.2,138.7c0,0-2,1.1-5.1,2.4c-0.8,0.3-1.6,0.7-2.5,1c-0.9,0.4-1.7,0.8-2.5,1.4c-1.6,1.1-3.1,2.6-4.1,4.4
			c-0.5,1-1.1,1.9-1.6,2.9c-0.5,1-1.1,1.9-1.6,2.8c-1.1,1.8-2.1,3.5-3,4.9c-1.8,2.8-3.2,4.6-3.2,4.6s0.7-2.1,2.1-5.2
			c0.7-1.5,1.5-3.3,2.4-5.2c0.5-0.9,0.9-1.9,1.4-2.9c0.5-1,1-2,1.6-3c0.6-1,1.4-2,2.2-2.8c0.8-0.9,1.8-1.5,2.7-2.1
			c0.9-0.6,2-1,2.9-1.3c1-0.3,1.8-0.5,2.6-0.7C366.9,139.1,369.2,138.7,369.2,138.7z"/>
	</g>
	<g>
		<path class="st2" d="M346.2,171.5c0,0,0,1.9-0.1,4.8c-0.1,1.4-0.1,3.1-0.3,4.9c-0.1,1.8-0.3,3.7-0.4,5.6
			c-0.3,3.8-0.7,7.6-0.9,10.4c-0.1,0.7-0.1,1.4-0.2,1.9c0,0.6-0.1,1.1-0.1,1.5c0,0.8-0.1,1.3-0.1,1.3s-0.1-0.5-0.2-1.3
			c-0.1-0.4-0.1-0.9-0.2-1.5c-0.1-0.6-0.1-1.2-0.2-2c0-0.7-0.1-1.5-0.1-2.3c0-0.8,0-1.7,0-2.6c0-1.8,0.2-3.7,0.3-5.6
			c0.2-1.9,0.4-3.8,0.6-5.6c0.2-1.8,0.5-3.4,0.7-4.9C345.7,173.3,346.2,171.5,346.2,171.5z"/>
	</g>
	<g>
		<path class="st2" d="M297,172.6c0,0,0.4,1.7,0.8,4.3c0.4,2.6,1,6,1.6,9.4c0.1,0.9,0.3,1.7,0.4,2.5c0.1,0.8,0.3,1.7,0.4,2.5
			c0.1,0.8,0.3,1.6,0.4,2.3c0.2,0.7,0.3,1.4,0.4,2.1c0.2,1.3,0.5,2.3,0.6,3.1c0.1,0.8,0.2,1.2,0.2,1.2s-0.2-0.4-0.5-1.1
			c-0.3-0.7-0.8-1.7-1.2-3c-0.2-0.6-0.4-1.3-0.7-2c-0.2-0.7-0.4-1.5-0.6-2.3c-0.4-1.6-0.8-3.3-1.1-5c-0.3-1.7-0.5-3.5-0.7-5.1
			c-0.2-1.6-0.2-3.2-0.3-4.5C296.8,174.4,297,172.6,297,172.6z"/>
	</g>
	<g>
		<path class="st2" d="M298,177.9c0,0,0.7-0.2,1.9-0.5c1.2-0.3,3-0.8,5.2-1.2c2.2-0.4,4.7-0.8,7.5-1.1c1.4-0.1,2.8-0.3,4.2-0.4
			c1.4-0.1,2.9-0.2,4.4-0.2c1.5,0,2.9-0.1,4.4,0c1.5,0,2.9,0.1,4.3,0.1c0.7,0,1.4,0.1,2,0.1c0.7,0.1,1.3,0.1,1.9,0.2
			c1.3,0.1,2.5,0.3,3.5,0.5c1.1,0.2,2.1,0.4,3,0.5c0.9,0.2,1.6,0.4,2.3,0.5c1.3,0.3,2,0.5,2,0.5s-0.7,0-2-0.2
			c-0.6-0.1-1.4-0.1-2.3-0.2c-0.9,0-1.9-0.1-3-0.2c-1.1-0.1-2.3-0.1-3.5-0.2c-1.3-0.1-2.6-0.1-3.9-0.1c-0.7,0-1.4,0-2.1,0
			c-0.7,0-1.4,0-2.1,0c-1.4,0-2.9,0-4.3,0.1c-1.5,0-2.9,0.1-4.3,0.2c-1.4,0.1-2.8,0.2-4.2,0.3c-1.4,0.1-2.7,0.2-3.9,0.3
			c-1.3,0.1-2.4,0.2-3.5,0.3c-2.2,0.2-4,0.4-5.3,0.6C298.8,177.8,298,177.9,298,177.9z"/>
	</g>
	<g>
		<path class="st2" d="M300.3,193c0,0,0.7,0.2,1.8,0.4c0.6,0.1,1.3,0.3,2.1,0.4c0.8,0.1,1.8,0.3,2.8,0.4c1,0.1,2.1,0.3,3.3,0.4
			c1.2,0.1,2.4,0.2,3.7,0.3c0.6,0,1.3,0.1,1.9,0.1c0.7,0,1.3,0,2,0.1c1.3,0.1,2.7,0,4.1,0.1c1.4,0,2.7-0.1,4.1-0.1
			c1.3-0.1,2.7-0.2,3.9-0.2c1.3-0.1,2.5-0.2,3.7-0.3c1.2-0.1,2.3-0.3,3.3-0.4c1-0.2,2-0.2,2.8-0.4c0.8-0.1,1.5-0.3,2.1-0.4
			c1.2-0.2,1.9-0.3,1.9-0.3s-0.7,0.2-1.8,0.6c-0.6,0.2-1.3,0.4-2.1,0.6c-0.8,0.3-1.7,0.4-2.7,0.7c-1,0.2-2.1,0.5-3.3,0.7
			c-1.2,0.2-2.4,0.4-3.7,0.6c-1.3,0.1-2.6,0.3-4,0.4c-1.4,0-2.7,0.1-4.1,0.1c-1.4,0-2.8,0-4.1-0.1c-1.4-0.1-2.7-0.2-4-0.3
			c-1.3-0.1-2.5-0.4-3.7-0.5c-1.2-0.2-2.3-0.4-3.3-0.7c-1-0.2-1.9-0.5-2.7-0.7c-0.8-0.2-1.5-0.5-2.1-0.7
			C300.9,193.2,300.3,193,300.3,193z"/>
	</g>
	<g>
		<path class="st2" d="M320.1,209.3c0,0,0.3,1.9,0.6,4.7c0.2,1.4,0.3,3.1,0.5,4.8c0.2,1.8,0.4,3.6,0.6,5.5c0.1,0.9,0.2,1.9,0.3,2.8
			c0.1,0.9,0.2,1.8,0.4,2.7c0.1,0.9,0.3,1.7,0.4,2.5c0.1,0.8,0.3,1.5,0.4,2.2c0.1,0.7,0.3,1.3,0.4,1.9c0.1,0.6,0.2,1.1,0.4,1.4
			c0.2,0.8,0.4,1.3,0.4,1.3s-0.3-0.4-0.7-1.1c-0.2-0.4-0.4-0.8-0.7-1.4c-0.2-0.5-0.5-1.1-0.7-1.8c-0.2-0.7-0.5-1.4-0.7-2.2
			c-0.2-0.8-0.5-1.6-0.6-2.5c-0.4-1.8-0.7-3.7-0.9-5.6c-0.1-1-0.2-1.9-0.3-2.8c-0.1-0.9-0.1-1.9-0.2-2.8c-0.1-1.8-0.1-3.5,0-4.9
			C319.8,211.2,320.1,209.3,320.1,209.3z"/>
	</g>
	<path class="st2" d="M310.8,103.3c0,0-0.8,15,16.4,14.4s21.1-12.3,20-16S315.7,98.1,310.8,103.3z"/>
	<g id="XMLID_24_">
		<g>
			<path class="st5" d="M333.9,239.5c0,0,1.3-17.2,18.1-23.1c0,0,25.5-14.3,16.6,65.3c0,0-3.9,10.4-16.6,7.2
				C339.3,285.7,333.7,270.8,333.9,239.5z"/>
		</g>
		<g>
			<path class="st1" d="M352.1,216.3c0,0,25.5-14.3,16.6,65.3c0,0-3.9,10.4-16.6,7.2c-12.8-3.2-18.4-18.1-18.1-49.4
				C333.9,239.5,335.3,222.3,352.1,216.3z"/>
		</g>
	</g>
	<g>
		<path class="st2" d="M367.4,231.4c0,0-0.8,0.4-2.1,1.2c-1.3,0.8-3.2,1.9-5.5,3.3c-1.1,0.7-2.3,1.4-3.6,2.3
			c-1.3,0.8-2.6,1.7-3.9,2.7c-0.7,0.5-1.3,1-2,1.5c-0.7,0.5-1.3,1-2,1.6c-1.3,1.1-2.5,2.3-3.6,3.6l-0.7,1l-0.1,0.1l0,0.1l0,0
			c0,0,0,0.1,0,0l0,0l-0.1,0.3l-0.3,0.6l-0.3,0.6l-0.2,0.6c-0.1,0.4-0.2,0.8-0.3,1.2c-0.3,1.6-0.5,3.3-0.5,4.9
			c-0.1,3.2,0.2,6.3,0.4,8.9c0.3,2.6,0.6,4.8,0.9,6.3c0.3,1.5,0.4,2.4,0.4,2.4s-0.3-0.8-0.7-2.3c-0.4-1.5-1-3.6-1.5-6.3
			c-0.2-1.3-0.5-2.7-0.6-4.3c-0.2-1.5-0.3-3.1-0.3-4.8c0-0.4,0-0.8,0-1.3c0-0.4,0.1-0.9,0.1-1.3c0-0.9,0.2-1.8,0.4-2.6
			c0.1-0.4,0.2-0.9,0.4-1.4l0.2-0.7l0.3-0.6l0.3-0.6l0.1-0.3l0,0c0.1-0.1,0,0,0-0.1l0,0l0-0.1l0.1-0.1l0.8-1.2
			c1.2-1.4,2.5-2.7,3.9-3.8c0.7-0.6,1.4-1.1,2.1-1.6c0.7-0.5,1.4-1,2.1-1.4c1.4-0.9,2.8-1.8,4.1-2.5c1.3-0.8,2.6-1.4,3.8-2.1
			c2.4-1.2,4.4-2.1,5.8-2.8C366.5,231.7,367.4,231.4,367.4,231.4z"/>
	</g>
	<g id="XMLID_23_">
		<g>
			<path class="st0" d="M329.5,359.1c0,0-11.7-82.2,21.4-86.9c33.2-4.7,24.1,84.5,24.1,84.5L329.5,359.1z"/>
		</g>
		<g>
			<path class="st1" d="M329.5,359.1c0,0-11.7-82.2,21.4-86.9c33.2-4.7,24.1,84.5,24.1,84.5L329.5,359.1z"/>
		</g>
	</g>
	<path class="st2" d="M311.3,364.7c0,0,0.6-28.7,29.9-31.6s37.3,31.5,37.3,31.5S357.3,364.7,311.3,364.7z"/>
	<path class="st5" d="M314.8,362.2c0,0-3.1-6.2,7.8-17.6c1.4-1.5,3.1-2.6,4.9-3.4c0.1,0,0.1-0.1,0.2-0.1c12.9-5.3,27.7-1.1,36,10
		c2.1,2.7,3.9,5.9,4.7,8.7c0,0-22,0.9-29.3,0.9c0,0,0-4.9-1.1-6.7c-1.1-1.8-11.7-2.6-18.5-1.3C319.6,352.8,315.9,355.5,314.8,362.2z
		"/>
	<g>
		<path class="st2" d="M331.3,289.5c0,0,0.6,0.5,1.6,1.5c0.5,0.5,1.1,1,1.8,1.7c0.7,0.7,1.5,1.4,2.3,2.3c0.8,0.9,1.6,1.9,2.4,3.1
			c0.8,1.2,1.5,2.5,2,3.9c0.6,1.4,1.1,2.9,1.3,4.5c0.3,1.6,0.4,3.3,0.5,4.8c0.1,1.6,0.1,3.1,0.2,4.7c0.1,1.5,0.1,3.1,0.1,4.5
			c0,2.9,0,5.7,0,8c-0.1,4.7-0.3,7.9-0.3,7.9s-0.5-3.1-0.9-7.8c-0.2-2.3-0.5-5.1-0.7-8c-0.1-1.5-0.2-3-0.3-4.5
			c-0.1-1.5-0.2-3.1-0.2-4.7c0-1.6-0.1-3-0.4-4.5c-0.3-1.5-0.6-2.9-1.1-4.2c-0.9-2.7-2.2-5-3.6-6.9c-0.7-0.9-1.4-1.8-2-2.5
			c-0.6-0.8-1.1-1.4-1.5-2C331.7,290.1,331.3,289.5,331.3,289.5z"/>
	</g>
	<g>
		<path class="st2" d="M370.1,288.3c0,0-0.5,0.6-1.3,1.7c-0.4,0.5-0.9,1.2-1.5,2c-0.6,0.8-1.3,1.6-2,2.5c-1.3,1.8-2.7,4.2-3.6,6.9
			c-0.5,1.3-0.8,2.8-1.1,4.2c-0.3,1.5-0.3,2.9-0.4,4.5c-0.1,1.6-0.2,3.1-0.2,4.7c-0.1,1.5-0.2,3.1-0.3,4.5c-0.2,2.9-0.4,5.7-0.7,8
			c-0.4,4.7-0.9,7.8-0.9,7.8s-0.2-3.1-0.3-7.9c0-2.4,0-5.1,0-8c0-1.5,0-3,0.1-4.5c0.1-1.5,0.1-3.1,0.2-4.7c0.1-1.5,0.2-3.2,0.5-4.8
			c0.3-1.6,0.8-3.1,1.3-4.5c0.6-1.4,1.3-2.7,2-3.9c0.8-1.2,1.6-2.2,2.4-3.1c0.8-0.9,1.6-1.6,2.3-2.3c0.7-0.7,1.3-1.2,1.8-1.7
			C369.5,288.8,370.1,288.3,370.1,288.3z"/>
	</g>
	<g id="XMLID_22_">
		<g>
			<path class="st0" d="M450.6,200c0.3,12.3-12.1,20.8-23.3,16c-4.2-1.8-8.8-5.2-13.5-11c0,0-6-7.9-10.2-22.4
				c-1.4-4.7-0.5-9.8,2.4-13.8c2.9-4,8.3-7.4,18.2-6.3c1.3,0.1,2.5,0.6,3.5,1.4C433,167.8,450,182,450.6,200z"/>
		</g>
		<g>
			<path class="st1" d="M405.9,168.7c2.9-4,8.3-7.4,18.2-6.3c1.3,0.1,2.5,0.6,3.5,1.4c5.3,4,22.3,18.1,22.9,36.2
				c0.3,12.3-12.1,20.8-23.3,16c-4.2-1.8-8.8-5.2-13.5-11c0,0-6-7.9-10.2-22.4C402.2,177.8,403,172.7,405.9,168.7z"/>
		</g>
	</g>
	<path class="st7" d="M432.9,230.3c0,0-5.7,11.7-1.5,18.1c4.3,6.4,11.7,2.1,11.7,2.1"/>
	<path class="st7" d="M469.2,226.1c0,0,6.3,2.8,5.9,13.1c-0.4,10.4-8.1,9.1-8.1,9.1"/>
	<path class="st7" d="M464.1,230.5c0,0,5.5,2.8,3.4,15.1c-1,5.8-9.1,6.1-9.1,6.1"/>
	<path class="st7" d="M454.6,233.4c0,0,3.4,3.5,3.9,9.6c0.4,5,1.3,11.1-5.6,11.5c-4.3,0.3-8.5-1.8-10.7-5.5c-0.9-1.5-1.5-3.2-1.3-5
		c0,0,0-3.3,4.5-3.7s5.3,7,5.3,7"/>
	<path class="st7" d="M469.2,226.1c0,0-9.9-30.6-34.7-20.4c0,0-11.3,5.2-7.8,14.5c3.5,9.3,11.2,14.7,11.2,14.7
		S464.3,235.1,469.2,226.1z"/>
	<path class="st7" d="M441.3,203.6c-6.6,0.2-3.2,9.6-3.2,9.6l7.1,9c0,0,16.5,3.9,18.9-6.3C464.1,215.9,457.3,203,441.3,203.6z"/>
	<line class="st7" x1="437.8" y1="234.8" x2="441.6" y2="241.9"/>
	<g>
		<path class="st2" d="M407.7,178.4c0,0,2.1-0.3,5.3-0.4c0.2,0,0.4,0,0.6,0c0.2,0,0.5,0,0.7,0c0.5,0.1,0.9,0.2,1.4,0.4
			c0.5,0.2,0.9,0.4,1.4,0.7c0.4,0.3,0.9,0.7,1.2,1c1.4,1.4,2.9,2.9,4.4,4.4c0.7,0.8,1.5,1.5,2.2,2.3c0.7,0.8,1.4,1.5,2.1,2.3
			c1.3,1.5,2.6,2.9,3.6,4.1c2.1,2.4,3.3,4.2,3.3,4.2s-1.7-1.3-4-3.5c-1.2-1.1-2.5-2.4-3.9-3.8c-0.7-0.7-1.4-1.4-2.2-2.2
			c-0.7-0.7-1.5-1.5-2.2-2.3c-1.5-1.5-2.9-3.1-4.2-4.6c-0.3-0.4-0.6-0.7-1-1c-0.3-0.3-0.7-0.5-1.1-0.7c-0.4-0.2-0.8-0.3-1.1-0.4
			c-0.2,0-0.4-0.1-0.6-0.1c-0.2,0-0.4,0-0.6-0.1C409.9,178.7,407.7,178.4,407.7,178.4z"/>
	</g>
	<g>
		<path class="st2" d="M443,196.9c0,0-0.2-0.9-0.3-2.3c-0.1-1.4-0.1-3.1-0.1-4.9c0-1.8,0.1-3.5,0.2-4.9c0-0.3,0-0.6,0-0.9
			c0-0.3,0-0.5,0-0.7c0-0.4,0-0.6,0-0.6s0.1,0.2,0.3,0.6c0.1,0.2,0.2,0.4,0.3,0.7c0.1,0.3,0.2,0.6,0.3,0.9c0.1,0.3,0.2,0.7,0.2,1.1
			c0.1,0.4,0.1,0.8,0.2,1.2c0.1,0.9,0.1,1.8,0.1,2.7c0,1.8-0.3,3.6-0.6,4.9C443.4,196.1,443,196.9,443,196.9z"/>
	</g>
	<g id="XMLID_21_">
		<g>
			<path class="st0" d="M361.2,127.7c-5.5-12.7,1.4-20.9,8-25.5c5-3.5,11.1-5,17.2-4.3c26.7,2.9,29.3,23.2,29.3,23.2
				c-1.7,3.5-4,6.6-6.9,9.2c-0.1,0-0.2,0.1-0.2,0.1s0,0,0,0c-0.2,0.2-13.8,12.7-32.5,9.5C369.7,138.4,364.2,134.5,361.2,127.7z"/>
			<path class="st5" d="M420.5,146.2c11.7,18.5-1.5,25.7-1.5,25.7s-6,4.9-21.9-2.5c-15.9-7.4-20.9-29.3-20.9-29.3
				c10.6,2.5,23.7-1.4,32.5-9.5c0.1,0,0.1-0.1,0.2-0.1C409.3,130.3,411.5,131.9,420.5,146.2z"/>
		</g>
		<g>
			<path class="st1" d="M408.8,130.3c2.8-2.6,5.2-5.7,6.9-9.2c0,0-2.6-20.3-29.3-23.2c-6.1-0.7-12.2,0.8-17.2,4.3
				c-6.6,4.6-13.5,12.8-8,25.5c3,6.8,8.5,10.7,15,12.3c10.6,2.5,23.7-1.4,32.5-9.5C408.7,130.4,408.8,130.4,408.8,130.3z"/>
			<path class="st1" d="M376.2,140c0,0,4.9,21.9,20.9,29.3c15.9,7.4,21.9,2.5,21.9,2.5s13.2-7.2,1.5-25.7
				c-9.1-14.3-11.2-15.9-11.7-15.9c-0.1,0-0.2,0.1-0.2,0.1s0,0,0,0C408.5,130.6,394.8,143.1,376.2,140z"/>
		</g>
	</g>
	<g>
		<path class="st0" d="M363.2,111.6l23.8,10.1c2,0.9,3.4,2.7,3.8,4.8l1.5,9.9"/>
		<path class="st2" d="M363.2,111.6c0,0,2.5,0.8,6.3,2.2c1.9,0.7,4,1.5,6.3,2.4c2.3,0.9,4.7,1.9,7.2,2.9c1.2,0.5,2.4,1.1,3.6,1.6
			c0.6,0.2,1.2,0.5,1.8,0.9c0.6,0.4,1.1,0.9,1.5,1.4c0.9,1.1,1.3,2.4,1.4,3.6c0.1,1.1,0.3,2.2,0.4,3.2c0.4,3.9,0.6,6.6,0.6,6.6
			s-0.7-2.6-1.5-6.5c-0.2-1-0.4-2-0.6-3.1c-0.2-1-0.6-2-1.4-2.9c-0.4-0.4-0.8-0.8-1.3-1.1c-0.5-0.3-1-0.5-1.6-0.8
			c-1.2-0.5-2.4-1-3.6-1.5c-2.4-1-4.8-2.1-7.1-3.1c-2.3-1-4.3-2-6.1-2.9C365.6,112.9,363.2,111.6,363.2,111.6z"/>
	</g>
	<g>
		<path class="st2" d="M396.7,138c0,0,1.4,0.5,3.3,1.9c0.9,0.7,2,1.6,2.9,2.7c0.5,0.6,1,1.2,1.4,1.8c0.2,0.3,0.4,0.7,0.6,1.1
			c0.2,0.4,0.3,0.7,0.4,1.1c0.1,0.2,0.1,0.4,0.2,0.6l0.1,0.6c0.1,0.4,0.1,0.8,0.2,1.2c0.1,0.8,0.1,1.5,0.1,2.3
			c0,0.7-0.1,1.4-0.2,2.1c-0.1,0.7-0.2,1.3-0.3,1.8c-0.5,2.3-1.2,3.6-1.2,3.6s0.2-1.5,0.3-3.7c0-0.6,0-1.2,0.1-1.8c0-0.6,0-1.3,0-2
			c0-0.7-0.1-1.4-0.2-2.1c-0.1-0.3-0.1-0.7-0.2-1l-0.1-0.6l-0.2-0.5c-0.1-0.3-0.2-0.7-0.4-1c-0.1-0.3-0.3-0.6-0.5-0.9
			c-0.3-0.6-0.7-1.2-1.1-1.7c-0.8-1.1-1.7-2-2.4-2.9C397.9,139,396.7,138,396.7,138z"/>
	</g>
	<path class="st4" d="M370.6,66.4c-4,25.4-26.4,43-51.8,39s-41.4-27.7-37.4-53.1s26.6-43,52-39S374.6,41,370.6,66.4z"/>
	<path class="st2" d="M304.2,21.1c0,0,1.1,13.1,2.6,16.2c1.5,3.1,6.2,2.8,8.4-0.3c2.2-3,16-17.7,23.7-21.5
		C338.9,15.6,318.1,7.8,304.2,21.1z"/>
	<path class="st2" d="M363.5,46.7l-2.2,6.4c0,0-3.5,4.8-4,11.7s0.5,10.7,4.3,14.7s14.2,2.7,15.7-13c0,0,1.4-10.4-5.4-16.1
		L363.5,46.7z"/>
	<path class="st2" d="M363.5,46.7c0,0-5.6-22.3-28.4-28.8l1.5-3c0,0,28.9,1.6,33.3,34.6"/>
	<path class="st2" d="M280,48.1c0,0-11.5,13.5,1.4,28.8"/>
	<ellipse transform="matrix(0.9878 0.156 -0.156 0.9878 14.5541 -56.8375)" class="st0" cx="369.4" cy="64.3" rx="5.4" ry="9.5"/>
	<ellipse transform="matrix(0.9878 0.156 -0.156 0.9878 14.4579 -56.6742)" class="st2" cx="368.3" cy="63.8" rx="2.1" ry="3.7"/>
	<path class="st2" d="M368.8,40c0,0,7.1-9,4.5,12"/>
	<path class="st5" d="M335.1,47.4c-5.8-0.9-11.3,3.1-12.2,8.9c-0.9,5.8,3.1,11.3,8.9,12.2c5.8,0.9,11.3-3.1,12.2-8.9
		C344.9,53.8,341,48.3,335.1,47.4z M336,59.8c-4.1-0.7-3.1-7.1,1-6.4C341.2,54.1,340.2,60.5,336,59.8z"/>
	<path class="st5" d="M299.8,50.6c-5.5-0.9-10.6,2.9-11.5,8.3c-0.9,5.5,2.9,10.6,8.3,11.5s10.6-2.9,11.5-8.3
		C308.9,56.6,305.2,51.4,299.8,50.6z M300.2,62.3c-4.1-0.7-3.1-7.1,1-6.4C305.3,56.6,304.3,63,300.2,62.3z"/>
	<path class="st2" d="M299.8,52.6c-2.4-0.5-4.8,0.1-6.6,1.5c-1.4,1.1-2.5,2.7-2.9,4.6c-0.7,3.4,0.8,6.8,3.7,8.5
		c0.7,0.4,1.5,0.8,2.4,0.9c0.2,0,0.3,0.1,0.5,0.1c4.1,0.7,8.1-2,9-6.1c0.5-2.1,0.1-4.2-1.1-6C303.7,54.3,301.9,53.1,299.8,52.6z
		 M305,61.9c-0.8,3.8-4.6,6.2-8.4,5.4c-0.9-0.2-1.7-0.6-2.4-1c-2.3-1.6-3.6-4.4-3-7.4c0.3-1.5,1.2-2.9,2.3-3.8
		c1.5-1.3,3.6-1.9,5.7-1.6c0.1,0,0.3,0,0.4,0.1c1.8,0.4,3.4,1.5,4.4,3.1C305.1,58.2,305.4,60.1,305,61.9z"/>
	<path class="st2" d="M302.3,60.9c-1,0.5-2.4,0-3-1.1c-0.6-1.1-0.3-2.5,0.7-3c0.5-0.3,1.1-0.3,1.7,0c-0.4-0.4-0.8-0.6-1.2-0.9
		c0,0-0.1,0-0.1,0c-2.5-0.5-4.9,1-5.4,3.5c-0.5,2.5,1,4.9,3.5,5.4c1.4,0.3,2.8-0.1,3.9-1c0.7-1.1,1.1-2.4,0.9-3.8
		C303,60.3,302.7,60.7,302.3,60.9z"/>
	<path class="st2" d="M337.9,58.6c-1.1,0.5-2.5,0-3.2-1.2c-0.7-1.2-0.4-2.6,0.7-3.2c0.5-0.3,1.2-0.3,1.8-0.1
		c-0.4-0.4-0.8-0.7-1.3-0.9c0,0-0.1,0-0.1,0c-2.6-0.6-5.2,1.1-5.7,3.7c-0.6,2.6,1.1,5.2,3.7,5.7c1.5,0.3,3-0.1,4.1-1
		c0.8-1.1,1.2-2.6,1-4C338.6,58,338.3,58.4,337.9,58.6z"/>
	<path class="st2" d="M335.3,49.9c-4.5-1-9,1.9-10,6.4c-0.5,2.2-0.1,4.4,1.1,6.3c1.2,1.9,3.1,3.2,5.2,3.7c0.2,0,0.3,0.1,0.5,0.1
		c4.4,0.7,8.5-2.2,9.5-6.5c0.5-2.2,0.1-4.4-1.1-6.3C339.3,51.7,337.5,50.4,335.3,49.9z M340.8,59.7c-0.9,4-4.8,6.6-8.9,5.7
		c-1.9-0.4-3.6-1.6-4.7-3.3c-1.1-1.7-1.4-3.7-1-5.6c0.8-3.8,4.5-6.4,8.4-5.8c0.1,0,0.3,0.1,0.4,0.1c1.9,0.4,3.6,1.6,4.7,3.3
		C340.8,55.7,341.2,57.7,340.8,59.7z"/>
	<path class="st2" d="M336.1,46.4c-6.5-1.4-12.9,2.7-14.3,9.1c-1.4,6.5,2.7,12.9,9.1,14.3c0.2,0.1,0.5,0.1,0.7,0.1
		c6.2,1,12.2-3.1,13.6-9.3c0.7-3.1,0.1-6.3-1.6-9C341.9,48.9,339.2,47.1,336.1,46.4z M343.4,60.3c-1.2,5.5-6.6,9-12.1,7.8
		c-5.5-1.2-9-6.6-7.8-12.1c1.2-5.3,6.2-8.7,11.5-7.9c0.2,0,0.4,0.1,0.6,0.1c2.7,0.6,4.9,2.2,6.4,4.5C343.5,54.9,344,57.6,343.4,60.3
		z"/>
	<path class="st2" d="M300.6,49.3c-3.2-0.7-6.3,0-8.8,1.7c-2.4,1.6-4.2,4.1-4.8,7c-0.7,3-0.1,6,1.5,8.6c1.1,1.8,2.7,3.2,4.6,4.1
		c0.8,0.4,1.7,0.7,2.6,0.9c0.2,0,0.4,0.1,0.7,0.1c5.9,0.9,11.6-2.9,12.9-8.8C310.6,56.7,306.7,50.6,300.6,49.3z M307.5,62.5
		c-1.1,5.1-6.2,8.5-11.4,7.3c-0.9-0.2-1.7-0.5-2.4-0.9c-1.5-0.8-2.7-1.9-3.6-3.3c-1.4-2.2-1.8-4.7-1.3-7.2c0.5-2.4,2-4.5,3.9-5.8
		c2-1.4,4.4-2,7-1.6c0.2,0,0.4,0.1,0.6,0.1C305.3,52.2,308.6,57.3,307.5,62.5z"/>
	<path class="st2" d="M346.2,45.6l0.7-6c-8.7-6.7-17.8-5.3-17.8-5.3l0.6,6.6C340,39.2,346.2,45.6,346.2,45.6z"/>
	<path class="st2" d="M285.4,49.1l-1.2-5.9c8.1-7.4,17.3-6.8,17.3-6.8l0,6.6C291.1,42.2,285.4,49.1,285.4,49.1z"/>
	<path class="st2" d="M286,77.4c0,0,26.6,13,61.5-2.1c0,0-8.9,24.6-29.9,24.5c0,0-16.7,0.1-22.8-17.5
		C294.8,82.4,286.4,78.6,286,77.4z"/>
	<path class="st0" d="M302.6,90.2c0,0,6.9,11,21,7.2c0,0,7.8-1.5,13.9-10.1c0,0-3.1,1.3-4.6,2.6c-1.5,1.3-7.4,6.7-15.7,5.8
		c-8.4-0.9-11.6-5.6-11.6-5.6S304.1,88.2,302.6,90.2z"/>
	<path class="st0" d="M298.8,82c0,0,22.4,4.9,42.5-2.9c0,0-4.1,7.6-25.2,7.6C316.1,86.7,305.7,87.1,298.8,82z"/>
	<path class="st8" d="M144.3,240.7H73.1c-0.8,0-1.5-0.7-1.5-1.5v-3.9c0-0.8,0.7-1.5,1.5-1.5h71.2c0.8,0,1.5,0.7,1.5,1.5v3.9
		C145.8,240,145.1,240.7,144.3,240.7z"/>
	<line class="st9" x1="131" y1="240.7" x2="145.8" y2="366.7"/>
	<line class="st9" x1="86.4" y1="243" x2="71.6" y2="369"/>
	<line class="st9" x1="80.9" y1="300.7" x2="140.8" y2="300.7"/>
	<path class="st10" d="M143.4,143.9l12.7,21.8c1.8,3.1,5.8,4.2,8.9,2.4h0c3.2-1.8,4.2-5.9,2.3-9l-13.1-22"/>
	<path class="st11" d="M136.4,143.8c0,0,7,1.6,12.8-2s7.8-9.7,7.8-9.7s-2.1-5.6-6.2-10.1c-4.1-4.6-11.7-5.2-17.9-1.4l-2.6,1.6
		c-3.2,2-4.2,6.3-2.1,9.4L136.4,143.8z"/>
	<path class="st4" d="M92.8,116.1c-23.3,7-27.9,23.7-26.9,43.1c0.1,1.7,0.2,3.5,0.5,5.3c3.1,26,23.6,57.8,23.6,57.8l42.1-0.8
		c0,0-1.9-23,9.7-49.2c7.2-16.2-1-45.1-15.2-51.8C121.4,118.1,106,112.2,92.8,116.1z"/>
	
		<rect x="108.2" y="217.8" transform="matrix(0.7461 0.6659 -0.6659 0.7461 186.0668 -15.4203)" class="st12" width="10.1" height="36.9"/>
	<path class="st13" d="M134.5,185.6c0,0-6.9-1.9-9.9,1c-3,3,0,6.6,0,6.6"/>
	<path class="st13" d="M140.4,204.8c0,0-0.9,3.7-6.5,4.5s-5.8-3.5-5.8-3.5"/>
	<path class="st13" d="M137.5,202.5c0,0-1,3.2-7.8,3.4c-3.2,0.1-4.2-4.3-4.2-4.3"/>
	<path class="st13" d="M135,197.6c0,0-1.5,2.2-4.8,3c-2.7,0.7-5.9,1.8-6.8-1.9c-0.6-2.3,0.1-4.8,1.9-6.3c0.7-0.6,1.6-1.1,2.6-1.2
		c0,0,1.8-0.3,2.5,2.1s-3.3,3.6-3.3,3.6"/>
	<path class="st13" d="M140.4,204.8c0,0,15.6-8.4,7.6-20.8c0,0-4-5.6-8.6-2.8c-4.7,2.8-6.8,7.5-6.8,7.5S135,203.1,140.4,204.8z"/>
	<path class="st13" d="M149.8,187.5c-0.8-3.5-5.5-0.8-5.5-0.8l-4.2,4.7c0,0-0.5,9.3,5.3,9.6C145.4,201,151.7,196.1,149.8,187.5z"/>
	<path class="st14" d="M159,161c0,0,13.4,1.4,11.8,16.4L155,194.5c0,0-12.9-4.7-15.3-17.4L159,161z"/>
	<line class="st13" x1="132.5" y1="188.7" x2="129" y2="191.5"/>
	<g>
		<path class="st2" d="M168.2,180.2c0,0-0.8,0.6-2.1,1.3c-0.6,0.4-1.4,0.8-2.2,1.2c-0.4,0.2-0.8,0.4-1.2,0.6c-0.3,0.2-0.7,0.4-1,0.7
			c-0.3,0.3-0.6,0.6-0.9,0.9c-0.2,0.3-0.5,0.7-0.6,1c-0.2,0.4-0.3,0.7-0.4,1.1c-0.1,0.4-0.2,0.8-0.3,1.1c-0.4,1.4-0.8,2.3-0.8,2.3
			s-0.1-1-0.1-2.5c0-0.4,0-0.8,0-1.2c0-0.5,0.1-1,0.3-1.4c0.2-0.5,0.4-1,0.7-1.4c0.3-0.4,0.7-0.9,1.1-1.2c0.4-0.4,0.9-0.6,1.4-0.9
			l0.3-0.1c0.2-0.1,0.2-0.1,0.4-0.1c0.2-0.1,0.4-0.2,0.7-0.2c0.9-0.3,1.7-0.5,2.4-0.7C167.2,180.3,168.2,180.2,168.2,180.2z"/>
	</g>
	<g>
		<path class="st2" d="M159.9,166.5c0,0-0.2,1.1-0.8,2.6c-0.3,0.8-0.6,1.6-1,2.5c-0.4,0.9-0.8,1.9-1.3,2.8c-0.2,0.5-0.6,1-1,1.5
			c-0.4,0.5-0.8,0.8-1.2,1.1c-0.9,0.6-1.9,1-2.7,1.1c-0.9,0.1-1.5,0.1-2,0.1c-0.5,0-0.7,0-0.7,0s0.2-0.1,0.7-0.3
			c0.4-0.2,1.1-0.4,1.8-0.7c0.7-0.3,1.4-0.7,2.1-1.3c0.3-0.3,0.6-0.6,0.9-1c0.3-0.4,0.5-0.7,0.7-1.2c0.5-0.9,1-1.9,1.5-2.7
			c0.5-0.9,1-1.7,1.4-2.3C159.2,167.3,159.9,166.5,159.9,166.5z"/>
	</g>
	
		<rect x="68.7" y="216.6" transform="matrix(0.7479 0.6638 -0.6638 0.7479 174.5938 10.3206)" class="st12" width="10.1" height="36.9"/>
	<g>
		<path class="st13" d="M70.7,240c-7-4-15.8,0.6-16.5,8.6c-0.2,2.8,0,6.3,1.1,10.6c4.1,16.4,11.8,38.8,11.8,38.8l37.8-20.7L78.5,246
			C78.5,246,75.1,242.5,70.7,240z"/>
		<path class="st15" d="M56.9,305.6l49.5-27.1c0,0-22.6-15.8-39-6.7C50.9,280.9,56.9,305.6,56.9,305.6z"/>
		<polygon class="st16" points="102.1,276.9 73.5,292.5 68.4,288.8 61.8,292.5 62.9,298.3 57.7,301.2 59.7,304 106.3,278.5 		"/>
	</g>
	<path class="st12" d="M80.8,208.8c0,0,5.2-7.6,9.4-13.1c4.2-5.4,19.4-7.9,23.5,0.1c2.3,4.3,8.9,7.2,14.2,8.9
		c6.9,2.2,9.9,10.4,5.9,16.4c-0.3,0.5-0.7,1-1.1,1.4c-6.7,7-42.4,5.4-46.2,0.3C82.6,217.6,80.8,208.8,80.8,208.8z"/>
	<circle class="st17" cx="94.7" cy="152.4" r="14"/>
	<g>
		<path class="st2" d="M129.4,147.6c0,0-0.5,0.3-1.4,0.7c-0.5,0.2-1,0.5-1.7,0.8c-0.6,0.3-1.4,0.7-2,1.1c-0.7,0.5-1.5,0.9-2.2,1.5
			c-0.7,0.6-1.5,1.3-2.1,2.1c-1.4,1.5-2.5,3.4-3.3,5.4c-0.4,1-0.6,2.1-0.9,3.2c-0.3,1.1-0.6,2.2-0.9,3.2c-0.6,2.1-1.2,4-1.7,5.7
			c-1.1,3.3-2,5.5-2,5.5s0.2-2.3,0.8-5.8c0.3-1.7,0.7-3.7,1.1-5.8c0.2-1.1,0.4-2.2,0.7-3.3c0.3-1.1,0.5-2.3,0.9-3.4
			c0.5-1.1,1-2.2,1.7-3.3c0.6-1,1.4-1.9,2.2-2.7c0.8-0.8,1.7-1.5,2.6-2c0.9-0.6,1.8-1,2.6-1.4c0.4-0.2,0.8-0.3,1.2-0.4
			c0.4-0.1,0.8-0.2,1.1-0.3c0.7-0.2,1.3-0.3,1.8-0.4C128.8,147.7,129.4,147.6,129.4,147.6z"/>
	</g>
	<g>
		<path class="st2" d="M64.6,148.6c0,0,0.6,0.1,1.6,0.3c0.5,0.1,1.1,0.2,1.8,0.4c0.3,0.1,0.7,0.2,1.1,0.3c0.4,0.1,0.8,0.3,1.2,0.4
			c0.8,0.4,1.7,0.8,2.6,1.4c0.9,0.6,1.8,1.2,2.6,2c0.8,0.8,1.6,1.7,2.2,2.7c0.7,1,1.2,2.1,1.7,3.3c0.4,1.2,0.7,2.4,0.9,3.4
			c0.3,1.1,0.5,2.2,0.7,3.3c0.4,2.1,0.8,4.1,1.1,5.8c0.6,3.4,0.8,5.8,0.8,5.8s-0.9-2.2-2-5.5c-0.6-1.7-1.1-3.6-1.7-5.7
			c-0.3-1-0.6-2.1-0.9-3.2c-0.3-1.1-0.5-2.2-0.9-3.2c-0.7-2-1.9-3.9-3.3-5.4c-0.7-0.8-1.4-1.5-2.1-2.1c-0.7-0.6-1.5-1.1-2.2-1.5
			c-0.7-0.4-1.4-0.8-2-1.1c-0.6-0.3-1.2-0.6-1.7-0.8C65.1,148.9,64.6,148.6,64.6,148.6z"/>
	</g>
	<g>
		<line class="st0" x1="88.7" y1="202.3" x2="91.7" y2="221.2"/>
		<path class="st2" d="M88.7,202.3c0,0,0.1,0.3,0.3,0.8c0.2,0.5,0.5,1.2,0.7,2.1c0.3,0.9,0.5,1.9,0.8,3c0.3,1.1,0.5,2.3,0.7,3.5
			c0.4,2.4,0.6,4.8,0.6,6.6c0,1.8-0.1,3.1-0.1,3.1s-0.5-1.1-1.1-2.9c-0.5-1.7-1.1-4.1-1.5-6.4c-0.2-1.2-0.3-2.4-0.4-3.5
			c-0.1-1.1-0.1-2.2-0.1-3.1c0-0.9,0-1.7,0.1-2.2C88.7,202.6,88.7,202.3,88.7,202.3z"/>
	</g>
	<g>
		<path class="st2" d="M115.6,201.8c0,0,0.1,0.3,0.2,0.8c0.1,0.5,0.3,1.2,0.4,2.1c0.1,0.9,0.2,1.9,0.3,2.9c0.1,1.1,0.1,2.2,0.1,3.4
			c0,2.3-0.2,4.6-0.5,6.3c-0.3,1.7-0.6,2.9-0.6,2.9s-0.4-1.1-0.6-2.9c-0.3-1.7-0.5-4-0.5-6.3c0-1.1,0-2.3,0.1-3.4
			c0.1-1.1,0.2-2.1,0.3-2.9c0.1-0.9,0.3-1.6,0.4-2.1C115.5,202.1,115.6,201.8,115.6,201.8z"/>
	</g>
	<g>
		<path class="st2" d="M91.7,206.1c0,0,1.2-0.7,3.2-1.2c2-0.6,4.7-1,7.5-1.1c1.4,0,2.8,0.1,4.1,0.2c0.6,0.1,1.3,0.2,1.8,0.3
			c0.6,0.1,1.1,0.2,1.6,0.4c1,0.3,1.8,0.6,2.4,0.9c0.6,0.3,0.9,0.4,0.9,0.4s-0.4,0-1,0c-0.3,0-0.7,0-1.1,0c-0.4,0-0.9,0-1.4,0
			c-0.5,0-1.1,0-1.6,0c-0.6,0-1.2,0-1.8,0c-0.6,0-1.3,0-1.9,0c-0.7,0-1.3,0-2,0c-0.7,0-1.3,0-2,0c-0.7,0-1.3,0-1.9,0
			c-1.3,0-2.4,0-3.4,0.1c-1,0-1.9,0-2.5,0C92.1,206.1,91.7,206.1,91.7,206.1z"/>
	</g>
	<g>
		<path class="st2" d="M91.7,217.4c0,0,0.3,0,1,0c0.6,0,1.5,0,2.5,0c1,0,2.2,0,3.4,0.1c0.6,0,1.3,0,1.9,0c0.7,0,1.3,0,2,0
			c0.7,0,1.3,0,2,0c0.7,0,1.3,0,1.9,0c0.6,0,1.2,0,1.8,0c0.6,0,1.1,0,1.6,0c0.5,0,1,0,1.4,0c0.4,0,0.8,0,1.1,0c0.6,0,1,0,1,0
			s-0.3,0.2-0.9,0.4c-0.6,0.3-1.4,0.6-2.4,0.9c-0.5,0.2-1,0.3-1.6,0.4c-0.6,0.1-1.2,0.3-1.8,0.3c-1.3,0.2-2.7,0.3-4.1,0.2
			c-2.8,0-5.5-0.5-7.5-1.1C93,218.1,91.7,217.4,91.7,217.4z"/>
	</g>
	<g>
		<path class="st2" d="M131.2,126.4c0,0,1.1,0.5,2.7,1.3c0.8,0.4,1.7,1,2.7,1.6c1,0.6,2,1.3,3,1.9c0.5,0.4,1,0.7,1.5,1.1
			c0.2,0.2,0.5,0.3,0.7,0.5c0.2,0.2,0.5,0.4,0.7,0.7c0.9,1,1.2,2.3,1,3.3c-0.2,1.8-0.5,3-0.5,3s-0.3-1.2-0.5-3
			c-0.1-0.8-0.5-1.7-1.2-2.3c-0.2-0.2-0.3-0.3-0.6-0.4c-0.2-0.2-0.5-0.3-0.7-0.5c-0.5-0.3-1-0.7-1.5-1c-1-0.7-2-1.4-2.9-2.1
			c-0.9-0.7-1.7-1.4-2.4-2C132.1,127.3,131.2,126.4,131.2,126.4z"/>
	</g>
	<g>
		<path class="st13" d="M111.1,247c-4.2-6.9-14.2-7.1-18.6-0.3c-1.6,2.4-3,5.6-4.2,9.8c-4.3,16.4-8.3,39.7-8.3,39.7h43.1L115,256
			C115,256,113.7,251.3,111.1,247z"/>
		<path class="st15" d="M66.7,296.1h56.4c0,0-12.2-24.7-31-24.6S66.7,296.1,66.7,296.1z"/>
		<polygon class="st16" points="120.2,292.7 87.6,292.7 84.9,287 77.3,287 75.6,292.7 69.6,292.7 70,296.1 123.2,296.1 		"/>
	</g>
	<polyline class="st18" points="104.1,64.3 106.4,49.1 110.8,49.6 109,62.5 	"/>
	<circle class="st18" cx="100.5" cy="95.1" r="32.5"/>
	<circle class="st19" cx="109.6" cy="43.5" r="6.2"/>
	<path class="st5" d="M126.7,83.4c-5.2-1.2-10.3,2.1-11.5,7.3c-1.2,5.2,2.1,10.3,7.3,11.5c5.2,1.2,10.3-2.1,11.5-7.3
		C135.1,89.7,131.9,84.6,126.7,83.4z M126.8,94.6c-3.7-0.8-2.4-6.6,1.3-5.7C131.7,89.7,130.4,95.4,126.8,94.6z"/>
	<path class="st5" d="M94.6,84.1c-4.9-1.1-9.7,1.9-10.8,6.8c-1.1,4.9,1.9,9.7,6.8,10.8c4.9,1.1,9.7-1.9,10.8-6.8
		C102.6,90,99.5,85.2,94.6,84.1z M94.3,94.7c-3.7-0.8-2.4-6.6,1.3-5.7C99.3,89.8,98,95.5,94.3,94.7z"/>
	<path class="st2" d="M94.2,85.8c-2.2-0.5-4.3,0.1-5.9,1.3c-1.3,1-2.2,2.4-2.6,4.1C85,94.4,86.4,97.4,89,99c0.6,0.4,1.4,0.7,2.1,0.9
		c0.1,0,0.3,0.1,0.4,0.1c3.7,0.6,7.3-1.8,8.1-5.5c0.4-1.9,0.1-3.8-1-5.4C97.6,87.4,96,86.2,94.2,85.8z M98.8,94.2
		c-0.7,3.4-4.1,5.6-7.6,4.8c-0.8-0.2-1.5-0.5-2.2-0.9c-2.1-1.4-3.3-4-2.7-6.6c0.3-1.4,1.1-2.6,2.1-3.5c1.4-1.2,3.2-1.8,5.1-1.5
		c0.1,0,0.3,0,0.4,0.1c1.7,0.4,3.1,1.3,4,2.8C98.9,90.8,99.2,92.5,98.8,94.2z"/>
	<path class="st2" d="M96.4,93.3c-0.9,0.5-2.2,0-2.7-1c-0.6-1-0.3-2.2,0.6-2.7c0.5-0.2,1-0.2,1.5,0c-0.3-0.3-0.7-0.6-1.1-0.8
		c0,0-0.1,0-0.1,0c-2.2-0.5-4.4,0.9-4.9,3.1c-0.5,2.2,0.9,4.4,3.1,4.9c1.3,0.3,2.6-0.1,3.5-0.9c0.7-1,1-2.2,0.9-3.4
		C97,92.8,96.8,93.1,96.4,93.3z"/>
	<path class="st2" d="M128.5,93.6c-1,0.4-2.3-0.1-2.8-1.3c-0.5-1.1-0.2-2.4,0.9-2.8c0.5-0.2,1.1-0.2,1.6,0.1
		c-0.3-0.4-0.7-0.7-1.1-0.9c0,0-0.1,0-0.1,0c-2.3-0.7-4.7,0.7-5.4,3c-0.7,2.3,0.7,4.7,3,5.4c1.3,0.4,2.7,0.1,3.7-0.7
		c0.8-1,1.2-2.2,1.1-3.6C129.2,93.1,128.9,93.4,128.5,93.6z"/>
	<path class="st2" d="M126.7,85.6c-4-1.2-8.2,1.2-9.3,5.1c-0.6,1.9-0.3,4,0.6,5.7c1,1.8,2.6,3,4.5,3.6c0.1,0,0.3,0.1,0.4,0.1
		c3.9,0.9,7.8-1.4,8.9-5.3c0.6-1.9,0.3-4-0.6-5.7C130.2,87.5,128.6,86.2,126.7,85.6z M131,94.7c-1,3.5-4.7,5.6-8.3,4.6
		c-1.7-0.5-3.2-1.6-4-3.2c-0.9-1.6-1.1-3.4-0.6-5.1c1-3.4,4.5-5.5,7.9-4.7c0.1,0,0.3,0.1,0.4,0.1c1.7,0.5,3.2,1.6,4,3.2
		C131.3,91.2,131.5,93,131,94.7z"/>
	<path class="st2" d="M127.6,82.5c-5.8-1.7-11.7,1.7-13.4,7.4c-1.7,5.7,1.6,11.7,7.4,13.4c0.2,0.1,0.4,0.1,0.6,0.2
		c5.6,1.3,11.2-2,12.8-7.5c0.8-2.8,0.5-5.7-0.9-8.2C132.7,85.1,130.4,83.3,127.6,82.5z M133.4,95.4c-1.4,4.8-6.5,7.7-11.4,6.3
		c-4.9-1.4-7.7-6.5-6.3-11.4c1.4-4.7,6.1-7.5,10.8-6.4c0.2,0,0.4,0.1,0.5,0.1c2.4,0.7,4.3,2.2,5.5,4.4
		C133.8,90.6,134.1,93.1,133.4,95.4z"/>
	<path class="st2" d="M95.5,82.9c-2.8-0.8-5.7-0.4-8,1c-2.2,1.3-4,3.4-4.8,6.1c-0.8,2.6-0.5,5.4,0.9,7.8c0.9,1.7,2.3,3,3.9,3.9
		c0.7,0.4,1.5,0.7,2.3,1c0.2,0.1,0.4,0.1,0.6,0.2c5.3,1.2,10.6-1.9,12.2-7.2C104,90.2,100.9,84.5,95.5,82.9z M100.9,95.2
		c-1.3,4.6-6.1,7.2-10.7,5.9c-0.8-0.2-1.5-0.5-2.1-0.9c-1.3-0.8-2.3-1.9-3-3.2c-1.1-2-1.4-4.4-0.7-6.6c0.6-2.2,2-3.9,3.8-5
		c1.9-1.1,4.1-1.6,6.4-1c0.2,0,0.3,0.1,0.5,0.1C99.6,85.8,102.2,90.7,100.9,95.2z"/>
	<path class="st2" d="M133.5,80.5l0.7-5.4c-7.9-6.1-16.1-4.7-16.1-4.7l0.6,5.9C127.9,74.8,133.5,80.5,133.5,80.5z"/>
	<path class="st2" d="M78.6,83.7l-1.1-5.3c7.3-6.7,15.6-6.1,15.6-6.1l0,5.9C83.7,77.5,78.6,83.7,78.6,83.7z"/>
	<path class="st2" d="M82,106.3c0,0,17.6,9.7,41.7,0.7c0,0-6.9,16.3-21.1,15.5c0,0-11.3-0.5-14.8-12.6
		C87.8,109.9,82.3,107.1,82,106.3z"/>
	<path class="st0" d="M92.8,115.5c0,0,4.3,7.7,14,5.6c0,0,5.3-0.8,9.8-6.3c0,0-2.1,0.8-3.2,1.6c-1.1,0.8-5.2,4.3-10.9,3.4
		c-5.6-0.9-7.7-4.2-7.7-4.2S93.9,114.2,92.8,115.5z"/>
	<path class="st0" d="M90.5,109.8c0,0,15,4.1,28.8-0.5c0,0-3,5-17.3,4.3C102,113.6,95,113.5,90.5,109.8z"/>
	<path class="st11" d="M71.6,146.6c0,0-7,1.6-12.8-2S51,135,51,135s2.1-5.6,6.2-10.1c4.1-4.6,11.7-5.2,17.9-1.4l2.6,1.6
		c3.2,2,4.2,6.3,2.1,9.4L71.6,146.6z"/>
	<circle class="st13" cx="90.2" cy="218" r="10"/>
	<circle class="st13" cx="125.6" cy="220.1" r="10"/>
	<path class="st20" d="M438.1,226.5H9.6c-0.8,0-1.5-0.7-1.5-1.5v-3.9c0-0.8,0.7-1.5,1.5-1.5h428.5c0.8,0,1.5,0.7,1.5,1.5v3.9
		C439.6,225.8,438.9,226.5,438.1,226.5z"/>
	<polygon class="st21" points="29.4,396.1 29.4,231.4 37.1,231.4 	"/>
	<polygon class="st21" points="415.6,396.1 415.6,231.4 407.9,231.4 	"/>
	<path class="st22" d="M335.3,213.3c-4.7,0-11.3-1.3-19.9-3.7c-7.6-2.2-16.4-5.3-25.4-9c-18.1-7.4-33.3-15.4-37.9-19.9
		c-4.9-4.9-14.7-11.8-23.4-17.9c-8.9-6.2-14.4-10.1-15.8-12.1c-1.3-1.9-6.6-6.9-13.9-11.7c-6-4-14.9-8.8-23-9.3
		c-13.9-0.7-26.4,20.9-30.3,31.5l-2.1-0.8c1.9-5.3,6.2-13.6,11.4-20.1c3.1-4,6.3-7.1,9.6-9.2c3.9-2.6,7.8-3.8,11.6-3.6
		c8.6,0.4,17.8,5.5,24.1,9.6c7.6,5,13,10.2,14.5,12.2c1.2,1.8,8,6.5,15.2,11.6c8.8,6.2,18.7,13.1,23.7,18.1
		c4.3,4.3,19.6,12.3,37.1,19.5c19.3,7.9,35.9,12.6,44.4,12.6c0.1,0,0.1,0,0.2,0c6.6-0.1,10.1-3.9,11.9-7.1c3-5.5,3.2-12.9,0.3-17.6
		c-1.2-2-3.4-4.3-7.4-4.2c-11.6,0.3-14.9,0.4-15,0.4l-0.1-2.3c0,0,3.3-0.1,15-0.4c3.9-0.1,7.2,1.8,9.4,5.3
		c3.3,5.4,3.1,13.8-0.3,19.9c-2.9,5.3-7.9,8.2-13.9,8.3C335.5,213.3,335.4,213.3,335.3,213.3z"/>
	<path class="st23" d="M34.7,214.6H16.6l-1-15c0,0,4.7,0.7,6.3,0.6c2.4-0.2,6.9-2.1,9.3-2.2c1.1-0.1,4.5,0.5,4.5,0.5L34.7,214.6z"/>
	<path class="st22" d="M80,204.7c-5.7,0-10.4-0.5-12.1-0.7c-5.1-0.6-11.2-5.2-17.6-10c-7.4-5.5-15-11.3-20.8-10.5
		c-2,0.3-3.3,0.8-3.8,1.7c-0.9,1.5,0.1,4.4,1.1,7.4c1.2,3.4,2.5,7.2,2,10.9l-2.2-0.3c0.5-3.1-0.8-6.7-1.9-9.8
		c-1.3-3.7-2.4-6.9-0.9-9.3c0.9-1.5,2.7-2.4,5.4-2.7c6.6-0.9,14.7,5.2,22.4,11c5.9,4.4,12,9,16.5,9.6c5.1,0.6,12.9,1.1,19.9,0.3
		c7.7-0.8,12.6-2.9,14-5.9l2,1c-1.8,3.8-7.1,6.3-15.8,7.2C85.5,204.6,82.6,204.7,80,204.7z"/>
	<path class="st24" d="M307.2,167.5c2-0.4,12.4-2,15.4,0.9c1.9,1.8,1.9,8.6,1.9,10.7l-2.6-0.1c0.1-4-0.4-8.1-1.1-8.7
		c-1.5-1.5-8.6-1-13.1-0.2L307.2,167.5z"/>
	<path class="st24" d="M307.2,195.5l0.4-2.6c4.4,0.8,11.4,1.1,13-0.6c1.1-1.2,1.4-5.8,1.2-8.7l2.6-0.2c0.1,1.4,0.5,8.3-1.9,10.7
		C319.2,197.4,309.1,195.8,307.2,195.5z"/>
	<g>
		<rect x="322.1" y="179.8" class="st26" width="2.1" height="3.1"/>
		<path class="st26" d="M323.5,178.8v0.9c0,0.1-0.1,0.2-0.2,0.2h-0.5c-0.1,0-0.2-0.1-0.2-0.2v-0.9c0-0.1,0.1-0.2,0.2-0.2h0.5
			C323.5,178.6,323.5,178.7,323.5,178.8z"/>
		<path class="st26" d="M325.2,181.8h-0.9c-0.1,0-0.2-0.1-0.2-0.2v-0.5c0-0.1,0.1-0.2,0.2-0.2h0.9c0.1,0,0.2,0.1,0.2,0.2v0.5
			C325.4,181.7,325.3,181.8,325.2,181.8z"/>
		<path class="st26" d="M323.5,183.1v0.9c0,0.1-0.1,0.2-0.2,0.2h-0.5c-0.1,0-0.2-0.1-0.2-0.2v-0.9c0-0.1,0.1-0.2,0.2-0.2h0.5
			C323.5,182.9,323.5,183,323.5,183.1z"/>
		<path class="st25" d="M323.8,177.6l0.2,0.6c0.1,0.3-0.1,0.5-0.4,0.5h-0.9c-0.3,0-0.5-0.3-0.4-0.5l0.4-1.3h0.3h0.5L323.8,177.6"/>
		<path class="st25" d="M322.5,185.2l-0.2-0.6c-0.1-0.3,0.1-0.5,0.4-0.5h0.9c0.3,0,0.5,0.3,0.4,0.5l-0.4,1.3h-0.3h-0.5L322.5,185.2"
			/>
		<path class="st25" d="M326.5,182l-0.6,0.2c-0.3,0.1-0.5-0.1-0.5-0.4v-0.9c0-0.3,0.3-0.5,0.5-0.4l1.3,0.4v0.3v0.5L326.5,182"/>
	</g>
	<g>
		<rect x="287.5" y="188.4" class="st27" width="13.8" height="11.5"/>
		<g>
			<path class="st28" d="M265.8,189v10.2l-5.8-0.1c0,0-3.6-1.6-4.7-1.7c-1-0.1-4.1,0-4.1,0v-6.7c0,0,3.1,0.1,4.1,0
				c1-0.1,4.7-1.7,4.7-1.7H265.8z"/>
			<rect x="262.2" y="188.4" class="st28" width="39.1" height="11.5"/>
			<rect x="260.4" y="184.7" class="st28" width="1.8" height="18.9"/>
		</g>
		<rect x="283.7" y="188.7" class="st29" width="3.8" height="10.8"/>
		<polygon class="st27" points="303.1,194.1 301.3,199.9 301.3,188.4 		"/>
		<rect x="262.2" y="189.1" class="st30" width="21.4" height="10.1"/>
		<rect x="302.2" y="192.6" class="st30" width="3.1" height="3.1"/>
		<rect x="249.8" y="188" class="st30" width="1.4" height="12.2"/>
		<g>
			<path class="st28" d="M306.3,192.4v3.4c0,0.1-0.1,0.2-0.2,0.2h-0.5c-0.1,0-0.2-0.1-0.2-0.2v-3.4c0-0.1,0.1-0.2,0.2-0.2h0.5
				C306.2,192.3,306.3,192.3,306.3,192.4z"/>
			<rect x="306.3" y="193.6" class="st28" width="1" height="1.3"/>
			<polygon class="st28" points="309.3,193.6 309.3,194.8 307.4,195.2 307.4,193.2 			"/>
		</g>
	</g>
	<g>
		<rect x="287.5" y="162.9" class="st27" width="13.8" height="11.5"/>
		<g>
			<path class="st28" d="M265.8,163.5v10.2l-5.8-0.1c0,0-3.6-1.6-4.7-1.7c-1-0.1-4.1,0-4.1,0v-6.7c0,0,3.1,0.1,4.1,0
				c1-0.1,4.7-1.7,4.7-1.7H265.8z"/>
			<rect x="262.2" y="162.9" class="st28" width="39.1" height="11.5"/>
			<rect x="260.4" y="159.2" class="st28" width="1.8" height="18.9"/>
		</g>
		<rect x="283.7" y="163.2" class="st29" width="3.8" height="10.8"/>
		<polygon class="st27" points="303.1,168.6 301.3,174.4 301.3,162.9 		"/>
		<rect x="262.2" y="163.6" class="st30" width="21.4" height="10.1"/>
		<rect x="302.2" y="167.1" class="st30" width="3.1" height="3.1"/>
		<line class="st32" x1="287.5" y1="165" x2="287.5" y2="168"/>
		<rect x="249.8" y="162.5" class="st30" width="1.4" height="12.2"/>
		<g>
			<path class="st28" d="M306.3,166.9v3.4c0,0.1-0.1,0.2-0.2,0.2h-0.5c-0.1,0-0.2-0.1-0.2-0.2v-3.4c0-0.1,0.1-0.2,0.2-0.2h0.5
				C306.2,166.8,306.3,166.8,306.3,166.9z"/>
			<rect x="306.3" y="168.1" class="st28" width="1" height="1.3"/>
			<polygon class="st28" points="309.3,168.1 309.3,169.3 307.4,169.7 307.4,167.7 			"/>
		</g>
	</g>
	<rect x="163" y="152" class="st33" width="111" height="3"/>
	<rect x="166" y="213" class="st33" width="106" height="2"/>
	<rect x="263" y="146.2" class="st34" width="6.9" height="68.4"/>
	<rect x="168" y="146.2" class="st34" width="6.9" height="68.4"/>
	<rect x="271.4" y="146.3" class="st30" width="3" height="7.4"/>
	<rect x="163.2" y="146.3" class="st30" width="3" height="7.4"/>
	<rect x="163.2" y="208" class="st30" width="3" height="7.4"/>
	<rect x="271.4" y="206.8" class="st30" width="3" height="7.4"/>
	<g>
		<path class="st35" d="M176.2,199.7V163c0,0,2.4-0.2,3.1-0.3c1-0.2,3.9-1.2,3.9-1.2h44.7c0,0,3.1,0.2,4.1,0.3
			c2,0.2,7.8,1.2,7.8,1.2v36.7c0,0-5.9,1-7.8,1.2c-1,0.1-4.1,0.3-4.1,0.3h-44.7c0,0-2.9-1-3.9-1.2
			C178.5,199.9,176.2,199.7,176.2,199.7z"/>
		<rect x="239.7" y="162.3" class="st35" width="1.1" height="38.1"/>
		<rect x="185.3" y="161.7" class="st35" width="45.7" height="39.6"/>
		<text transform="matrix(0.735 0.678 -0.678 0.735 191.2706 170.7932)" class="st36 st37">Soda</text>
	</g>
	<g>
		<path class="st38" d="M105.1,194.1c0.2-0.5,1.7-4.4,1.9-6.1c0.1-0.7-0.1-1.5-0.2-2.4c-0.1-0.8-0.3-1.9-0.1-2.3
			c0.2-0.4,1.6-1.6,3-2.5l-1.5-2.2c-1,0.7-3.4,2.4-3.9,3.7c-0.4,1.1-0.2,2.4,0,3.7c0.1,0.7,0.2,1.4,0.2,1.7c-0.1,1-1.1,3.8-1.7,5.4
			L105.1,194.1z"/>
		<path class="st38" d="M108.3,178.1l2.1-1.6c-1-1.2-5.9-4.8-7.5-5.8c-0.5-0.3-1.9-2.4-2.9-4.5l-2.4,1.2c0.5,1.1,2.4,4.6,3.9,5.5
			C103.2,174,107.6,177.4,108.3,178.1z"/>
		<path class="st38" d="M112.5,177.6l4.4-4c0,0,0,0,0.1-0.1c2.2-2.4,6.3-6.3,8-6.7c1.5-0.4,4.1,0.6,6.7,1.6c3.3,1.3,6.5,2.4,8.8,1.5
			c1.8-0.7,3.1-4.7,3.6-6.3l-2.2-0.6c-0.6,2.2-1.7,4.6-2.2,4.8c-1.5,0.6-4.5-0.6-7.2-1.6c-3-1.1-5.9-2.2-8.1-1.7
			c-2.9,0.7-8.3,6.5-9.1,7.3l-4.4,4L112.5,177.6z"/>
		<g>
			
				<rect x="90.3" y="152.8" transform="matrix(-0.837 0.5472 -0.5472 -0.837 257.3227 239.7854)" class="st23" width="5.3" height="10.7"/>
			
				<rect x="91.6" y="156.7" transform="matrix(-0.837 0.5472 -0.5472 -0.837 260.4956 242.3186)" class="st39" width="5.1" height="6.5"/>
			
				<rect x="88.2" y="145.8" transform="matrix(-0.837 0.5472 -0.5472 -0.837 251.8094 234.9692)" class="st25" width="5.4" height="18.4"/>
			<polygon class="st25" points="96.4,163.4 98.2,161.2 93.7,164.2 			"/>
			<line class="st25" x1="92.9" y1="162.3" x2="93.7" y2="161.8"/>
			<line class="st25" x1="92" y1="160.9" x2="93.4" y2="159.9"/>
			<line class="st25" x1="91" y1="159.4" x2="91.8" y2="158.9"/>
			<line class="st25" x1="90.1" y1="157.9" x2="91.5" y2="157"/>
			<line class="st25" x1="89.1" y1="156.5" x2="89.8" y2="156"/>
			<line class="st25" x1="88.2" y1="155" x2="89.6" y2="154.1"/>
			<line class="st25" x1="87.2" y1="153.6" x2="87.9" y2="153.1"/>
			<line class="st25" x1="86.2" y1="152.1" x2="87.7" y2="151.1"/>
			
				<rect x="95.5" y="162.8" transform="matrix(-0.837 0.5472 -0.5472 -0.837 268.1861 248.8257)" class="st26" width="3.1" height="3.2"/>
			<g>
				<path class="st26" d="M87.2,153.5l4-2.6l-9.6-14.7c0,0-1.6-1-1.9-1.4c-0.3-0.4-1.1-1.6-1.1-1.6L76,135c0,0,0.8,1.2,1.1,1.6
					c0.2,0.4,0.5,2.3,0.5,2.3L87.2,153.5z"/>
				
					<rect x="87.1" y="152" transform="matrix(-0.837 0.5472 -0.5472 -0.837 248.2849 231.8662)" class="st40" width="5.1" height="1.8"/>
				
					<rect x="74.3" y="133.4" transform="matrix(-0.837 0.5472 -0.5472 -0.837 214.8365 203.5652)" class="st25" width="5.5" height="0.7"/>
			</g>
			<g>
				<path class="st25" d="M97,167.4l2.8-1.9c0.1-0.1,0.1-0.2,0.1-0.2l-0.2-0.4c-0.1-0.1-0.2-0.1-0.2-0.1l-2.8,1.9
					c-0.1,0.1-0.1,0.2-0.1,0.2l0.2,0.4C96.8,167.4,96.9,167.4,97,167.4z"/>
				
					<rect x="98.1" y="166.3" transform="matrix(-0.837 0.5472 -0.5472 -0.837 272.6357 252.3419)" class="st25" width="1.3" height="1"/>
				<polygon class="st25" points="99.6,169.2 100.6,168.6 100,166.8 98.2,167.9 				"/>
			</g>
			
				<rect x="81.2" y="146.5" transform="matrix(-0.837 0.5472 -0.5472 -0.837 237.7397 223.0646)" class="st26" width="8.9" height="0.8"/>
		</g>
		<g>
			<path class="st26" d="M144.2,161.6l0.4-0.6c0-0.1,0-0.2-0.1-0.2l-0.3-0.2c-0.1,0-0.2,0-0.2,0.1l-0.4,0.6c0,0.1,0,0.2,0.1,0.2
				l0.3,0.2C144.1,161.7,144.2,161.7,144.2,161.6z"/>
			<path class="st25" d="M144.4,159.6l-0.4,0.3c-0.2,0.2-0.1,0.4,0.1,0.6l0.7,0.4c0.2,0.1,0.5,0,0.5-0.2l0.2-1.1l-0.2-0.1l-0.4-0.2
				L144.4,159.6"/>
			<path class="st26" d="M142.8,162.8l-0.4,0.6c0,0.1,0,0.2,0.1,0.2l0.3,0.2c0.1,0,0.2,0,0.2-0.1l0.4-0.6c0-0.1,0-0.2-0.1-0.2
				l-0.3-0.2C143,162.7,142.9,162.8,142.8,162.8z"/>
			<path class="st25" d="M142.7,164.8l0.4-0.3c0.2-0.2,0.1-0.4-0.1-0.6l-0.7-0.4c-0.2-0.1-0.5,0-0.5,0.2l-0.2,1.1l0.2,0.1l0.4,0.2
				L142.7,164.8"/>
			<polygon class="st26" points="142.7,160.9 140.8,160.7 140.5,161.4 145.8,164.4 146.1,163.7 145.1,162.2 			"/>
			<line class="st25" x1="145.6" y1="165.9" x2="147.5" y2="162.6"/>
			<polygon class="st40" points="146.7,163.1 147.3,163.4 147.5,162.4 			"/>
			<g>
				<line class="st25" x1="140.7" y1="159.2" x2="138.9" y2="162.5"/>
				<polygon class="st40" points="139.6,161.9 139,161.5 138.8,162.5 				"/>
			</g>
			<g>
				<line class="st41" x1="139.9" y1="161.4" x2="139.5" y2="159.8"/>
				<line class="st41" x1="140.4" y1="160.4" x2="138.9" y2="160.8"/>
			</g>
		</g>
		<g>
			<path class="st26" d="M104,194.1l0.3-0.7c0-0.1,0-0.2-0.1-0.2l-0.4-0.1c-0.1,0-0.2,0-0.2,0.1l-0.3,0.7c0,0.1,0,0.2,0.1,0.2
				l0.4,0.1C103.9,194.2,104,194.2,104,194.1z"/>
			<path class="st25" d="M103.9,192.1l-0.3,0.4c-0.2,0.2-0.1,0.5,0.1,0.5l0.7,0.3c0.2,0.1,0.5-0.1,0.5-0.3l0.1-1.1l-0.2-0.1
				l-0.4-0.2L103.9,192.1"/>
			<path class="st26" d="M102.8,195.5l-0.3,0.7c0,0.1,0,0.2,0.1,0.2l0.4,0.1c0.1,0,0.2,0,0.2-0.1l0.3-0.7c0-0.1,0-0.2-0.1-0.2
				l-0.4-0.1C102.9,195.4,102.8,195.4,102.8,195.5z"/>
			<path class="st25" d="M102.9,197.5l0.3-0.4c0.2-0.2,0.1-0.5-0.1-0.5l-0.7-0.3c-0.2-0.1-0.5,0.1-0.5,0.3l-0.1,1.1l0.2,0.1l0.4,0.2
				L102.9,197.5"/>
			<polygon class="st26" points="102.4,193.6 100.5,193.7 100.2,194.4 105.9,196.6 106.2,196 104.9,194.6 			"/>
			<line class="st25" x1="105.9" y1="198.2" x2="107.3" y2="194.7"/>
			<polygon class="st40" points="106.7,195.2 107.3,195.5 107.3,194.5 			"/>
			<g>
				<line class="st25" x1="100.2" y1="192.2" x2="98.8" y2="195.7"/>
				<polygon class="st40" points="99.4,195 98.8,194.7 98.7,195.7 				"/>
			</g>
			<g>
				<line class="st41" x1="99.6" y1="194.4" x2="99" y2="193"/>
				<line class="st41" x1="100.1" y1="193.4" x2="98.6" y2="194"/>
			</g>
		</g>
		<g>
			
				<rect x="108.9" y="177.4" transform="matrix(0.7247 -0.6891 0.6891 0.7247 -92.5364 125.0865)" class="st26" width="2.7" height="1.8"/>
			<path class="st26" d="M111.6,176.6l-0.5,0.5c-0.1,0.1-0.1,0.2,0,0.2l0.3,0.3c0.1,0.1,0.2,0.1,0.2,0l0.5-0.5
				c0.1-0.1,0.1-0.2,0-0.2l-0.3-0.3C111.8,176.5,111.7,176.5,111.6,176.6z"/>
			<path class="st26" d="M108.8,177.3l0.5,0.5c0.1,0.1,0.2,0.1,0.2,0l0.3-0.3c0.1-0.1,0.1-0.2,0-0.2l-0.5-0.5
				c-0.1-0.1-0.2-0.1-0.2,0l-0.3,0.3C108.7,177.1,108.7,177.2,108.8,177.3z"/>
			<path class="st26" d="M109,179.1l-0.5,0.5c-0.1,0.1-0.1,0.2,0,0.2l0.3,0.3c0.1,0.1,0.2,0.1,0.2,0l0.5-0.5c0.1-0.1,0.1-0.2,0-0.2
				l-0.3-0.3C109.1,179.1,109,179.1,109,179.1z"/>
			<path class="st25" d="M112.3,175.7l-0.5,0.2c-0.2,0.1-0.3,0.4-0.1,0.6l0.5,0.5c0.2,0.2,0.4,0.1,0.6-0.1l0.5-1l-0.2-0.2l-0.3-0.3
				L112.3,175.7"/>
			<path class="st25" d="M108.2,181l0.5-0.2c0.2-0.1,0.3-0.4,0.1-0.5l-0.5-0.5c-0.2-0.2-0.4-0.1-0.5,0.1l-0.5,1l0.2,0.2l0.3,0.3
				L108.2,181"/>
			<path class="st25" d="M107.9,176.6l0.2,0.5c0.1,0.2,0.4,0.3,0.5,0.1l0.5-0.5c0.2-0.2,0.1-0.4-0.1-0.5l-1-0.5l-0.2,0.2l-0.3,0.3
				L107.9,176.6"/>
		</g>
	</g>
	<polygon class="st25" points="34.7,214.6 16.6,214.6 15.1,191.2 36.3,191.2 	"/>
	<rect x="14.2" y="190" class="st26" width="22.9" height="1.3"/>
	<rect x="241.9" y="146.2" class="st34" width="6.9" height="68.4"/>
	<path class="st42" d="M64.7,146.5l-8.6,21.4c-1.2,3.1-4.9,4.5-8.3,3.1l0,0c-3.4-1.3-5.1-5-3.9-8l8.9-21.6"/>
	<path class="st14" d="M46.5,161.8c0,0-6.1,12,7.3,18.9l23-3.9c0,0,3.1-13.4-6.2-22.3L46.5,161.8z"/>
	<path class="st13" d="M81.8,154.8c0,0,3.5-6.2,7.8-6.3s4.6,4.7,4.6,4.7"/>
	<path class="st13" d="M91.1,172.6c0,0,3.2,2,7.8-1.4c4.6-3.4,1.6-6.5,1.6-6.5"/>
	<path class="st13" d="M91.5,168.9c0,0,3,1.6,7.9-3.1c2.3-2.2,0-6,0-6"/>
	<path class="st13" d="M89.9,163.7c0,0,2.6,0.5,5.6-1.2c2.4-1.4,5.4-2.8,3.5-6.1c-1.2-2-3.4-3.3-5.8-3.2c-0.9,0.1-1.9,0.3-2.7,1
		c0,0-1.5,1-0.3,3.2c1.2,2.2,4.8,0.3,4.8,0.3"/>
	<path class="st13" d="M91.1,172.6c0,0-17,5-20.1-9.5c0,0-1.1-6.8,4.2-8.1c5.3-1.3,10.1,0.5,10.1,0.5S93.7,167.6,91.1,172.6z"/>
	<path class="st13" d="M72.2,166.9c-1.9-3.1,3.3-4.4,3.3-4.4l6.3,0.4c0,0,6.9,6.3,3,10.6C84.9,173.5,76.9,174.3,72.2,166.9z"/>
	<line class="st13" x1="85.4" y1="155.6" x2="89.8" y2="155.1"/>
</g>
</svg>
