<?xml version="1.0" encoding="utf-8"?>
<!-- Generator: Adobe Illustrator 19.1.1, SVG Export Plug-In . SVG Version: 6.00 Build 0)  -->
<svg version="1.1" id="Layer_1" xmlns="http://www.w3.org/2000/svg" xmlns:xlink="http://www.w3.org/1999/xlink" x="0px" y="0px"
	 viewBox="0 0 480 420" style="enable-background:new 0 0 480 420;" xml:space="preserve">
<style type="text/css">
	.st0{fill:none;}
	.st1{fill:#C3996B;stroke:#C3996B;stroke-width:22.0277;stroke-miterlimit:10;}
	.st2{fill:#E6E7E8;}
	.st3{fill:#A6A8AB;}
	.st4{fill:none;stroke:#414141;stroke-width:6.6433;stroke-miterlimit:10;}
	.st5{fill:#FFFFFF;stroke:#D0D2D3;stroke-width:2.5088;stroke-miterlimit:10;}
	.st6{fill:#C3996B;stroke:#C3996B;stroke-width:7.3602;stroke-linejoin:round;stroke-miterlimit:10;}
	.st7{fill:#C3996B;stroke:#C3996B;stroke-width:6.6373;stroke-linejoin:round;stroke-miterlimit:10;}
	.st8{fill:#3089C4;stroke:#414141;stroke-width:6.6433;stroke-miterlimit:10;}
	.st9{fill:#FFFFFF;stroke:#414141;stroke-width:6.6433;stroke-miterlimit:10;}
	.st10{fill:#414141;}
	.st11{fill:#3089C4;stroke:#414143;stroke-width:5.979;stroke-miterlimit:10;}
	.st12{fill:#FFFFFF;stroke:#414141;stroke-width:5.3147;stroke-miterlimit:10;}
	.st13{fill:#FFFFFF;}
	.st14{fill:none;stroke:#424344;stroke-width:6.6433;stroke-miterlimit:10;}
	.st15{fill:#414141;stroke:#414141;stroke-width:6.6433;stroke-miterlimit:10;}
	.st16{fill:#D0D2D3;stroke:#D0D2D3;stroke-width:8.0123;stroke-linejoin:round;stroke-miterlimit:10;}
	.st17{fill:none;stroke:#D0D2D3;stroke-width:6.6433;stroke-miterlimit:10;}
	.st18{fill:#808184;stroke:#58595B;stroke-width:0.1329;stroke-miterlimit:10;}
	.st19{fill:#808184;}
	.st20{fill:#E6E7E8;stroke:#6D6E70;stroke-width:0.1329;stroke-miterlimit:10;}
	.st21{fill:url(#SVGID_1_);}
	.st22{fill:url(#SVGID_2_);}
	.st23{fill:url(#SVGID_3_);}
	.st24{fill:url(#SVGID_4_);}
	.st25{clip-path:url(#SVGID_6_);}
	.st26{fill:url(#SVGID_7_);}
	.st27{fill:url(#SVGID_8_);}
	.st28{fill:url(#SVGID_9_);}
	.st29{fill:url(#SVGID_10_);}
	.st30{fill:url(#SVGID_11_);}
</style>
<circle class="st0" cx="272.3" cy="208.9" r="138.7"/>
<g>
	<path class="st1" d="M419.5,248.4H55.8c-0.6,0-1.1-0.7-1.1-1.6l6.8-43.1c0-0.9,0.9-1.6,1.6-1.6h350.2c0.6,0,1.1,0.7,1.1,1.6
		l6.4,43.1C420.6,247.7,420.1,248.4,419.5,248.4z"/>
	<path class="st2" d="M315.4,153.9c14.4,17.7,29.4,22.2,27.8,31.8c-1.6,9.6,2,27.8-6.4,30.1s-52.6-8.9-56.6-9
		c-4-0.1-33.2-10.3-35.9-13.1c-2.8-2.8,38.3-1.6,43.9-8.6c5.6-7-23.5-26.4-22.3-29.2C267,153,315.4,153.9,315.4,153.9z"/>
	<path class="st3" d="M389.7,171.2l-191.9-6.9c-6.6,0-12-5.4-12-12V34.9c0-6.6,5.4-12,12-12l191.9-4.5c6.6,0,12,5.4,12,12v128.8
		C401.7,165.8,396.3,171.2,389.7,171.2z"/>
	<path class="st2" d="M381.5,165.5l-175.6-6.9c-6.6,0-12-5.4-12-12v-106c0-6.6,5.4-12,12-12L381.5,24c6.6,0,12,5.4,12,12v117.5
		C393.5,160.1,388.1,165.5,381.5,165.5z"/>
	<line class="st4" x1="125.4" y1="305.9" x2="123.3" y2="392.7"/>
	<path class="st5" d="M256,229.3c2.8-4.5,6-13.3,9.2-11.6s11.7,6.2,12.5,7C278.5,225.6,256,229.3,256,229.3z"/>
	<polygon class="st6" points="76.9,389.1 76.9,254.8 84.9,254.7 	"/>
	<polygon class="st7" points="400.3,389.1 400.3,254.8 393.7,254.7 	"/>
	<path class="st8" d="M182.3,396.3h70.5c0,0-15.3-30.9-38.8-30.8S182.3,396.3,182.3,396.3z"/>
	<path class="st8" d="M113.6,404.5h70.5c0,0-15.3-30.9-38.8-30.8S113.6,404.5,113.6,404.5z"/>
	<path class="st9" d="M130.7,197.2c2.5-9.2,9.5-33.5-7.4-37.7c-16.7-4.2-23.2,19.4-25.7,28.6l2,1.6c8,6.6,18.4,9.4,28.7,7.9
		L130.7,197.2z"/>
	<path class="st9" d="M87.2,290.2c0,0,5.2,0.3,5.3-6.9c0,0-1.6-5.4-5.6-4.8"/>
	<path class="st9" d="M89.6,290.9c0,0,8.3,3.5,7.7-7.9"/>
	<g>
		<path class="st10" d="M80.4,251.3c0,0,0.2-0.4,0.5-1c0.2-0.3,0.3-0.7,0.6-1.1c0.2-0.4,0.5-0.9,0.8-1.4c0.3-0.5,0.4-1,0.6-1.6
			c0.1-0.6,0.2-1.2,0.2-1.8c0-0.6-0.1-1.2-0.3-1.8c0-0.2-0.1-0.3-0.2-0.5l-0.2-0.5l-0.4-1.1c-0.6-1.5-1.1-3-1.5-4.4
			c-0.4-1.4-0.8-2.8-1.1-3.9c-0.3-1.2-0.4-2.2-0.6-2.9c-0.1-0.7-0.1-1.1-0.1-1.1s0.2,0.3,0.6,0.9c0.4,0.6,0.9,1.5,1.5,2.5
			c0.6,1,1.2,2.3,1.8,3.6c0.6,1.4,1.2,2.8,1.8,4.3l0.4,1.1l0.2,0.6c0.1,0.2,0.1,0.4,0.2,0.7c0.2,0.9,0.3,1.8,0.2,2.7
			c-0.1,0.9-0.3,1.7-0.7,2.4c-0.3,0.7-0.8,1.3-1.2,1.8c-0.4,0.5-0.8,0.8-1.2,1.1c-0.4,0.3-0.7,0.6-1,0.8
			C80.7,251.1,80.4,251.3,80.4,251.3z"/>
	</g>
	
		<rect x="171.1" y="231.4" transform="matrix(0.611 -0.7917 0.7917 0.611 -153.7821 251.7081)" class="st11" width="16.2" height="101.8"/>
	<path class="st12" d="M154.7,311.8c-5.2-8.6-17.7-8.8-23.3-0.4c-2,3-3.8,6.9-5.2,12.3c-5.4,20.4-10.3,69.8-10.3,69.8h53.9
		L159.5,323C159.5,323,158,317.2,154.7,311.8z"/>
	
		<rect x="173.9" y="231.4" transform="matrix(0.4812 -0.8766 0.8766 0.4812 -153.0486 306.0467)" class="st11" width="16.2" height="101.8"/>
	<path class="st12" d="M227.3,299.3c-5.2-8.6-17.7-8.8-23.3-0.4c-2,3-3.8,6.9-5.2,12.3c-5.4,20.4-10.3,69.8-10.3,69.8h53.9
		l-10.3-70.4C232.2,310.5,230.6,304.7,227.3,299.3z"/>
	<path class="st9" d="M229.6,177.7c0.2-13.5-9.6-26.7-22.9-28.9c-18.1-3-52.7-7.7-80.4,9c-42.1,25.4,10.6,78,10.6,78
		s27.8,12.7,57.2,0C214.8,226.8,229.2,199.8,229.6,177.7z"/>
	<path class="st9" d="M149.9,148.5c0,0,0.1,10.9,13.5,10.5c13.4-0.4,19.2-12.9,19.2-12.9S165,144.8,149.9,148.5z"/>
	<path class="st11" d="M198.8,233.4l-15.3-13c-2.6-2.2-5.9-3.4-9.4-3.4h-18.8c-5.5,0-10.5,3.1-13,8l-5.4,10.7
		c0,0-11.1,47.5-12.6,67.5c0,0,49,31.1,110.8-5.1C235.1,298.2,222.7,255.7,198.8,233.4z"/>
	<path class="st11" d="M136.9,235.8c0,0,37.5,8.6,61.8-2.3"/>
	<g>
		<path class="st13" d="M198.7,179l-4,2.3c-4.5,2.6-7.1,7.6-6.5,12.8l2,19.1"/>
		<path class="st10" d="M198.7,179c0,0-0.5,0.4-1.3,1.1c-0.4,0.3-0.9,0.7-1.5,1.2c-0.3,0.2-0.6,0.5-0.9,0.7c-0.3,0.3-0.7,0.5-1,0.8
			c-0.6,0.6-1.3,1.3-1.8,2c-0.6,0.8-1.1,1.7-1.5,2.6c-0.4,0.9-0.7,2-0.9,3.1c-0.2,1.1-0.2,2.2-0.1,3.3c0.1,1.2,0.2,2.4,0.3,3.6
			c0.1,1.2,0.2,2.4,0.3,3.5c0.1,2.3,0.2,4.4,0.2,6.3c0,1.8,0,3.4,0,4.4c0,1.1-0.1,1.7-0.1,1.7s-0.2-0.6-0.4-1.6
			c-0.3-1-0.6-2.5-1-4.3c-0.4-1.8-0.7-3.9-1-6.2c-0.2-1.1-0.4-2.3-0.5-3.5c-0.1-1.2-0.3-2.4-0.4-3.6c-0.1-1.3,0-2.7,0.3-4
			c0.3-1.3,0.8-2.5,1.3-3.6c0.6-1.1,1.3-2.1,2.1-2.9c0.8-0.8,1.6-1.5,2.5-2c0.4-0.3,0.8-0.5,1.2-0.7c0.4-0.2,0.8-0.3,1.1-0.5
			c0.7-0.3,1.3-0.5,1.8-0.8C198.1,179.2,198.7,179,198.7,179z"/>
	</g>
	<g>
		<path class="st13" d="M124.4,180.7l4.3,4.1c3,2.9,4.5,7,3.9,11.2l-2.5,19"/>
		<path class="st10" d="M124.4,180.7c0,0,2,1.3,4.7,3.5c0.7,0.6,1.5,1.3,2.1,2.1c0.7,0.9,1.3,1.8,1.7,2.9c0.4,1.1,0.8,2.3,0.9,3.6
			c0.1,1.2,0.1,2.6-0.1,3.8c-0.2,1.2-0.3,2.3-0.5,3.4c-0.1,1.1-0.4,2.2-0.5,3.3c-0.4,2.2-0.8,4.2-1.2,5.9c-0.4,1.7-0.8,3.1-1,4.1
			c-0.3,1-0.5,1.6-0.5,1.6s0-0.6-0.1-1.6c0-1,0-2.5,0.1-4.3c0.1-1.8,0.2-3.8,0.4-6c0.1-1.1,0.2-2.2,0.3-3.4c0.1-1.1,0.3-2.3,0.4-3.5
			c0.2-1.1,0.2-2.1,0.1-3.2c-0.1-1-0.3-2-0.6-3c-0.3-0.9-0.7-1.8-1.2-2.6c-0.5-0.8-1-1.5-1.5-2.2
			C125.7,182.7,124.4,180.7,124.4,180.7z"/>
	</g>
	<circle class="st10" cx="124.4" cy="311.5" r="8.2"/>
	<circle class="st10" cx="157" cy="314.6" r="8.2"/>
	<circle class="st10" cx="193" cy="313.4" r="8.2"/>
	<circle class="st10" cx="226.9" cy="306.4" r="8.2"/>
	<polyline class="st11" points="207,169 223.7,222 235.6,218.3 218.9,165.2 	"/>
	<path class="st9" d="M238.5,183.3c-2.5-9.2-8.8-33.7-25.5-28.8c-16.5,4.9-10.2,28.5-7.7,37.7l2.5,0.4c10.2,1.6,20.7-1.2,28.7-7.7
		L238.5,183.3z"/>
	<path class="st9" d="M209.8,107.8c-4.5,28.7-29.8,48.5-58.4,44c-28.7-4.5-46.8-31.2-42.2-59.9c4.5-28.7,30-48.5,58.6-44
		S214.3,79.1,209.8,107.8z"/>
	<path class="st10" d="M201.8,85.5l-2.4,7.2c0,0-4,5.4-4.5,13.2c-0.5,7.8,0.5,12,4.9,16.5c4.3,4.5,16,3.1,17.7-14.7
		c0,0,1.6-11.8-6.1-18.2L201.8,85.5z"/>
	<path class="st10" d="M107.6,87.1c0,0-13,15.2,1.5,32.5"/>
	
		<ellipse transform="matrix(0.9878 0.156 -0.156 0.9878 18.9901 -31.2237)" class="st13" cx="208.4" cy="105.4" rx="6.1" ry="10.7"/>
	<ellipse transform="matrix(0.9878 0.156 -0.156 0.9878 18.8816 -31.0395)" class="st10" cx="207.2" cy="104.8" rx="2.4" ry="4.2"/>
	<path class="st10" d="M201.8,85.5c0,0,1.5-6.1,0-12.1l9.6,16.1L201.8,85.5z"/>
	<path class="st11" d="M112.4,79.9c0,0,10.9,53.2,37.4,46.2c4.6-1.2,38.6-17.2,52.7-20.3c3-0.7,5.2-3.1,5.6-6.2
		c0.8-7.4,0.9-20.6-6.3-30c-10.6-13.8-21.2-23.5-46.5-22.4C130.1,48.4,115.2,70.8,112.4,79.9z"/>
	<path class="st10" d="M130.1,86.3l0-4.6l-1.7-0.5c-3.2-0.9-6.7-0.6-9.7,0.9l-13.4,6.7l13.9-3.6c2.3-0.6,4.6-0.6,6.9,0.1L130.1,86.3
		z"/>
	<path class="st11" d="M130.6,80.7c0,0-6.3,0.2-6.8,5c-0.5,4.9-1.4,16.5-13.1,24c-17.3,11-26.2-1.9-26.2-1.9
		C100.3,109.2,97.7,95,97.7,95c-4-16.7-0.9-27.6,3.5-34.4c5.3-8.3,15.2-12.5,24.7-10.4c14.6,3.2,17,18.5,17,18.5"/>
	<polygon class="st15" points="149.3,71.5 142.9,68.7 130.6,80.7 133.6,87.9 	"/>
	<path class="st16" d="M180.7,182c12.3,1.3,21.5,11.8,21.2,24.2c-1,34.8,3.6,56.4,7.6,59.9c4.8,4.2,7.2,13.3,24.7,12.7
		s22.3,7.2,21.5,14.9c-0.8,7.7-16.3,26-54,29.2s-69.6,0.1-91.9-5.1c-22.3-5.3-23.2-49.2-27.1-68.5c-4-19.5-3.2-41.8-0.2-52.3
		C88.4,175.6,147.5,178.6,180.7,182z"/>
	<path class="st9" d="M258.1,210.1c1.4-3.7,3.3-5.6,4.6-3c1.6,3.5,0,3.8,0,3.8"/>
	<path class="st9" d="M264.2,214.9c1.4-3.7,3.3-5.6,4.6-3c1.6,3.5,0,3.8,0,3.8"/>
	<path class="st9" d="M252.1,211.9c1.2-3,3-5.4,3.6-4c0.6,1.4,0,2.6,0,2.6"/>
	<path class="st9" d="M252.1,213.9c0-2.6,1.1-5.1,6.6-4c5.6,1.1,2.5-0.3,6.9,2.6c4.3,2.8,2.4,6.4,0,8.6c-2.4,2.2-4.3,3.7-7.1,0.4
		C255.8,218.1,252.1,213.9,252.1,213.9z"/>
	<path class="st9" d="M247.6,214.9c2.8-0.9,9.1-2.2,10.6,1.1s0.3,11-4.4,13.1s-14.2,1.4-22.5,1.8s-14-13.6-6.7-16.5
		C231.9,211.5,247.6,214.9,247.6,214.9z"/>
	<line class="st17" x1="109.1" y1="311.5" x2="90.5" y2="396.3"/>
	<line class="st17" x1="195.4" y1="315.7" x2="214" y2="400.5"/>
	<line class="st17" x1="244.7" y1="298.2" x2="256" y2="373.7"/>
	<line class="st17" x1="169.8" y1="311.5" x2="181.1" y2="387.1"/>
	<rect x="251.4" y="88.7" class="st18" width="69.8" height="34"/>
	<polygon class="st19" points="338.3,108.9 321.2,122.7 321.2,88.7 338.9,73.5 	"/>
	<polygon class="st20" points="338.9,73.5 268.7,73.5 251.4,88.7 321.2,88.7 	"/>
	<g>
		<g>
			
				<radialGradient id="SVGID_1_" cx="264.6418" cy="102.1606" r="6.0468" gradientTransform="matrix(1 4.200000e-003 -4.200000e-003 1 1.7503 -1.3128)" gradientUnits="userSpaceOnUse">
				<stop  offset="0" style="stop-color:#F7F9FC"/>
				<stop  offset="0.3499" style="stop-color:#F5F7FA"/>
				<stop  offset="0.5055" style="stop-color:#EEF0F4"/>
				<stop  offset="0.6226" style="stop-color:#E1E5EA"/>
				<stop  offset="0.7205" style="stop-color:#CFD4DB"/>
				<stop  offset="0.8063" style="stop-color:#B8BFC8"/>
				<stop  offset="0.8837" style="stop-color:#9BA4B0"/>
				<stop  offset="0.9531" style="stop-color:#798594"/>
				<stop  offset="1" style="stop-color:#5E6C7E"/>
			</radialGradient>
			<circle class="st21" cx="260.4" cy="105.8" r="5.9"/>
			<radialGradient id="SVGID_2_" cx="258.8789" cy="106.3677" r="6.126" gradientUnits="userSpaceOnUse">
				<stop  offset="0.1075" style="stop-color:#3D5564"/>
				<stop  offset="0.5753" style="stop-color:#0B1926"/>
			</radialGradient>
			<circle class="st22" cx="260.4" cy="105.8" r="5.5"/>
			
				<radialGradient id="SVGID_3_" cx="253.8341" cy="106.5006" r="5.2228" gradientTransform="matrix(1 4.200000e-003 -4.200000e-003 1 1.7503 -1.3128)" gradientUnits="userSpaceOnUse">
				<stop  offset="0.1075" style="stop-color:#3D5564"/>
				<stop  offset="0.5753" style="stop-color:#0B1926"/>
			</radialGradient>
			<path class="st23" d="M262.1,108.1c-3-0.1-5.4-2.6-5.3-5.6c0-0.3,0-0.6,0.1-0.8c-1.1,1-1.8,2.4-1.8,4c-0.1,3,2.3,5.5,5.3,5.6
				c2.7,0.1,5-1.9,5.5-4.5C264.8,107.6,263.5,108.2,262.1,108.1z"/>
			<g>
				<radialGradient id="SVGID_4_" cx="263.284" cy="102.4825" r="3.6907" gradientUnits="userSpaceOnUse">
					<stop  offset="0" style="stop-color:#F7F9FC"/>
					<stop  offset="0.3499" style="stop-color:#F5F7FA"/>
					<stop  offset="0.5055" style="stop-color:#EEF0F4"/>
					<stop  offset="0.6226" style="stop-color:#E1E5EA"/>
					<stop  offset="0.7205" style="stop-color:#CFD4DB"/>
					<stop  offset="0.8063" style="stop-color:#B8BFC8"/>
					<stop  offset="0.8837" style="stop-color:#9BA4B0"/>
					<stop  offset="0.9531" style="stop-color:#798594"/>
					<stop  offset="1" style="stop-color:#5E6C7E"/>
				</radialGradient>
				<path class="st24" d="M260.4,110.4c0,0-0.1,0-0.1,0c-2.6-0.1-4.6-2.2-4.6-4.8c0.1-2.6,2.2-4.6,4.8-4.6c1.3,0,2.4,0.5,3.3,1.4
					s1.3,2.1,1.3,3.3C265.1,108.4,263,110.4,260.4,110.4z M260.4,101.2c-2.4,0-4.5,2-4.5,4.4c-0.1,2.5,1.9,4.6,4.4,4.6
					c2.5,0.1,4.6-2,4.6-4.4c0-1.2-0.4-2.4-1.3-3.2c-0.8-0.9-2-1.4-3.2-1.4C260.5,101.2,260.5,101.2,260.4,101.2z"/>
			</g>
			<g>
				<defs>
					<circle id="SVGID_5_" cx="260.4" cy="105.7" r="4.3"/>
				</defs>
				<clipPath id="SVGID_6_">
					<use xlink:href="#SVGID_5_"  style="overflow:visible;"/>
				</clipPath>
				<g class="st25">
					<radialGradient id="SVGID_7_" cx="257.4015" cy="105.9173" r="2.9219" gradientUnits="userSpaceOnUse">
						<stop  offset="0" style="stop-color:#F7F9FC"/>
						<stop  offset="0.4437" style="stop-color:#F5F7FA"/>
						<stop  offset="0.6035" style="stop-color:#EEF1F5"/>
						<stop  offset="0.7174" style="stop-color:#E3E6EB"/>
						<stop  offset="0.8095" style="stop-color:#D2D6DD"/>
						<stop  offset="0.8883" style="stop-color:#BCC2CA"/>
						<stop  offset="0.9569" style="stop-color:#A1A9B4"/>
						<stop  offset="1" style="stop-color:#8C96A2"/>
					</radialGradient>
					<path class="st26" d="M254.1,103.4h4.6c0.3,0,0.5,0,0.7,0.1c0.2,0.1,0.3,0.2,0.5,0.4c0.1,0.2,0.2,0.3,0.3,0.5
						c0.1,0.2,0.1,0.4,0.1,0.6c0,0.4-0.1,0.7-0.2,1c-0.2,0.3-0.4,0.5-0.7,0.6l1.4,1.9h-1.3l-2.1-2.6h1.4c0.1,0,0.2,0,0.2-0.1
						c0.1-0.1,0.1-0.1,0.2-0.2c0.1-0.1,0.1-0.2,0.1-0.3c0-0.1,0-0.2,0-0.2c0-0.1,0-0.1,0-0.2c0-0.1-0.1-0.2-0.1-0.2
						c0-0.1-0.1-0.1-0.2-0.2c-0.1,0-0.1-0.1-0.2-0.1h-4.6V103.4z"/>
					<radialGradient id="SVGID_8_" cx="263.8144" cy="105.9173" r="2.695" gradientUnits="userSpaceOnUse">
						<stop  offset="0" style="stop-color:#F7F9FC"/>
						<stop  offset="0.4437" style="stop-color:#F5F7FA"/>
						<stop  offset="0.6035" style="stop-color:#EEF1F5"/>
						<stop  offset="0.7174" style="stop-color:#E3E6EB"/>
						<stop  offset="0.8095" style="stop-color:#D2D6DD"/>
						<stop  offset="0.8883" style="stop-color:#BCC2CA"/>
						<stop  offset="0.9569" style="stop-color:#A1A9B4"/>
						<stop  offset="1" style="stop-color:#8C96A2"/>
					</radialGradient>
					<path class="st27" d="M260.9,103.4h1.1v4.1h4.6l-0.7,0.9h-5V103.4z"/>
				</g>
			</g>
		</g>
		<g>
			<g>
				<path class="st13" d="M272.8,105c0,0-0.1-0.1-0.1-0.1c0,0-0.1-0.1-0.1-0.1c0,0-0.1,0-0.1,0h-2.5c0,0,0,0,0,0.1v2.6h-0.7v-2.9
					c0-0.2,0-0.3,0.1-0.4c0.1-0.1,0.1-0.1,0.2-0.1h3.3c0.1,0,0.2,0,0.2,0c0.1,0,0.2,0.1,0.3,0.1c0.1,0.1,0.1,0.1,0.2,0.3
					c0.1,0.1,0.1,0.2,0.1,0.4v0.7c0,0.1,0,0.3-0.1,0.4c-0.1,0.1-0.1,0.2-0.2,0.3c-0.1,0.1-0.2,0.1-0.3,0.1c-0.1,0-0.2,0-0.2,0h-0.3
					l1.1,1.1h-0.9l-1.9-1.8h1.7c0,0,0,0,0.1,0c0,0,0.1,0,0.1-0.1c0,0,0.1-0.1,0.1-0.1c0,0,0-0.1,0-0.2v-0.2
					C272.8,105.1,272.8,105.1,272.8,105z"/>
				<path class="st13" d="M274.9,106.6c0,0,0.1,0.1,0.1,0.1c0,0,0.1,0,0.1,0.1c0,0,0.1,0,0.1,0h2.5c0,0,0,0,0-0.1v-2.6h0.7v2.9
					c0,0.2,0,0.3-0.1,0.4c-0.1,0.1-0.1,0.1-0.2,0.1h-3.3c-0.1,0-0.2,0-0.3,0c-0.1,0-0.2-0.1-0.3-0.1c-0.1-0.1-0.1-0.1-0.2-0.2
					c-0.1-0.1-0.1-0.2-0.1-0.4v-2.6h0.7v2.4C274.8,106.5,274.8,106.6,274.9,106.6z"/>
				<path class="st13" d="M280,104.1c0,0,0.1,0.1,0.2,0.2c0.1,0.1,0.2,0.3,0.3,0.4c0.1,0.2,0.3,0.4,0.4,0.6c0.1,0.2,0.3,0.4,0.4,0.6
					c0.1,0.2,0.2,0.3,0.3,0.4c0.1,0.1,0.1,0.2,0.2,0.2c0,0,0.1-0.1,0.2-0.2c0.1-0.1,0.2-0.3,0.3-0.4c0.1-0.2,0.3-0.4,0.4-0.6
					c0.1-0.2,0.3-0.4,0.4-0.6c0.1-0.2,0.2-0.3,0.3-0.4c0.1-0.1,0.2-0.2,0.2-0.2h0.7c0.1,0,0.1,0,0.2,0.1c0.1,0.1,0.1,0.2,0.1,0.4
					v2.9h-0.7v-2.6c0,0,0-0.1,0-0.1h0l-1.8,2.6c0,0,0,0.1-0.1,0.1c0,0-0.1,0-0.1,0l0,0l0,0h-0.1v0h0c0,0-0.1,0-0.1,0
					c0,0,0,0-0.1-0.1l-1.8-2.6h0c0,0,0,0,0,0.1v2.6H279v-2.9c0-0.2,0-0.3,0.1-0.4c0.1-0.1,0.1-0.1,0.2-0.1H280z"/>
				<path class="st13" d="M289.5,105.6c0,0.1-0.1,0.2-0.1,0.2c0,0.1,0.1,0.1,0.1,0.2c0,0.1,0.1,0.2,0.1,0.3v0.4c0,0.1,0,0.3-0.1,0.4
					c-0.1,0.1-0.1,0.2-0.2,0.2c-0.1,0.1-0.2,0.1-0.3,0.1c-0.1,0-0.2,0-0.2,0h-3.3c-0.1,0-0.1,0-0.2-0.1c-0.1-0.1-0.1-0.2-0.1-0.4
					v-2.4c0-0.2,0-0.3,0.1-0.4c0.1-0.1,0.1-0.1,0.2-0.1h3.3c0.1,0,0.2,0,0.2,0c0.1,0,0.2,0.1,0.3,0.1c0.1,0.1,0.1,0.1,0.2,0.3
					c0.1,0.1,0.1,0.2,0.1,0.4v0.4C289.6,105.4,289.6,105.5,289.5,105.6z M288.8,106.3C288.8,106.3,288.8,106.3,288.8,106.3
					c-0.1-0.1-0.2-0.1-0.2-0.2c0,0-0.1,0-0.1,0h-1.7v-0.7h1.7c0,0,0,0,0.1,0c0,0,0.1,0,0.1-0.1c0,0,0.1-0.1,0.1-0.1c0,0,0-0.1,0-0.1
					c0-0.1,0-0.1,0-0.1c0,0-0.1-0.1-0.1-0.1c0,0-0.1,0-0.1-0.1c0,0-0.1,0-0.1,0H286c0,0,0,0,0,0.1v1.8c0,0.1,0,0.1,0,0.1h2.5
					c0,0,0,0,0.1,0c0,0,0.1,0,0.1-0.1c0,0,0.1-0.1,0.1-0.1c0,0,0-0.1,0-0.1C288.9,106.4,288.8,106.4,288.8,106.3z"/>
				<path class="st13" d="M290.9,106.7c0,0.1,0,0.1,0,0.1h3.6v0.7h-4.1c-0.1,0-0.1,0-0.2-0.1c-0.1-0.1-0.1-0.2-0.1-0.4v-2.9h0.7
					V106.7z"/>
				<path class="st13" d="M295.8,106.7c0,0.1,0,0.1,0,0.1h3.6v0.7h-4.1c-0.1,0-0.1,0-0.2-0.1c-0.1-0.1-0.1-0.2-0.1-0.4v-2.4
					c0-0.2,0-0.3,0.1-0.4c0.1-0.1,0.1-0.1,0.2-0.1h4.1v0.7h-3.6c0,0,0,0,0,0.1V106.7z M299.4,105.4v0.7h-3.9v-0.7H299.4z"/>
				<radialGradient id="SVGID_9_" cx="300.8188" cy="106.3779" r="1.9678" gradientUnits="userSpaceOnUse">
					<stop  offset="1.075270e-002" style="stop-color:#42B7E3"/>
					<stop  offset="0.5054" style="stop-color:#3D7CB9"/>
					<stop  offset="0.8389" style="stop-color:#1865A2"/>
					<stop  offset="1" style="stop-color:#055996"/>
				</radialGradient>
				<path class="st28" d="M300.7,106.7c0,0.1,0,0.1,0,0.1h3.6v0.7h-4.1c-0.1,0-0.1,0-0.2-0.1c-0.1-0.1-0.1-0.2-0.1-0.4v-2.9h0.7
					V106.7z"/>
				<radialGradient id="SVGID_10_" cx="307.3111" cy="105.8027" r="2.1662" gradientUnits="userSpaceOnUse">
					<stop  offset="1.075270e-002" style="stop-color:#42B7E3"/>
					<stop  offset="0.5054" style="stop-color:#3D7CB9"/>
					<stop  offset="0.8389" style="stop-color:#1865A2"/>
					<stop  offset="1" style="stop-color:#055996"/>
				</radialGradient>
				<path class="st29" d="M304.8,107.5l2.2-3.3c0,0,0.1-0.1,0.1-0.1c0,0,0.1-0.1,0.1-0.1c0.1,0,0.1,0,0.1,0h0.1c0,0,0.1,0,0.1,0
					c0,0,0.1,0,0.1,0.1l2.3,3.3H309l-0.5-0.8l-0.5-0.7l-0.7-0.9c0,0,0,0,0,0c0,0,0,0,0,0.1l-1.6,2.3H304.8z"/>
				<radialGradient id="SVGID_11_" cx="311.1095" cy="105.3731" r="2.1499" gradientUnits="userSpaceOnUse">
					<stop  offset="1.075270e-002" style="stop-color:#42B7E3"/>
					<stop  offset="0.5054" style="stop-color:#3D7CB9"/>
					<stop  offset="0.8389" style="stop-color:#1865A2"/>
					<stop  offset="1" style="stop-color:#055996"/>
				</radialGradient>
				<path class="st30" d="M314.6,105.6c0,0.1-0.1,0.2-0.1,0.2c0,0.1,0.1,0.1,0.1,0.2c0,0.1,0.1,0.2,0.1,0.3v0.4c0,0.1,0,0.3-0.1,0.4
					c-0.1,0.1-0.1,0.2-0.2,0.2c-0.1,0.1-0.2,0.1-0.3,0.1c-0.1,0-0.2,0-0.2,0h-3.3c-0.1,0-0.1,0-0.2-0.1c-0.1-0.1-0.1-0.2-0.1-0.4
					v-2.4c0-0.2,0-0.3,0.1-0.4c0.1-0.1,0.1-0.1,0.2-0.1h3.3c0.1,0,0.2,0,0.2,0c0.1,0,0.2,0.1,0.3,0.1c0.1,0.1,0.1,0.1,0.2,0.3
					c0.1,0.1,0.1,0.2,0.1,0.4v0.4C314.6,105.4,314.6,105.5,314.6,105.6z M313.9,106.3C313.8,106.3,313.8,106.3,313.9,106.3
					c-0.1-0.1-0.2-0.1-0.2-0.2c0,0-0.1,0-0.1,0h-1.7v-0.7h1.7c0,0,0,0,0.1,0c0,0,0.1,0,0.1-0.1c0,0,0.1-0.1,0.1-0.1c0,0,0-0.1,0-0.1
					c0-0.1,0-0.1,0-0.1c0,0-0.1-0.1-0.1-0.1c0,0-0.1,0-0.1-0.1c0,0-0.1,0-0.1,0H311c0,0,0,0,0,0.1v1.8c0,0.1,0,0.1,0,0.1h2.5
					c0,0,0,0,0.1,0c0,0,0.1,0,0.1-0.1c0,0,0.1-0.1,0.1-0.1c0,0,0-0.1,0-0.1C313.9,106.4,313.9,106.4,313.9,106.3z"/>
			</g>
		</g>
	</g>
</g>
</svg>
