<?xml version="1.0" encoding="utf-8"?>
<!-- Generator: Adobe Illustrator 19.1.1, SVG Export Plug-In . SVG Version: 6.00 Build 0)  -->
<svg version="1.1" id="Layer_1" xmlns="http://www.w3.org/2000/svg" xmlns:xlink="http://www.w3.org/1999/xlink" x="0px" y="0px"
	 viewBox="0 0 480 420" style="enable-background:new 0 0 480 420;" xml:space="preserve">
<style type="text/css">
	.st0{fill:none;stroke:#2E89C4;stroke-width:1.5386;stroke-miterlimit:10;}
	.st1{fill:#3089C4;stroke:#414143;stroke-width:2.922;stroke-miterlimit:10;}
	.st2{fill:#FFFFFF;stroke:#414143;stroke-width:2.922;stroke-miterlimit:10;}
	.st3{fill:#FFFFFF;stroke:#414141;stroke-width:2.5973;stroke-miterlimit:10;}
	.st4{fill:#FFFFFF;stroke:#414141;stroke-width:3.2467;stroke-miterlimit:10;}
	.st5{fill:#FFFFFF;stroke:#414141;stroke-width:2.922;stroke-miterlimit:10;}
	.st6{fill:#3089C4;stroke:#414143;stroke-width:3.2467;stroke-miterlimit:10;}
	.st7{fill:#FFFFFF;stroke:#414141;stroke-width:1.2987;stroke-miterlimit:10;}
	.st8{fill:#414141;}
	.st9{fill:#FFFFFF;}
	.st10{fill:#FFFFFF;stroke:#424344;stroke-width:3.2467;stroke-miterlimit:10;}
	.st11{fill:#3089C4;stroke:#424344;stroke-width:3.2467;stroke-miterlimit:10;}
	.st12{fill:#3089C4;}
	.st13{fill:#2E89C4;}
	.st14{fill:#5FCEFF;}
	.st15{fill:#808080;}
	.st16{font-family:'MyriadPro-Bold';}
	.st17{font-size:29.2344px;}
</style>
<line class="st0" x1="379.4" y1="239.4" x2="364.8" y2="272.1"/>
<line class="st0" x1="346.6" y1="235.7" x2="364.8" y2="272.1"/>
<path class="st1" d="M193.7,165.6l-10.3,11.2c-1.5,1.6-4,1.7-5.6,0.3v0c-1.6-1.5-1.7-4-0.2-5.6l10.5-11.3"/>
<path class="st2" d="M197.9,166.4c0,0-4.3,0.1-7.3-2.8c-3-2.9-3.4-6.7-3.4-6.7s2-3.1,4.9-5.2c3-2.2,7.6-1.6,10.7,1.4l1.3,1.3
	c1.7,1.6,1.7,4.2,0,5.8L197.9,166.4z"/>
<path class="st3" d="M165.3,182.1c-2-1.3-3.9-1-5.4-0.2c-2,1.1-3.3,3.1-3.6,5.4c-0.1,1,0,2.9,0.2,3.3"/>
<path class="st4" d="M159,187.4c7.5-8.6,12.7-3.6,12.7-3.6s6.7,6-5.8,13.4"/>
<path class="st4" d="M161.2,198.4c0,0,1.5,2,4.2-0.3c0,0,1.5-2.3,0-3.6"/>
<path class="st4" d="M162.6,197.5c0,0-2.3,2.3-4.5-0.3l3-3.5L162.6,197.5z"/>
<path class="st4" d="M161.3,190.5c-0.3-1.4-2.3-3.1-2.3-3.1s-4.8,5.6-2.8,8.8c0,0,1.5,2,4.6-0.3"/>
<path class="st4" d="M162.8,188.3c0,0,2.8-2.3,5.2,1.9c0,0,0.6,2.1-5,7.2c0,0-1.7,0.6-3.4-3.9C159.6,193.5,161,190.1,162.8,188.3z"
	/>
<path class="st5" d="M184.3,179.3c0,0-0.6-8.1-9.7-7.4l-10.6,9.2c0,0,2.6,7.9,10.2,9.5L184.3,179.3z"/>
<circle class="st3" cx="199.8" cy="211" r="6"/>
<path class="st4" d="M214.3,151.1c-14.6,1.2-19.5,10.4-21.4,22c-0.2,1-0.3,2.1-0.4,3.2c-1.5,15.7,6.6,37.1,6.6,37.1l25,4.9
	c0,0,1.8-13.8,12-27.8c6.3-8.6,5.1-26.8-2.4-32.5C230.9,155.9,222.6,150.5,214.3,151.1z"/>
<path class="st6" d="M195.4,204.3c0,0,4.1-3.8,7.2-6.5c3.2-2.7,12.4-2.2,13.9,3.1c0.8,2.9,4.4,5.4,7.3,7c3.8,2.2,4.5,7.4,1.4,10.4
	c-0.3,0.3-0.5,0.5-0.8,0.7c-4.9,3.3-25.7-2.2-27.3-5.7S195.4,204.3,195.4,204.3z"/>
<circle class="st7" cx="210.8" cy="172.8" r="8.5"/>
<g>
	<path class="st8" d="M231.9,174.4c0,0-0.3,0.1-0.9,0.2c-0.3,0.1-0.7,0.2-1.1,0.3c-0.4,0.1-0.9,0.2-1.3,0.4c-1,0.3-2,0.8-3,1.6
		c-1,0.7-1.9,1.7-2.6,2.8c-0.4,0.5-0.6,1.1-1,1.8c-0.3,0.6-0.6,1.2-0.9,1.8c-0.6,1.2-1.2,2.2-1.8,3.1c-1.1,1.8-1.9,3-1.9,3
		s0.4-1.4,1.2-3.3c0.4-1,0.9-2.1,1.4-3.3c0.3-0.6,0.5-1.2,0.8-1.8c0.3-0.6,0.6-1.3,1-1.9c0.4-0.6,0.9-1.2,1.4-1.7
		c0.5-0.5,1.1-0.9,1.7-1.3c1.2-0.7,2.4-1.2,3.5-1.4c0.6-0.1,1-0.1,1.5-0.1c0.4,0,0.8,0,1.1,0C231.5,174.4,231.9,174.4,231.9,174.4z"
		/>
</g>
<g>
	<path class="st8" d="M193.5,166.7c0,0,0.3,0.1,0.9,0.4c0.3,0.1,0.6,0.3,1,0.5c0.4,0.2,0.8,0.4,1.3,0.7c0.9,0.6,1.9,1.5,2.6,2.7
		c0.4,0.6,0.7,1.2,1,1.9c0.3,0.7,0.4,1.4,0.6,2.1c0.1,0.7,0.1,1.5,0.1,2.2c0,0.7,0,1.4,0,2c0,1.3,0,2.5-0.1,3.6
		c-0.1,2.1-0.3,3.5-0.3,3.5s-0.3-1.4-0.5-3.5c-0.1-1-0.2-2.3-0.3-3.6c0-0.7-0.1-1.3-0.1-2c0-0.7,0-1.4-0.2-2
		c-0.2-1.3-0.6-2.5-1.2-3.6c-0.6-1.1-1.4-2-2.1-2.7c-0.4-0.3-0.7-0.6-1.1-0.9c-0.3-0.3-0.6-0.5-0.9-0.7
		C193.7,166.9,193.5,166.7,193.5,166.7z"/>
</g>
<g>
	<line class="st9" x1="200.9" y1="201.5" x2="200.3" y2="213"/>
	<path class="st8" d="M200.9,201.5c0,0,0.2,0.7,0.3,1.8c0.1,0.5,0.1,1.2,0.1,1.9c0,0.7,0,1.4,0,2.1c-0.1,1.4-0.3,2.9-0.5,4
		c-0.2,1.1-0.5,1.8-0.5,1.8s-0.2-0.7-0.3-1.8c-0.1-1.1-0.1-2.5-0.1-4c0.1-0.7,0.1-1.4,0.2-2.1c0.1-0.7,0.2-1.3,0.3-1.8
		C200.6,202.2,200.9,201.5,200.9,201.5z"/>
</g>
<g>
	<line class="st9" x1="216.9" y1="204.6" x2="214.5" y2="215.4"/>
	<path class="st8" d="M216.9,204.6c0,0,0.1,0.7,0,1.8c0,0.5-0.1,1.1-0.2,1.8c-0.1,0.6-0.2,1.3-0.4,2c-0.3,1.3-0.7,2.7-1.1,3.7
		c-0.4,1-0.7,1.6-0.7,1.6s-0.1-0.7,0-1.8c0.1-1,0.2-2.4,0.5-3.8c0.2-0.7,0.3-1.3,0.5-2c0.2-0.6,0.4-1.2,0.6-1.7
		C216.5,205.2,216.9,204.6,216.9,204.6z"/>
</g>
<g>
	<path class="st8" d="M202.2,204.1c0,0,0.8-0.2,2.1-0.3c0.6,0,1.4,0,2.1,0c0.8,0,1.6,0.2,2.4,0.3c0.8,0.2,1.6,0.4,2.4,0.7
		c0.4,0.1,0.7,0.3,1.1,0.4c0.3,0.1,0.6,0.3,0.9,0.5c0.6,0.3,1,0.6,1.3,0.8c0.3,0.2,0.5,0.4,0.5,0.4s-0.2,0-0.6-0.1
		c-0.3-0.1-0.9-0.2-1.4-0.4c-0.6-0.1-1.3-0.3-2-0.5c-0.4-0.1-0.7-0.2-1.1-0.2c-0.4-0.1-0.8-0.2-1.2-0.2c-0.8-0.2-1.6-0.3-2.3-0.5
		c-0.7-0.1-1.4-0.3-2-0.4C203,204.3,202.2,204.1,202.2,204.1z"/>
</g>
<circle class="st3" cx="220.4" cy="216.7" r="6"/>
<polyline class="st10" points="223.4,121 226.7,112.4 229.2,113.2 226.5,120.6 "/>
<circle class="st10" cx="220.5" cy="139.5" r="19.6"/>
<circle class="st11" cx="229.3" cy="109.5" r="3.8"/>
<path class="st12" d="M224.6,132.4c-3-1.2-6.4,0.3-7.5,3.3c-1.2,3,0.3,6.4,3.3,7.5c3,1.2,6.4-0.3,7.5-3.3
	C229.1,136.9,227.6,133.5,224.6,132.4z M223.6,139.1c-2.1-0.8-0.9-4.1,1.3-3.3C227,136.6,225.8,139.9,223.6,139.1z"/>
<path class="st12" d="M205.4,130c-2.8-1.1-6,0.3-7.1,3.1c-1.1,2.8,0.3,6,3.1,7.1c2.8,1.1,6-0.3,7.1-3.1
	C209.6,134.2,208.2,131.1,205.4,130z M204.2,136.3c-2.1-0.8-0.9-4.1,1.3-3.3C207.6,133.8,206.4,137.1,204.2,136.3z"/>
<path class="st8" d="M205.2,131.1c-1.2-0.6-2.6-0.5-3.7,0c-0.9,0.4-1.6,1.1-2.1,2.1c-0.8,1.7-0.3,3.7,1,5c0.3,0.3,0.7,0.6,1.2,0.8
	c0.1,0,0.2,0.1,0.2,0.1c2.1,0.8,4.5-0.2,5.5-2.2c0.5-1.1,0.5-2.2,0.1-3.3C207,132.4,206.2,131.6,205.2,131.1z M206.9,136.6
	c-0.9,1.9-3.1,2.8-5.1,1.9c-0.4-0.2-0.8-0.5-1.2-0.8c-1.1-1.1-1.4-2.8-0.7-4.3c0.4-0.8,1-1.4,1.7-1.8c1-0.5,2.1-0.6,3.2-0.2
	c0.1,0,0.1,0.1,0.2,0.1c0.9,0.4,1.6,1.2,2,2.1C207.3,134.7,207.3,135.7,206.9,136.6z"/>
<path class="st8" d="M205.5,135.8c-0.6,0.2-1.3-0.3-1.5-1c-0.2-0.7,0.1-1.4,0.7-1.5c0.3-0.1,0.6,0,0.9,0.2c-0.2-0.2-0.3-0.4-0.6-0.6
	c0,0,0,0-0.1,0c-1.3-0.6-2.7,0-3.3,1.2c-0.6,1.3,0,2.7,1.2,3.3c0.7,0.3,1.5,0.3,2.2-0.1c0.5-0.5,0.9-1.2,0.9-1.9
	C206,135.6,205.8,135.7,205.5,135.8z"/>
<path class="st8" d="M224.8,138.6c-0.6,0.2-1.3-0.3-1.6-1c-0.2-0.7,0.1-1.4,0.8-1.6c0.3-0.1,0.7,0,0.9,0.2c-0.2-0.2-0.4-0.5-0.6-0.6
	c0,0,0,0-0.1,0c-1.3-0.6-2.9,0-3.5,1.3c-0.6,1.3,0,2.9,1.3,3.5c0.8,0.3,1.6,0.3,2.3-0.1c0.5-0.5,0.9-1.2,1-2
	C225.2,138.4,225,138.6,224.8,138.6z"/>
<path class="st8" d="M224.4,133.7c-2.3-1.1-5,0-6,2.3c-0.5,1.1-0.6,2.3-0.1,3.5c0.4,1.1,1.3,2,2.4,2.6c0.1,0,0.2,0.1,0.3,0.1
	c2.2,0.9,4.8-0.2,5.8-2.4c0.5-1.1,0.6-2.3,0.1-3.5C226.3,135.1,225.5,134.2,224.4,133.7z M226.2,139.6c-0.9,2-3.3,2.9-5.4,2
	c-1-0.5-1.7-1.3-2.1-2.3c-0.4-1-0.3-2.1,0.1-3.1c0.9-2,3.2-2.9,5.2-2.1c0.1,0,0.2,0.1,0.2,0.1c1,0.5,1.7,1.3,2.1,2.3
	C226.7,137.5,226.6,138.6,226.2,139.6z"/>
<path class="st8" d="M225.2,131.9c-3.3-1.5-7.2,0-8.7,3.2c-1.5,3.3,0,7.2,3.2,8.7c0.1,0.1,0.2,0.1,0.4,0.2c3.2,1.2,6.9-0.2,8.3-3.4
	c0.7-1.6,0.8-3.4,0.2-5C228,134,226.8,132.7,225.2,131.9z M227.5,140.2c-1.3,2.8-4.5,4-7.3,2.7c-2.8-1.3-4-4.6-2.7-7.3
	c1.2-2.7,4.3-3.9,7-2.9c0.1,0,0.2,0.1,0.3,0.1c1.3,0.6,2.4,1.7,2.9,3.1C228.2,137.3,228.1,138.8,227.5,140.2z"/>
<path class="st8" d="M205.9,129.4c-1.6-0.7-3.3-0.7-4.9-0.1c-1.4,0.6-2.7,1.7-3.4,3.2c-0.7,1.5-0.8,3.2-0.2,4.8c0.4,1.1,1.1,2,2,2.7
	c0.4,0.3,0.8,0.6,1.3,0.8c0.1,0.1,0.2,0.1,0.3,0.1c3.1,1.2,6.5-0.2,7.9-3.2C210.4,134.5,209.1,130.8,205.9,129.4z M208.1,137.2
	c-1.2,2.6-4.3,3.8-6.9,2.6c-0.4-0.2-0.8-0.5-1.2-0.8c-0.7-0.6-1.2-1.3-1.5-2.2c-0.5-1.3-0.4-2.7,0.1-4c0.6-1.2,1.6-2.2,2.7-2.6
	c1.2-0.5,2.6-0.6,3.9-0.1c0.1,0,0.2,0.1,0.3,0.1C208.2,131.5,209.3,134.6,208.1,137.2z"/>
<path class="st8" d="M230.7,132.7l1.1-3.1c-3.9-4.6-8.9-4.9-8.9-4.9l-0.4,3.6C228.1,128.5,230.7,132.7,230.7,132.7z"/>
<path class="st8" d="M197.9,127.5l0-3.3c5.2-3,10-1.6,10-1.6l-0.8,3.5C201.7,124.5,197.9,127.5,197.9,127.5z"/>
<path class="st8" d="M204.7,146.1c0,0,10.8,5.4,25.2-0.6c0,0-3.8,10-12.4,9.9c0,0-6.8,0-9.3-7.2
	C208.2,148.2,204.8,146.6,204.7,146.1z"/>
<path class="st9" d="M211.4,151.4c0,0,2.8,4.5,8.6,3c0,0,3.2-0.6,5.8-4.1c0,0-1.3,0.5-1.9,1c-0.6,0.5-3,2.7-6.5,2.3
	s-4.7-2.4-4.7-2.4S212,150.6,211.4,151.4z"/>
<path class="st9" d="M209.9,148.1c0,0,9.1,2.1,17.4-1c0,0-1.7,3.1-10.3,3C216.9,150.1,212.7,150.2,209.9,148.1z"/>
<g id="XMLID_30_">
	<g>
		<path class="st13" d="M466.7,221.2c-3.7,21.1-21,37.3-42.3,39.5c-0.1,0-0.2,0-0.4,0c-1.9,0.2-3.8,0.2-5.7,0
			c-17.8-1.8-35-3.6-51.6-5.6l5.8-26.8c0,0,43.2-44.9,88.4-42.3C470.2,191.6,468.7,209.7,466.7,221.2z"/>
		<path class="st14" d="M372.5,228.3l-5.8,26.8c-66.9-7.9-124-17.3-168.1-25.6l2.1-9.6c0,0-0.4-6.2-5.2-8.3
			c-4.9-2.1-44.5-17.4-68-16.8c0,0-4.5,0.1-5.2,3.1c-0.7,3-4,13.3,0.1,14.1c0,0,28.4,5.4,56.2,13.6c-12.4-2.4-23.5-4.8-33.2-6.8
			c-15.2-3.3-26.9-6-34.8-7.9l0-0.2l-7-1.5l0,0c-0.8-0.2-1.4-0.4-2-0.5c-2-0.5-3-0.8-3-0.8c-0.6,2.7-3.4,4.2-6,3.2L47.2,194
			l11.6-53.7l124.5,26.9c0,0,4.8,29.3,28.5,34.2c23.6,4.9,31.7-17.1,31.7-17.1L372.5,228.3z"/>
		<path class="st13" d="M236.6,182C236.6,182,236.6,182,236.6,182l6.8,2.3c0,0-8,22-31.7,17.1c-23.6-4.9-28.5-34.2-28.5-34.2
			l6.1,1.3c0,0,0,0,0,0c0.1,0.3,4.9,17.7,17.2,25c3.9,2.4,6.7,2.6,6.7,2.6c5,1.1,9.1,0.4,12.3-1.2C234,191.2,236.5,182.4,236.6,182
			C236.6,182,236.6,182,236.6,182z"/>
		<path class="st13" d="M198.6,229.6l-0.5,2.5c-6.2-2.3-12.8-4.4-19.5-6.4C184.9,227,191.6,228.3,198.6,229.6z"/>
		<path class="st13" d="M200.7,220l-2.1,9.6c-7-1.3-13.7-2.6-20-3.9c-27.8-8.2-56.2-13.6-56.2-13.6c-4.1-0.8-0.8-11.1-0.1-14.1
			c0.7-3,5.2-3.1,5.2-3.1c23.5-0.6,63.1,14.7,68,16.8C200.3,213.8,200.7,220,200.7,220z"/>
		<path class="st13" d="M152.3,220.4l-33,24.3c-0.6-2.1-1.5-4-2.7-5.7l0,0l28.8-20.1L152.3,220.4z"/>
		<path class="st14" d="M119.3,244.7c0.7,2.6,0.8,5.4,0.2,8.2c-2,9.5-11.4,15.5-20.8,13.4c-9.5-2-15.5-11.4-13.4-20.8
			c1.5-7,7-12.1,13.5-13.5l0,0l7.3,0c4.4,1,8.1,3.5,10.5,6.9l0,0L119.3,244.7z M112.3,251.4c1.2-5.5-2.3-10.9-7.8-12.1
			c-5.5-1.2-10.9,2.3-12.1,7.8c-1.2,5.5,2.3,10.9,7.8,12.1C105.7,260.4,111.1,256.9,112.3,251.4z"/>
		<path class="st14" d="M119.3,244.7l-2.7-5.7C117.8,240.7,118.7,242.7,119.3,244.7z"/>
		<circle class="st13" cx="102.3" cy="249.2" r="10.2"/>
		<path class="st14" d="M110.6,210.8l0,0.2c-2.8-0.7-5.1-1.3-7-1.7L110.6,210.8z"/>
		<path class="st14" d="M106,232.1l-7.3,0C101.1,231.6,103.5,231.6,106,232.1z"/>
		<path class="st13" d="M103.6,209.3c1.8,0.5,4.2,1,7,1.7l-4.6,21.1c-2.5-0.5-5-0.5-7.3,0l0,0L103.6,209.3L103.6,209.3z"/>
		<path class="st13" d="M58.8,140.3L47.2,194l-2-0.8c-3.1-1.2-4.8-4.4-4.1-7.6l4-18.5l0.7-3.2l4-18.7c0.8-3.6,4.3-5.9,7.9-5.1
			L58.8,140.3z"/>
		<path class="st13" d="M45.7,163.9l-0.7,3.2l-3.8-0.8c0.2-1.1,0.5-2.1,0.7-3.2l0-0.1L45.7,163.9z"/>
		<path class="st14" d="M41.2,166.3c-0.1,0.4-0.2,0.8-0.3,1.2c-7.8,36.2-15.8,65.1-17.9,64.7c-2.1-0.4,2.4-29.6,10.1-65.3l0,0
			l1.2-5.4c7.5-34.1,15-60.8,17-60.3c2,0.4-2.2,27.8-9.4,61.9l0,0.1L41.2,166.3L41.2,166.3z"/>
		<path class="st13" d="M34.8,159.2l-0.5,2.3c-0.3,1.4-0.6,2.9-0.9,4.3c-0.1,0.4-0.2,0.7-0.2,1.1l-3.7-0.8l1.7-7.7L34.8,159.2z"/>
	</g>
</g>
<g>
	<g>
		<path class="st8" d="M420.4,211.6c-0.1,0.1-0.2,0.2-0.3,0.3c-0.3,0.4-0.6,0.8-0.8,1.2c-0.1,0.2-0.2,0.3-0.3,0.5
			c-0.2,0.3-0.3,0.6-0.5,1c-0.3,0.6-0.5,1.3-0.7,1.9c-0.1,0.3-0.2,0.5-0.2,0.8c-0.3,1.3-0.4,2.6-0.4,3.9c0,1.1,0.2,2.2,0.5,3.2
			c0.1,0.4,0.3,0.8,0.4,1.2c0,0.1,0.1,0.2,0.1,0.2l0.2-0.9l0.9-4.3l0.1-0.5l0.7-3.5l0.1-0.7l0.5-2.6l0.2-0.8l0.5-2.4
			C421.1,210.7,420.8,211.1,420.4,211.6z"/>
		<path class="st8" d="M435,206.6c-0.5-0.1-1-0.2-1.6-0.3c-3.8-0.5-7.4,0.6-10.3,2.7l4.7,1c0.8,0.2,1.5,0.4,2.2,0.7
			c0.7,0.3,1.3,0.7,1.7,1.2c0.5,0.5,0.8,1.1,1,1.9c0.2,0.7,0.2,1.6,0,2.7l-0.4,2.1c-0.2,1.1-0.6,2-1.1,2.6c-0.5,0.6-1.1,1-1.9,1.3
			l0.3,0.5c0.4,0.6,0.7,1.3,0.8,2.1c0.2,0.8,0.1,1.6,0,2.4l-0.6,3l-3.7-0.8l0.6-2.7c0.1-0.5,0.1-1.1,0-1.6c-0.1-0.5-0.3-1-0.7-1.6
			l-0.9-1.2l0,0l-2.1-0.4l-1.4,6.6l-1-0.2l-0.8-0.2l-0.1,0l-0.4-0.1c0.1,0.1,0.1,0.2,0.2,0.3c0,0,0,0,0,0c0.2,0.3,0.3,0.5,0.5,0.8
			c0.4,0.5,0.8,0.9,1.2,1.4c1.9,2,4.3,3.4,7.1,4.1c0.5,0.1,1,0.2,1.6,0.3c3.6,0.5,7.2-0.5,10-2.4l-4-0.9c-0.4-0.1-0.8-0.3-1.1-0.5
			c-0.3-0.3-0.6-0.5-0.8-0.9c-0.2-0.3-0.3-0.7-0.4-1.1c-0.1-0.4-0.1-0.8,0-1.1l3.3-16.1l3.7,0.8l-3.2,15.3c0,0.2,0,0.4,0.1,0.5
			c0.1,0.2,0.2,0.3,0.4,0.3l4.9,1c1.3-1.6,2.3-3.6,2.8-5.8c0.9-3.8,0.3-7.6-1.8-10.9C442,209.7,438.8,207.4,435,206.6z"/>
		<path class="st8" d="M427.2,219.2c0.3-0.1,0.6-0.3,0.8-0.5c0.2-0.2,0.3-0.4,0.4-0.6c0.1-0.2,0.1-0.4,0.1-0.4l0.4-2
			c0-0.1,0-0.2,0-0.5c0-0.2,0-0.5-0.1-0.7c-0.1-0.3-0.3-0.5-0.6-0.8c-0.3-0.2-0.7-0.4-1.2-0.5l-2.2-0.5l-0.4,1.8l-0.9,4.2l1.6,0.3
			l0.6,0.1C426.4,219.3,426.9,219.3,427.2,219.2z"/>
		<path class="st8" d="M436.8,204.4c-5.7-1.3-11.3,0.3-15.3,3.9c-0.7,0.6-1.3,1.2-1.9,1.9c-0.1,0.1-0.1,0.1-0.2,0.2
			c-0.3,0.4-0.6,0.7-0.8,1.1c-0.1,0.1-0.1,0.2-0.2,0.3c-0.2,0.3-0.4,0.6-0.6,1c-0.3,0.5-0.5,1-0.8,1.6c-0.4,0.9-0.7,1.8-0.9,2.7
			c-0.1,0.2-0.1,0.5-0.1,0.7c-0.6,3-0.3,6,0.6,8.8c0.1,0.3,0.2,0.7,0.4,1c0.2,0.5,0.4,0.9,0.6,1.3l0,0c0.2,0.4,0.4,0.7,0.6,1
			c0,0.1,0.1,0.1,0.1,0.2c0.2,0.3,0.3,0.5,0.5,0.8c0.3,0.4,0.6,0.8,1,1.2c2.3,2.7,5.4,4.7,9.1,5.6c9.2,2.2,18.4-3.5,20.6-12.7
			C451.7,215.8,446,206.6,436.8,204.4z M446.5,224.1c-1.8,7.6-8.9,12.5-16.6,11.6c-0.5-0.1-1.1-0.2-1.6-0.3
			c-2.9-0.7-5.5-2.2-7.4-4.3c-0.4-0.4-0.8-0.8-1.1-1.3c-0.2-0.2-0.4-0.5-0.5-0.8c0,0,0,0,0,0c-0.3-0.4-0.5-0.8-0.7-1.2l0,0
			c-0.2-0.5-0.5-0.9-0.7-1.4c-0.2-0.4-0.3-0.7-0.4-1.1c-0.7-2-0.9-4.1-0.7-6.2c0.1-0.7,0.2-1.4,0.3-2.1c0.1-0.6,0.3-1.2,0.5-1.7
			c0.2-0.6,0.5-1.2,0.8-1.7c0.2-0.3,0.3-0.6,0.5-0.9c0.1-0.1,0.2-0.3,0.3-0.4c0.3-0.4,0.5-0.8,0.8-1.1c0.1-0.1,0.1-0.2,0.2-0.3
			c0.6-0.7,1.2-1.3,1.9-1.9c3.1-2.6,7.3-4,11.6-3.4c0.5,0.1,1.1,0.2,1.6,0.3c4,0.9,7.3,3.4,9.4,6.8
			C446.7,216.1,447.4,220.2,446.5,224.1z"/>
	</g>
</g>
<path class="st1" d="M240.6,174l4.7,14.5c0.7,2.1,2.9,3.2,5,2.5h0c2.1-0.7,3.2-2.9,2.5-5l-4.9-14.6"/>
<path class="st2" d="M236.5,173c0,0,3.9,1.9,7.8,0.5s5.9-4.7,5.9-4.7s-0.5-3.6-2.4-6.8c-1.9-3.2-6.3-4.6-10.4-3.1l-1.7,0.6
	c-2.2,0.8-3.3,3.2-2.4,5.3L236.5,173z"/>
<g>
	<path class="st8" d="M235.7,162.1c0,0,0.6,0.4,1.4,1.1c0.8,0.7,1.9,1.7,2.9,2.8c0.2,0.3,0.5,0.5,0.7,0.8c0.2,0.3,0.5,0.5,0.7,0.9
		c0.4,0.7,0.4,1.5,0.2,2.1c-0.3,1-0.7,1.7-0.7,1.7s0-0.7,0.1-1.8c0.1-0.5-0.1-1.1-0.4-1.5c-0.1-0.2-0.4-0.4-0.7-0.7
		c-0.2-0.3-0.5-0.5-0.8-0.8c-1-1.1-1.9-2.2-2.6-3.1C236,162.8,235.7,162.1,235.7,162.1z"/>
</g>
<path class="st3" d="M232,197.2c0,0-4.1-1.2-6,0.5c-1.9,1.8,0,4,0,4"/>
<path class="st3" d="M235.4,208.9c0,0-0.6,2.2-4,2.7c-3.4,0.4-3.4-2.2-3.4-2.2"/>
<path class="st3" d="M233.6,207.5c0,0-0.6,1.9-4.8,1.9c-1.9,0-2.5-2.6-2.5-2.6"/>
<path class="st3" d="M232.2,204.5c0,0-0.9,1.3-2.9,1.8c-1.6,0.4-3.6,1-4.1-1.2c-0.3-1.4,0.1-2.9,1.2-3.8c0.4-0.4,1-0.7,1.6-0.7
	c0,0,1.1-0.2,1.5,1.3c0.4,1.4-2,2.1-2,2.1"/>
<path class="st3" d="M235.4,208.9c0,0,9.5-4.9,4.8-12.5c0,0-2.3-3.4-5.2-1.8c-2.8,1.6-4.2,4.5-4.2,4.5S232.1,207.8,235.4,208.9z"/>
<path class="st3" d="M241.2,198.5c-0.4-2.1-3.3-0.5-3.3-0.5l-2.6,2.8c0,0-0.4,5.6,3.1,5.9C238.4,206.7,242.3,203.7,241.2,198.5z"/>
<path class="st5" d="M247.1,182.6c0,0,8.1,1,7,10l-9.7,10.2c0,0-7.8-3-9-10.7L247.1,182.6z"/>
<line class="st3" x1="230.8" y1="199.1" x2="228.7" y2="200.7"/>
<g>
	<path class="st8" d="M252.4,194.3c0,0-0.5,0.4-1.3,0.8c-0.4,0.2-0.9,0.5-1.4,0.7c-0.2,0.1-0.5,0.2-0.8,0.3
		c-0.2,0.1-0.4,0.3-0.6,0.4c-0.4,0.3-0.7,0.7-0.9,1.2c-0.1,0.2-0.2,0.4-0.3,0.7c-0.1,0.2-0.1,0.5-0.2,0.7c-0.3,0.9-0.5,1.4-0.5,1.4
		s-0.1-0.6,0-1.5c0-0.2,0-0.5,0-0.7c0-0.3,0.1-0.6,0.2-0.9c0.2-0.6,0.6-1.2,1.1-1.6c0.3-0.2,0.5-0.4,0.9-0.5
		c0.3-0.1,0.6-0.2,0.8-0.3c0.5-0.2,1-0.3,1.5-0.4C251.8,194.4,252.4,194.3,252.4,194.3z"/>
</g>
<g>
	<path class="st8" d="M247.6,186c0,0-0.1,0.6-0.5,1.5c-0.3,0.9-0.8,2.1-1.4,3.2c-0.2,0.3-0.4,0.6-0.6,0.9c-0.2,0.3-0.5,0.5-0.8,0.7
		c-0.5,0.4-1.1,0.6-1.6,0.6c-0.5,0.1-0.9,0-1.2,0c-0.3,0-0.4,0-0.4,0s0.2-0.1,0.4-0.2c0.3-0.1,0.7-0.2,1.1-0.4
		c0.4-0.2,0.9-0.4,1.3-0.8c0.2-0.2,0.4-0.4,0.6-0.6c0.2-0.2,0.3-0.4,0.5-0.7c0.6-1.1,1.2-2.2,1.8-3C247.1,186.5,247.6,186,247.6,186
		z"/>
</g>
<path class="st14" d="M368.5,277.8c6.8-5.8,0.6-15.3-7.4-11.5C354.3,272.1,360.4,281.6,368.5,277.8z"/>
<path class="st13" d="M366.9,275.4c3.9-3.3,0.4-8.9-4.3-6.7C358.7,272.1,362.2,277.6,366.9,275.4z"/>
<text transform="matrix(0.982 0.189 -0.189 0.982 62.6191 172.9575)" class="st15 st16 st17">F=ma</text>
</svg>
