<?xml version="1.0" encoding="utf-8"?>
<!-- Generator: Adobe Illustrator 19.1.1, SVG Export Plug-In . SVG Version: 6.00 Build 0)  -->
<svg version="1.1" id="Layer_1" xmlns="http://www.w3.org/2000/svg" xmlns:xlink="http://www.w3.org/1999/xlink" x="0px" y="0px"
	 viewBox="126.7 276.1 247 241.9" style="enable-background:new 126.7 276.1 247 241.9;" xml:space="preserve">
<style type="text/css">
	.st0{fill:none;stroke:#414142;stroke-width:4;stroke-linejoin:round;stroke-miterlimit:10;}
	.st1{fill:#FFFFFF;stroke:#414142;stroke-width:4.321;stroke-miterlimit:10;}
	.st2{fill:#414142;}
	.st3{fill:#FFFFFF;stroke:#414142;stroke-width:4.321;stroke-linejoin:round;stroke-miterlimit:10;}
	.st4{fill:none;stroke:#414142;stroke-width:4;stroke-linecap:round;stroke-linejoin:round;stroke-miterlimit:10;}
	.st5{fill:#FFFFFF;stroke:#414142;stroke-width:4;stroke-linejoin:round;stroke-miterlimit:10;}
	.st6{fill:#FFFFFF;stroke:#414142;stroke-width:3;stroke-linecap:round;stroke-miterlimit:10;}
	.st7{fill:none;stroke:#414142;stroke-width:2;stroke-linecap:round;stroke-miterlimit:10;}
	.st8{fill:none;stroke:#414142;stroke-width:2;stroke-linecap:round;stroke-miterlimit:10;stroke-dasharray:11.6547,11.6547;}
</style>
<polygon class="st5" points="259.6,467.7 210.6,514.2 133.6,395.3 182.7,348.8 "/>
<polygon class="st5" points="259.6,467.7 321.4,442.5 244.5,323.6 182.7,348.8 "/>
<polygon class="st5" points="366.7,398.5 321.4,442.5 244.5,323.6 289.7,279.6 "/>
<line class="st6" x1="216.2" y1="464.5" x2="205.2" y2="475.5"/>
<line class="st6" x1="205.2" y1="464.5" x2="216.2" y2="475.5"/>
<g>
	<g>
		<path class="st7" d="M210.7,462.6c-0.3-1.8-0.9-3.7-1.5-5.8"/>
		<path class="st8" d="M205.2,445.8c-10.7-26.8-29.7-63.5-5.3-75.7c24.8-12.5,85.5,63.4,108.1,51.6c25.5-13.3,4.6-53.1-11.6-80.2"/>
		<path class="st7" d="M293.3,336.5c-1.1-1.8-2.1-3.5-3.1-5.1"/>
	</g>
</g>
</svg>
