<?xml version="1.0" encoding="utf-8"?>
<!-- Generator: Adobe Illustrator 19.1.1, SVG Export Plug-In . SVG Version: 6.00 Build 0)  -->
<svg version="1.1" id="Layer_1" xmlns="http://www.w3.org/2000/svg" xmlns:xlink="http://www.w3.org/1999/xlink" x="0px" y="0px"
	 viewBox="0 0 245 239.9" style="enable-background:new 0 0 245 239.9;" xml:space="preserve">
<style type="text/css">
	.st0{fill:#FFFFFF;stroke:#414142;stroke-width:10.7845;stroke-miterlimit:10;}
	.st1{fill:#414142;}
	.st2{fill:#FFFFFF;}
	.st3{fill:#FFFFFF;stroke:#424242;stroke-width:15.1101;stroke-miterlimit:10;}
	.st4{fill:none;stroke:#424242;stroke-width:4.6242;stroke-linecap:round;stroke-linejoin:round;stroke-miterlimit:10;}
	.st5{fill:none;stroke:#000000;stroke-width:1.2828;stroke-miterlimit:10;}
	.st6{fill:none;stroke:#000000;stroke-width:1.2828;stroke-linejoin:round;stroke-miterlimit:10;}
	.st7{fill:none;}
	.st8{fill:#595A5C;}
	.st9{fill:none;stroke:#414142;stroke-width:6.8346;stroke-miterlimit:10;}
	.st10{fill:none;stroke:#414142;stroke-width:6.8346;stroke-linecap:round;stroke-miterlimit:10;}
	.st11{fill:none;stroke:#FFFFFF;stroke-width:5.0501;stroke-linecap:round;stroke-miterlimit:10;}
	.st12{fill:none;stroke:#414142;stroke-width:3.4173;stroke-miterlimit:10;}
	.st13{fill:none;stroke:#414142;stroke-width:14;stroke-miterlimit:10;}
	.st14{fill:none;stroke:#414142;stroke-width:4;stroke-linejoin:round;stroke-miterlimit:10;}
	.st15{fill:#FFFFFF;stroke:#414142;stroke-width:4.321;stroke-miterlimit:10;}
	.st16{fill:#FFFFFF;stroke:#414142;stroke-width:4.321;stroke-linejoin:round;stroke-miterlimit:10;}
	.st17{fill:none;stroke:#414142;stroke-width:4;stroke-linecap:round;stroke-linejoin:round;stroke-miterlimit:10;}
	.st18{fill:#FFFFFF;stroke:#414142;stroke-miterlimit:10;}
	.st19{fill:none;stroke:#414142;stroke-width:0.4969;stroke-miterlimit:10;}
	.st20{fill:#FFFFFF;stroke:#414142;stroke-linejoin:round;stroke-miterlimit:10;}
</style>
<g>
	<path class="st1" d="M176.2,163.3c0,0,0.5,0,1.4,0c0.9,0,2.2,0,4-0.1c3.5-0.1,8.6-0.4,15-1.2c3.2-0.4,6.7-1,10.5-1.9
		c3.8-0.9,7.8-2.1,11.9-4c2-0.9,4-2,5.9-3.4c1.9-1.4,3.6-3,5-5c0.6-1,1.2-2.1,1.6-3.2c0.1-0.3,0.2-0.6,0.3-0.9l0.1-0.4l0-0.1
		c0,0.1,0,0,0-0.1l0-0.2l0.1-1c0.1-0.3,0.1-0.7,0.1-0.9c0-1.2-0.1-2.4-0.4-3.7c-0.3-1.2-0.7-2.5-1.3-3.7c-1.1-2.4-2.7-4.7-4.5-6.8
		c-1.8-2.1-3.9-4.2-6.1-6.1c-4.5-3.9-9.6-7.2-15-10.4c-10.9-6.3-23.3-11.6-36.3-16c-13.1-4.4-27-7.9-41.2-10.4
		c-14.3-2.5-29-4-43.6-4c-7.3,0.1-14.6,0.4-21.8,1.5c-3.6,0.5-7.1,1.2-10.5,2.1c-3.4,0.9-6.8,2-9.8,3.5c-3.1,1.5-5.9,3.3-8,5.5
		c-0.3,0.3-0.5,0.6-0.7,0.9c-0.2,0.3-0.5,0.6-0.7,0.9c-0.3,0.6-0.8,1.2-1.1,1.9c-0.1,0.3-0.3,0.6-0.4,1l-0.3,1L30,98.2
		c0.1-0.4,0,0,0-0.1l0,0.2L29.9,99l-0.1,0.7c0,0.1,0,0.2,0,0.3l0,0.2c0,0.3,0,0.6,0,0.9c0,0.3,0.1,0.7,0.1,1c0,0.7,0.3,1.4,0.5,2.1
		c0.2,0.7,0.5,1.4,0.8,2.1c0.4,0.7,0.6,1.4,1.1,2.1c1.6,2.7,3.7,5.2,6,7.5c2.3,2.3,4.9,4.5,7.5,6.4c2.6,2,5.4,3.8,8.1,5.6
		c5.5,3.5,11.2,6.5,16.9,9.2c5.7,2.7,11.3,5.1,16.9,7.1c5.5,2.1,11,4,16.2,5.6c10.5,3.3,20.4,5.7,29.2,7.6c4.4,0.9,8.5,1.7,12.4,2.3
		c3.8,0.7,7.4,1.2,10.6,1.6c6.4,0.9,11.5,1.2,14.9,1.5c1.7,0.1,3.1,0.2,4,0.3C175.8,163.2,176.2,163.3,176.2,163.3l0,0.6
		c0,0-0.5,0-1.4,0c-0.9,0-2.2,0.1-4,0.1c-3.5,0-8.6,0-15.1-0.4c-6.5-0.4-14.4-1.2-23.4-2.6c-2.2-0.4-4.6-0.7-6.9-1.2
		c-1.2-0.2-2.4-0.5-3.6-0.7c-1.2-0.3-2.5-0.5-3.7-0.8c-5-1-10.2-2.3-15.6-3.8c-5.4-1.5-11-3.2-16.7-5.1c-5.7-2-11.6-4.3-17.5-6.9
		c-5.9-2.6-11.9-5.7-17.7-9.2c-2.9-1.8-5.8-3.7-8.6-5.8c-2.8-2.1-5.6-4.4-8.2-7c-2.6-2.6-5-5.5-6.9-8.9c-0.5-0.8-0.9-1.8-1.3-2.7
		c-0.4-0.9-0.7-1.9-1-2.9c-0.2-1-0.5-2-0.6-3.1c-0.1-0.5-0.2-1-0.2-1.6c0-0.6,0-1.2,0-1.8l0-0.4c0-0.1,0-0.2,0-0.3l0.1-0.7l0.1-0.7
		l0-0.2c0-0.2,0,0.1,0.1-0.4l0.1-0.4l0.5-1.6c0.2-0.5,0.4-1,0.7-1.5c0.4-1,1.1-1.9,1.6-2.8c0.3-0.4,0.7-0.8,1-1.2
		c0.3-0.4,0.7-0.8,1.1-1.2c2.9-3,6.4-5,9.9-6.6c3.5-1.6,7.2-2.7,10.9-3.6c3.7-0.9,7.4-1.6,11.2-2c7.5-1,15-1.2,22.5-1.2
		c15,0.2,29.9,2,44.3,4.8c14.4,2.8,28.4,6.6,41.6,11.2c13.2,4.7,25.6,10.2,36.6,16.9c5.5,3.4,10.7,6.9,15.2,11
		c2.3,2,4.4,4.2,6.3,6.5c1.9,2.3,3.5,4.8,4.7,7.4c1.2,2.7,1.9,5.5,1.7,8.5c0,0.4,0,0.7-0.1,1l-0.2,1l0,0.2l0,0.2l0,0.1l-0.1,0.5
		c-0.1,0.3-0.2,0.7-0.3,1c-0.4,1.3-1.1,2.5-1.9,3.6c-1.5,2.2-3.5,3.9-5.5,5.3c-2,1.4-4.2,2.5-6.3,3.4c-4.2,1.8-8.4,3-12.2,3.8
		c-3.9,0.8-7.4,1.3-10.7,1.7c-6.5,0.7-11.6,0.8-15.1,0.9c-1.7,0-3.1,0-4,0c-0.9,0-1.4,0-1.4,0L176.2,163.3z"/>
</g>
<g>
	<path class="st1" d="M192,109.5c0,0,0.3-0.4,0.8-1.1c0.5-0.7,1.3-1.8,2.3-3.2c2-2.8,4.9-7,8.1-12.6c1.6-2.8,3.3-6,4.9-9.5
		c1.6-3.5,3.1-7.5,4-11.8c0.5-2.2,0.8-4.4,0.9-6.8c0.1-2.3-0.2-4.7-1-7c-0.4-1.1-0.9-2.2-1.6-3.2c-0.2-0.3-0.4-0.5-0.5-0.7l-0.3-0.4
		l-0.1-0.1c0.1,0.1,0,0,0,0l-0.2-0.2l-0.7-0.7c-0.2-0.2-0.5-0.5-0.7-0.6c-0.9-0.7-2-1.4-3.2-1.9c-1.2-0.5-2.4-0.9-3.7-1.2
		c-2.6-0.6-5.4-0.7-8.2-0.5c-2.8,0.2-5.7,0.5-8.5,1.2c-5.8,1.2-11.6,3.2-17.4,5.6c-11.6,4.9-23.3,11.5-34.7,19.2
		c-11.4,7.8-22.6,16.7-33.3,26.5c-10.6,9.8-20.7,20.6-29.6,32.3c-4.4,5.9-8.5,11.9-12,18.2c-1.8,3.2-3.4,6.4-4.7,9.7
		c-1.3,3.3-2.5,6.6-3.2,10c-0.7,3.3-1,6.7-0.5,9.7c0,0.4,0.1,0.8,0.2,1.1c0.1,0.4,0.2,0.7,0.3,1.1c0.3,0.7,0.5,1.4,0.9,2
		c0.2,0.3,0.3,0.6,0.5,0.9l0.6,0.8l0.2,0.2c-0.3-0.3,0,0,0,0l0.1,0.1l0.5,0.5l0.5,0.5c0.1,0.1,0.2,0.2,0.2,0.2l0.2,0.1
		c0.2,0.2,0.5,0.3,0.7,0.5c0.2,0.2,0.6,0.4,0.9,0.5c0.6,0.4,1.3,0.6,2,0.9c0.7,0.2,1.4,0.5,2.2,0.6c0.8,0.1,1.5,0.3,2.3,0.4
		c3.1,0.4,6.4,0.2,9.6-0.2c3.3-0.4,6.5-1.2,9.7-2c3.2-0.9,6.3-1.9,9.3-3.1c6.1-2.3,11.9-5,17.5-7.9c5.6-2.9,10.9-5.9,15.9-9.1
		c5-3.1,9.8-6.3,14.3-9.5c9-6.4,16.9-12.8,23.7-18.6c3.4-2.9,6.5-5.8,9.3-8.4c2.8-2.7,5.4-5.1,7.7-7.4c4.6-4.6,7.9-8.4,10.3-11
		c1.2-1.3,2-2.3,2.6-3C191.7,109.8,192,109.5,192,109.5l0.5,0.4c0,0-0.3,0.4-0.8,1.1c-0.5,0.7-1.3,1.8-2.3,3.2
		c-2.1,2.8-5.2,6.8-9.5,11.8c-4.2,5-9.6,10.8-16.2,17.1c-1.6,1.6-3.3,3.2-5.1,4.8c-0.9,0.8-1.8,1.6-2.7,2.4
		c-0.9,0.8-1.9,1.6-2.9,2.5c-3.9,3.3-8,6.8-12.5,10.2c-4.5,3.4-9.2,6.8-14.2,10.2c-5.1,3.3-10.4,6.6-16.1,9.7
		c-5.7,3.1-11.7,6-18.1,8.5c-3.2,1.2-6.5,2.4-9.9,3.4c-3.4,1-6.9,1.8-10.5,2.3c-3.6,0.5-7.4,0.6-11.3,0.1c-1-0.1-2-0.4-2.9-0.5
		c-1-0.3-2-0.6-2.9-0.9c-1-0.4-1.9-0.8-2.8-1.4c-0.5-0.3-0.9-0.5-1.4-0.9c-0.5-0.4-0.9-0.7-1.4-1.1l-0.3-0.3
		c-0.1-0.1-0.2-0.2-0.2-0.2l-0.5-0.5l-0.5-0.5l-0.1-0.1c-0.1-0.1,0.1,0.1-0.3-0.3l-0.2-0.3l-1-1.3c-0.3-0.4-0.5-1-0.8-1.4
		c-0.6-1-0.9-2-1.2-3c-0.2-0.5-0.3-1-0.4-1.5c-0.1-0.5-0.2-1-0.3-1.5c-0.6-4.1-0.1-8.1,0.8-11.9c0.9-3.8,2.2-7.4,3.7-10.9
		c1.5-3.5,3.3-6.9,5.2-10.1c3.8-6.6,8.1-12.7,12.7-18.6c9.3-11.8,19.7-22.6,30.7-32.4c11-9.8,22.4-18.6,34.1-26.3
		c11.7-7.7,23.6-14.2,35.6-19c6-2.3,12-4.3,18-5.4c3-0.6,6-1,9-1.1c3-0.1,5.9,0.1,8.8,0.8c2.8,0.7,5.5,1.9,7.7,3.8
		c0.3,0.2,0.5,0.5,0.8,0.7l0.7,0.7l0.2,0.2l0.1,0.1l0.1,0.1l0.3,0.4c0.2,0.3,0.4,0.6,0.6,0.9c0.8,1.2,1.3,2.4,1.7,3.7
		c0.8,2.6,1,5.2,0.9,7.6c-0.1,2.5-0.5,4.8-1.1,7.1c-1.1,4.5-2.7,8.4-4.4,12c-1.7,3.6-3.4,6.7-5.1,9.5c-3.4,5.6-6.4,9.7-8.4,12.5
		c-1,1.4-1.9,2.5-2.4,3.2c-0.5,0.7-0.8,1.1-0.8,1.1L192,109.5z"/>
</g>
<g>
	<path class="st1" d="M148.9,60.2c0,0-0.2-0.4-0.6-1.2c-0.4-0.8-1-2-1.8-3.5c-1.6-3.1-4-7.6-7.5-13c-1.8-2.7-3.8-5.7-6.2-8.7
		c-2.4-3-5.2-6.2-8.6-9c-1.7-1.4-3.6-2.8-5.6-3.9c-2-1.1-4.3-2-6.6-2.4c-1.2-0.2-2.4-0.2-3.6-0.1c-0.3,0-0.6,0.1-0.9,0.1l-0.4,0.1
		l-0.1,0c0.1,0,0,0-0.1,0l-0.2,0.1l-0.9,0.3c-0.3,0.1-0.6,0.2-0.9,0.3c-1.1,0.5-2.2,1.1-3.2,1.9c-1,0.8-1.9,1.7-2.8,2.7
		c-1.7,2-3.1,4.4-4.2,7c-1.2,2.6-2.1,5.3-2.9,8.1c-1.6,5.7-2.5,11.8-3,18c-1,12.6-0.6,26,1,39.7c1.6,13.7,4.3,27.8,8.1,41.7
		c3.8,14,8.7,27.9,14.9,41.2c3.2,6.6,6.6,13.1,10.6,19.1c2,3,4.1,5.9,6.4,8.6c2.3,2.7,4.7,5.2,7.4,7.4c2.6,2.2,5.5,3.9,8.4,4.9
		c0.4,0.2,0.7,0.2,1.1,0.3c0.4,0.1,0.7,0.2,1.1,0.2c0.7,0,1.4,0.2,2.1,0.1c0.4,0,0.7,0,1.1,0l1-0.2l0.3,0c-0.4,0.1,0,0-0.1,0l0.2,0
		l0.6-0.2l0.6-0.2c0.1,0,0.2-0.1,0.3-0.1l0.2-0.1c0.3-0.1,0.5-0.3,0.8-0.4c0.3-0.1,0.6-0.4,0.9-0.5c0.6-0.3,1.2-0.9,1.7-1.3
		c0.5-0.5,1.1-1.1,1.6-1.6c0.5-0.6,1-1.2,1.4-1.9c1.8-2.6,3.1-5.6,4.2-8.7c1.1-3.1,2-6.3,2.6-9.5c0.7-3.2,1.2-6.5,1.6-9.7
		c0.8-6.5,1.1-12.9,1.1-19.2c0-6.3-0.3-12.4-0.7-18.3c-0.4-5.9-1.1-11.6-1.8-17.1c-1.5-10.9-3.5-20.9-5.6-29.6
		c-1-4.4-2.1-8.4-3.2-12.2c-1-3.7-2.1-7.2-3.1-10.3c-2-6.2-3.8-10.9-5-14.2c-0.6-1.6-1.1-2.9-1.4-3.7
		C149,60.6,148.9,60.2,148.9,60.2l0.6-0.3c0,0,0.2,0.4,0.6,1.2c0.4,0.8,1,2,1.8,3.6c1.5,3.1,3.6,7.8,6,13.9c2.4,6,5.1,13.5,7.7,22.2
		c0.6,2.2,1.3,4.4,1.9,6.8c0.3,1.2,0.6,2.3,0.9,3.5c0.3,1.2,0.6,2.4,0.9,3.7c1.2,5,2.3,10.2,3.3,15.8c1,5.5,1.8,11.3,2.5,17.3
		c0.6,6,1,12.3,1.2,18.8c0.1,6.5-0.1,13.1-0.8,20c-0.4,3.4-0.8,6.9-1.6,10.3c-0.7,3.5-1.6,6.9-2.9,10.4c-1.3,3.4-2.9,6.9-5.1,10.1
		c-0.5,0.8-1.2,1.6-1.8,2.3c-0.7,0.7-1.4,1.5-2.2,2.2c-0.8,0.7-1.6,1.4-2.5,1.9c-0.5,0.3-0.9,0.6-1.4,0.8c-0.5,0.3-1.1,0.5-1.6,0.7
		l-0.4,0.2c-0.1,0.1-0.2,0.1-0.3,0.1l-0.6,0.2l-0.6,0.2l-0.2,0c-0.2,0,0.1,0-0.4,0.1l-0.4,0.1l-1.6,0.2c-0.5,0.1-1.1,0-1.6,0.1
		c-1.1,0.1-2.2-0.2-3.2-0.3c-0.5-0.1-1-0.3-1.5-0.4c-0.5-0.1-1-0.3-1.5-0.5c-3.9-1.4-7.3-3.7-10.2-6.2c-2.9-2.5-5.5-5.4-7.9-8.3
		c-2.4-3-4.6-6-6.6-9.2c-4.1-6.4-7.5-13.1-10.6-19.9c-6.2-13.7-10.9-27.9-14.6-42.2c-3.6-14.2-6.2-28.5-7.6-42.4
		c-1.4-13.9-1.7-27.5-0.4-40.3c0.7-6.4,1.7-12.6,3.5-18.5c0.8-2.9,1.9-5.8,3.2-8.4c1.3-2.7,2.8-5.2,4.7-7.4c1.9-2.2,4.2-4,6.9-5.1
		c0.3-0.2,0.7-0.3,1-0.3l1-0.3l0.2-0.1l0.2-0.1l0.1,0l0.5-0.1c0.3-0.1,0.7-0.1,1-0.1c1.4-0.2,2.8,0,4.1,0.2c2.6,0.5,5,1.5,7.2,2.7
		c2.1,1.2,4,2.7,5.8,4.2c3.5,3,6.2,6.3,8.6,9.4c2.4,3.1,4.4,6.2,6.1,8.9c3.4,5.6,5.7,10.1,7.2,13.3c0.8,1.6,1.3,2.8,1.7,3.6
		c0.4,0.8,0.6,1.2,0.6,1.2L148.9,60.2z"/>
</g>
<g>
	<g>
		<circle class="st18" cx="222" cy="153.5" r="11.5"/>
	</g>
	<g>
		<g>
			<g>
				<path class="st1" d="M224.1,155l-0.4-0.7c0.4-0.6,0.7-1.2,0.9-1.9l0.8-0.1c0.3-0.1,0.6-0.3,0.6-0.7l0-0.5c0-0.3-0.2-0.6-0.5-0.7
					l-0.7-0.2c-0.1-0.7-0.3-1.4-0.7-2l0.5-0.6c0.2-0.3,0.2-0.6,0-0.9l-0.3-0.4c-0.2-0.2-0.6-0.3-0.9-0.1l-0.7,0.4
					c-0.6-0.4-1.3-0.7-1.9-0.8l-0.1-0.8c0-0.3-0.3-0.6-0.6-0.6l-0.5,0c-0.3,0-0.6,0.2-0.7,0.5l-0.2,0.9c-0.7,0.1-1.3,0.4-1.9,0.8
					l-0.7-0.5c-0.3-0.2-0.6-0.2-0.9,0.1l-0.4,0.3c-0.2,0.2-0.3,0.6-0.1,0.9l0.5,0.8c-0.4,0.6-0.7,1.2-0.8,1.8l-0.9,0.2
					c-0.3,0.1-0.6,0.3-0.6,0.7l0,0.5c0,0.3,0.2,0.6,0.5,0.7l0.9,0.2c0.1,0.7,0.3,1.3,0.7,1.9l-0.5,0.7c-0.2,0.3-0.2,0.6,0,0.9
					l0.3,0.4c0.2,0.2,0.6,0.3,0.9,0.1l0.7-0.5c0.6,0.4,1.2,0.7,1.9,0.8l0.1,0.9c0,0.3,0.3,0.6,0.6,0.6l0.5,0c0.3,0,0.6-0.2,0.7-0.5
					l0.2-0.8c0.7-0.1,1.3-0.4,2-0.7l0.7,0.5c0.3,0.2,0.6,0.2,0.9-0.1l0.4-0.3C224.2,155.6,224.3,155.3,224.1,155z M218.2,152.2
					c-0.5-0.6-0.5-1.5,0.1-2c0.5-0.5,1.3-0.5,1.8-0.1l0.3-0.2l0.5,0.5l-0.3,0.3c0.2,0.5,0.1,1.2-0.4,1.7
					C219.7,152.8,218.8,152.8,218.2,152.2z"/>
			</g>
			<g>
				<path class="st1" d="M222.5,162.2l-0.2-0.3c0.2-0.3,0.3-0.6,0.4-0.9l0.3-0.1c0.1,0,0.3-0.2,0.3-0.3l0-0.2c0-0.1-0.1-0.3-0.2-0.3
					l-0.3-0.1c0-0.3-0.2-0.6-0.3-0.9l0.2-0.3c0.1-0.1,0.1-0.3,0-0.4l-0.2-0.2c-0.1-0.1-0.3-0.1-0.4,0l-0.3,0.2
					c-0.3-0.2-0.6-0.3-0.9-0.4l-0.1-0.4c0-0.1-0.1-0.3-0.3-0.3l-0.2,0c-0.1,0-0.3,0.1-0.3,0.2l-0.1,0.4c-0.3,0.1-0.6,0.2-0.9,0.3
					l-0.3-0.2c-0.1-0.1-0.3-0.1-0.4,0l-0.2,0.2c-0.1,0.1-0.1,0.3-0.1,0.4l0.2,0.4c-0.2,0.3-0.3,0.5-0.4,0.8l-0.4,0.1
					c-0.1,0-0.3,0.2-0.3,0.3l0,0.2c0,0.1,0.1,0.3,0.2,0.3l0.4,0.1c0,0.3,0.1,0.6,0.3,0.9l-0.2,0.3c-0.1,0.1-0.1,0.3,0,0.4l0.2,0.2
					c0.1,0.1,0.3,0.1,0.4,0l0.3-0.2c0.3,0.2,0.6,0.3,0.9,0.4l0.1,0.4c0,0.1,0.1,0.3,0.3,0.3l0.2,0c0.1,0,0.3-0.1,0.3-0.2l0.1-0.4
					c0.3-0.1,0.6-0.2,0.9-0.3l0.3,0.2c0.1,0.1,0.3,0.1,0.4,0l0.2-0.2C222.6,162.5,222.6,162.3,222.5,162.2z M219.9,160.9
					c-0.2-0.3-0.2-0.7,0-0.9c0.2-0.2,0.6-0.2,0.8-0.1l0.1-0.1l0.2,0.2l-0.1,0.1c0.1,0.2,0.1,0.6-0.2,0.8
					C220.5,161.2,220.1,161.2,219.9,160.9z"/>
			</g>
			<g>
				<path class="st1" d="M230.6,151.8l-0.2-0.3c0.2-0.3,0.3-0.6,0.4-0.9l0.3-0.1c0.1,0,0.3-0.2,0.3-0.3l0-0.2c0-0.1-0.1-0.3-0.2-0.3
					l-0.3-0.1c0-0.3-0.2-0.6-0.3-0.9l0.2-0.3c0.1-0.1,0.1-0.3,0-0.4l-0.2-0.2c-0.1-0.1-0.3-0.1-0.4,0l-0.3,0.2
					c-0.3-0.2-0.6-0.3-0.9-0.4l-0.1-0.4c0-0.1-0.1-0.3-0.3-0.3l-0.2,0c-0.1,0-0.3,0.1-0.3,0.2l-0.1,0.4c-0.3,0.1-0.6,0.2-0.9,0.3
					l-0.3-0.2c-0.1-0.1-0.3-0.1-0.4,0l-0.2,0.2c-0.1,0.1-0.1,0.3-0.1,0.4l0.2,0.4c-0.2,0.3-0.3,0.5-0.4,0.8l-0.4,0.1
					c-0.1,0-0.3,0.2-0.3,0.3l0,0.2c0,0.1,0.1,0.3,0.2,0.3l0.4,0.1c0,0.3,0.1,0.6,0.3,0.9l-0.2,0.3c-0.1,0.1-0.1,0.3,0,0.4l0.2,0.2
					c0.1,0.1,0.3,0.1,0.4,0l0.3-0.2c0.3,0.2,0.6,0.3,0.9,0.4l0.1,0.4c0,0.1,0.1,0.3,0.3,0.3l0.2,0c0.1,0,0.3-0.1,0.3-0.2l0.1-0.4
					c0.3-0.1,0.6-0.2,0.9-0.3l0.3,0.2c0.1,0.1,0.3,0.1,0.4,0l0.2-0.2C230.6,152.1,230.7,151.9,230.6,151.8z M227.9,150.5
					c-0.2-0.3-0.2-0.7,0-0.9c0.2-0.2,0.6-0.2,0.8-0.1l0.1-0.1l0.2,0.2l-0.1,0.1c0.1,0.2,0.1,0.6-0.2,0.8
					C228.6,150.8,228.2,150.8,227.9,150.5z"/>
			</g>
		</g>
	</g>
</g>
<g>
	<g>
		<circle class="st18" cx="55.1" cy="192.2" r="11.5"/>
	</g>
</g>
<g>
	<g>
		<circle class="st18" cx="134" cy="32.8" r="11.5"/>
	</g>
</g>
<g>
	<polygon class="st19" points="62.7,185.7 50,188 49.4,190.5 53.7,195.5 47.5,198.6 59.8,198.2 60.6,196 55.2,190.3 	"/>
	<g>
		<g>
			<g>
				<polyline class="st1" points="47.5,198.6 59.8,198.2 60.6,196 				"/>
				<g>
					<polygon class="st1" points="50,188 49.4,190.5 53.7,195.5 55.7,194.5 					"/>
				</g>
				<g>
					<polygon class="st2" points="47.5,198.6 55.7,194.5 50,188 62.7,185.7 55.2,190.3 60.6,196 					"/>
				</g>
				<polygon class="st7" points="59.8,198.2 60.6,196 55.2,190.3 62.7,185.7 50,188 49.4,190.5 53.7,195.5 47.5,198.6 				"/>
				<line class="st8" x1="47.5" y1="198.6" x2="60.6" y2="196"/>
				<polygon class="st1" points="62.7,185.7 55.2,190.3 54.1,189.1 				"/>
			</g>
		</g>
	</g>
</g>
<g>
	<path class="st1" d="M137.5,40.3l-8.4-1.4c-1-0.2-1.6-1.1-1.4-2l1.9-11.7c0.2-1,1.1-1.6,2-1.4l8.4,1.4c1,0.2,1.6,1.1,1.4,2
		l-1.9,11.7C139.4,39.8,138.5,40.4,137.5,40.3z"/>
	<path class="st2" d="M138.7,29.4l-7.2-1.2c-0.7-0.1-1.2-0.8-1.1-1.5l0.2-1c0.1-0.7,0.8-1.2,1.5-1.1l7.2,1.2
		c0.7,0.1,1.2,0.8,1.1,1.5l-0.2,1C140.1,29,139.4,29.5,138.7,29.4z"/>
	<g>
		<path class="st2" d="M130.5,30.8L130.5,30.8c-0.4-0.1-0.7-0.5-0.7-0.9v0c0.1-0.4,0.5-0.7,0.9-0.7l0,0c0.4,0.1,0.7,0.5,0.7,0.9v0
			C131.4,30.6,131,30.9,130.5,30.8z"/>
		<path class="st2" d="M133.3,31.2L133.3,31.2c-0.4-0.1-0.7-0.5-0.7-0.9v0c0.1-0.4,0.5-0.7,0.9-0.7l0,0c0.4,0.1,0.7,0.5,0.7,0.9v0
			C134.1,31,133.7,31.3,133.3,31.2z"/>
		<path class="st2" d="M136,31.7L136,31.7c-0.4-0.1-0.7-0.5-0.7-0.9v0c0.1-0.4,0.5-0.7,0.9-0.7l0,0c0.4,0.1,0.7,0.5,0.7,0.9v0
			C136.9,31.5,136.4,31.8,136,31.7z"/>
		<path class="st2" d="M138.7,32.2L138.7,32.2c-0.4-0.1-0.7-0.5-0.7-0.9v0c0.1-0.4,0.5-0.7,0.9-0.7l0,0c0.4,0.1,0.7,0.5,0.7,0.9v0
			C139.6,31.9,139.2,32.2,138.7,32.2z"/>
	</g>
	<g>
		<path class="st2" d="M130.2,33.1L130.2,33.1c-0.4-0.1-0.7-0.5-0.7-0.9l0,0c0.1-0.4,0.5-0.7,0.9-0.7l0,0c0.4,0.1,0.7,0.5,0.7,0.9
			l0,0C131,32.9,130.6,33.2,130.2,33.1z"/>
		<path class="st2" d="M132.9,33.6L132.9,33.6c-0.4-0.1-0.7-0.5-0.7-0.9v0c0.1-0.4,0.5-0.7,0.9-0.7l0,0c0.4,0.1,0.7,0.5,0.7,0.9l0,0
			C133.7,33.3,133.3,33.6,132.9,33.6z"/>
		<path class="st2" d="M135.6,34L135.6,34c-0.4-0.1-0.7-0.5-0.7-0.9v0c0.1-0.4,0.5-0.7,0.9-0.7l0,0c0.4,0.1,0.7,0.5,0.7,0.9v0
			C136.5,33.8,136.1,34.1,135.6,34z"/>
		<path class="st2" d="M138.3,34.5L138.3,34.5c-0.4-0.1-0.7-0.5-0.7-0.9l0,0c0.1-0.4,0.5-0.7,0.9-0.7l0,0c0.4,0.1,0.7,0.5,0.7,0.9v0
			C139.2,34.2,138.8,34.5,138.3,34.5z"/>
	</g>
	<path class="st2" d="M129.8,35.4L129.8,35.4c-0.4-0.1-0.7-0.5-0.7-0.9l0,0c0.1-0.4,0.5-0.7,0.9-0.7l0,0c0.4,0.1,0.7,0.5,0.7,0.9v0
		C130.6,35.2,130.2,35.5,129.8,35.4z"/>
	<path class="st2" d="M132.5,35.9L132.5,35.9c-0.4-0.1-0.7-0.5-0.7-0.9l0,0c0.1-0.4,0.5-0.7,0.9-0.7l0,0c0.4,0.1,0.7,0.5,0.7,0.9v0
		C133.4,35.7,132.9,36,132.5,35.9z"/>
	<path class="st2" d="M135.2,36.3L135.2,36.3c-0.4-0.1-0.7-0.5-0.7-0.9v0c0.1-0.4,0.5-0.7,0.9-0.7h0c0.4,0.1,0.7,0.5,0.7,0.9l0,0
		C136.1,36.1,135.7,36.4,135.2,36.3z"/>
	<path class="st2" d="M129.4,37.8L129.4,37.8c-0.4-0.1-0.7-0.5-0.7-0.9l0,0c0.1-0.4,0.5-0.7,0.9-0.7v0c0.4,0.1,0.7,0.5,0.7,0.9v0
		C130.3,37.5,129.8,37.8,129.4,37.8z"/>
	<path class="st2" d="M132.1,38.2L132.1,38.2c-0.4-0.1-0.7-0.5-0.7-0.9l0,0c0.1-0.4,0.5-0.7,0.9-0.7l0,0c0.4,0.1,0.7,0.5,0.7,0.9v0
		C133,38,132.6,38.3,132.1,38.2z"/>
	<path class="st2" d="M134.9,38.7L134.9,38.7c-0.4-0.1-0.7-0.5-0.7-0.9v0c0.1-0.4,0.5-0.7,0.9-0.7l0,0c0.4,0.1,0.7,0.5,0.7,0.9l0,0
		C135.7,38.4,135.3,38.7,134.9,38.7z"/>
	<path class="st2" d="M137.6,39.1L137.6,39.1c-0.4-0.1-0.7-0.5-0.7-0.9l0.4-2.3c0.1-0.4,0.5-0.7,0.9-0.7l0,0
		c0.4,0.1,0.7,0.5,0.7,0.9l-0.4,2.3C138.4,38.9,138,39.2,137.6,39.1z"/>
</g>
<g>
	<g>
		<circle class="st18" cx="45.8" cy="81.8" r="11.5"/>
	</g>
</g>
<g>
	<path class="st1" d="M38.7,87.8c0,0.2,0.1,0.4,0.2,0.6c0.1,0.2,0.3,0.3,0.5,0.4c0.2,0.1,0.4,0.2,0.6,0.2c0.2,0,0.4-0.2,0.5-0.3
		c0.2-0.2,0.4-0.4,0.6-0.5c0.4-0.4,0.8-0.7,1.2-1.1c0.1-0.1,0.2-0.2,0.3-0.3l0,0c0,0,0,0,0,0c0.1-0.1,2.3-2.6,2.6-2.9
		c0.3-0.3,0.6-0.6,1-1l1-1.1c0.7-0.7,1.3-1.4,2-2.1c0.3-0.3,0.6-0.7,1-1c0.1-0.1,0.3-0.3,0.4-0.4c0.1-0.1,0.2-0.3,0.2-0.4
		c0,0,0.1-0.1,0.1-0.1c0.1,0,0.1,0.1,0.2,0.1c0.3-0.2,0.8-0.2,1.1,0c0.2,0.1,0.3,0.2,0.5,0.3c0,0,0.1,0,0.1,0.1c0,0,0,0.1,0,0.1
		c0,0.1-0.1,0.5-0.1,0.7c0,0.1,0.3,0.4,0.4,0.5c0.1,0.1,1.9-1.9,1.9-2c0-0.1-0.3-0.3-0.5-0.3c-0.1,0-0.5,0.2-0.6,0.1
		c-0.1-0.1-0.3-0.2-0.4-0.3c-0.1-0.1-0.2-0.2-0.3-0.3c-0.1-0.1-0.2-0.2-0.3-0.3c0-0.1-0.1-0.1-0.1-0.2c0-0.1,0-0.1,0-0.2
		c0-0.1-0.1-0.1-0.1-0.2c-0.1-0.1-0.1-0.1-0.2-0.2c-0.3-0.2-0.6-0.4-0.9-0.6c-0.3-0.2-0.6-0.3-1-0.4c-0.3-0.1-0.7,0-1,0
		c-0.3,0.1-1.8,0.4-2,0.5c-0.1,0.1-0.3,0.1-0.4,0.2c0,0-0.1,0.1,0,0.2c0,0,0.1,0.1,0.1,0.1c0.1,0,0.1,0,0.2,0c0.1,0,0.2,0,0.3,0
		c0.2,0,0.4,0,0.5,0c0.2,0,0.4,0,0.5,0c0.2,0,0.3,0,0.5,0c0.2,0,0.3,0,0.5,0c0.1,0,0.2,0,0.2,0.1c0,0.1,0,0.1,0,0.2
		c-0.1,0.3-0.3,0.5-0.5,0.7c0,0,0,0,0,0.1c0.1,0.1,0.2,0.1,0.2,0.2c-0.2,0.1-0.3,0.2-0.5,0.3c-0.3,0.3-0.6,0.6-0.9,0.9
		c-0.3,0.3-0.7,0.7-1,1c-0.7,0.7-1.4,1.4-2.1,2.1c-0.7,0.7-1.4,1.4-2.1,2.1c-0.7,0.7-1.4,1.4-2.1,2.1c-0.7,0.7-1.3,1.4-2,2.1
		c0,0,0,0,0,0C38.8,87.4,38.7,87.6,38.7,87.8z"/>
	<path class="st1" d="M52.2,85.3c-0.5-0.4-1.1-0.5-1.6-0.5c-0.2,0-0.4,0-0.6-0.2l-8.4-7l0,0c0.5-0.6,0.5-1.6-0.2-2.1l-0.8-0.7
		c-0.1,0-0.1-0.1-0.2-0.1c-0.7-0.2-1.1-0.2-1.7-0.1c-0.1,0-0.2,0.2-0.1,0.3l1.3,1.1c0.3,0.3,0.4,0.8,0.1,1.1l-0.3,0.4L39.5,78
		c-0.3,0.3-0.8,0.4-1.1,0.1L37,77c-0.1-0.1-0.3,0-0.3,0.1c0,0.6,0.1,1,0.4,1.7c0,0.1,0.1,0.1,0.1,0.2l0.8,0.7
		c0.6,0.5,1.6,0.5,2.1-0.2l0,0l8.3,6.9c0.2,0.2,0.3,0.4,0.3,0.7c0,0.7,0.3,1.4,0.9,1.8c0.8,0.5,1.9,0.4,2.6-0.2
		C53.2,87.5,53.1,86.1,52.2,85.3z M52.1,87.5L52,87.9L51.6,88l-0.3,0.3L51,88.3l-0.4,0.1l-0.3-0.3l-0.4-0.1l-0.1-0.4l-0.3-0.3
		l0.1-0.4l-0.1-0.4l0.3-0.3l0.1-0.4l0.4-0.1l0.3-0.3l0.4,0.1l0.4-0.1l0.3,0.3l0.4,0.1l0.1,0.4l0.3,0.3l-0.1,0.4l0.1,0.4L52.1,87.5z"
		/>
</g>
<rect x="117.3" y="114.3" class="st20" width="28.9" height="15.3"/>
<polygon class="st20" points="117.3,129.6 113.6,126.5 113.6,111.3 117.3,114.3 "/>
<polygon class="st20" points="142.5,111.3 146.2,114.3 117.3,114.3 113.6,111.3 "/>
</svg>
