<?xml version="1.0" encoding="utf-8"?>
<!-- Generator: Adobe Illustrator 19.1.1, SVG Export Plug-In . SVG Version: 6.00 Build 0)  -->
<svg version="1.1" id="Layer_1" xmlns="http://www.w3.org/2000/svg" xmlns:xlink="http://www.w3.org/1999/xlink" x="0px" y="0px"
	 viewBox="0 0 247 241.9" style="enable-background:new 0 0 247 241.9;" xml:space="preserve">
<style type="text/css">
	.st0{fill:#FFFFFF;stroke:#414142;stroke-width:10.7845;stroke-miterlimit:10;}
	.st1{fill:#414142;}
	.st2{fill:#FFFFFF;}
	.st3{fill:#FFFFFF;stroke:#424242;stroke-width:15.1101;stroke-miterlimit:10;}
	.st4{fill:none;stroke:#424242;stroke-width:4.6242;stroke-linecap:round;stroke-linejoin:round;stroke-miterlimit:10;}
	.st5{fill:none;stroke:#000000;stroke-width:1.2828;stroke-miterlimit:10;}
	.st6{fill:none;stroke:#000000;stroke-width:1.2828;stroke-linejoin:round;stroke-miterlimit:10;}
	.st7{fill:none;}
	.st8{fill:#595A5C;}
	.st9{fill:none;stroke:#414142;stroke-width:6.8346;stroke-miterlimit:10;}
	.st10{fill:none;stroke:#414142;stroke-width:6.8346;stroke-linecap:round;stroke-miterlimit:10;}
	.st11{fill:none;stroke:#FFFFFF;stroke-width:5.0501;stroke-linecap:round;stroke-miterlimit:10;}
	.st12{fill:none;stroke:#414142;stroke-width:3.4173;stroke-miterlimit:10;}
	.st13{fill:none;stroke:#414142;stroke-width:14;stroke-miterlimit:10;}
	.st14{fill:none;stroke:#414142;stroke-width:4;stroke-linejoin:round;stroke-miterlimit:10;}
	.st15{fill:#FFFFFF;stroke:#414142;stroke-width:4.321;stroke-miterlimit:10;}
	.st16{fill:#FFFFFF;stroke:#414142;stroke-width:4.321;stroke-linejoin:round;stroke-miterlimit:10;}
	.st17{fill:none;stroke:#414142;stroke-width:4;stroke-linecap:round;stroke-linejoin:round;stroke-miterlimit:10;}
	.st18{fill:#FFFFFF;stroke:#414142;stroke-miterlimit:10;}
	.st19{fill:none;stroke:#414142;stroke-width:0.4969;stroke-miterlimit:10;}
	.st20{fill:#FFFFFF;stroke:#414142;stroke-linejoin:round;stroke-miterlimit:10;}
</style>
<path class="st14" d="M196,138h-53.9l9.2-18.5c2.3-4.7,3.8-9.8,4.4-15l1.9-17.7h22.8l1.9,17.7c0.6,5.2,2,10.3,4.4,15L196,138z"/>
<path class="st15" d="M233,102.6h-127c-5.6,0-10.2-4.6-10.2-10.2V29.7c0-5.6,4.6-10.2,10.2-10.2h127c5.6,0,10.2,4.6,10.2,10.2v62.7
	C243.3,98,238.7,102.6,233,102.6z"/>
<circle class="st15" cx="169.1" cy="61" r="28.7"/>
<path class="st1" d="M158.7,47.8v26.6c0,2.6,2.9,4.2,5.1,2.9l21.9-13.3c2.2-1.3,2.2-4.4,0-5.8l-21.9-13.3
	C161.5,43.5,158.7,45.1,158.7,47.8z"/>
<g>
	<path class="st1" d="M10.8,156l24.6,80.4l56-17.2c1.4,4.7,6.4,7.4,11.2,5.9s7.4-6.4,5.9-11.2l56-17.2l-24.6-80.4L10.8,156z"/>
	<path class="st16" d="M98.6,212l-3-0.1c-19.1-0.7-37.6,5-53.1,16.3l-2.4,1.8l-24.4-79.4l2.4-1.8c15.5-11.3,33.9-16.9,53.1-16.3
		l3,0.1L98.6,212z"/>
	<path class="st17" d="M30,173c0,0,18.9-17.7,45.1-13.8"/>
	<path class="st17" d="M39.8,201.1c0,0,18.9-17.7,45.1-13.8"/>
	<path class="st17" d="M35.4,186.9c0,0,18.9-17.7,45.1-13.8"/>
	<path class="st16" d="M157.1,194.1l-3-0.1c-19.1-0.7-37.6,5-53.1,16.3l-2.4,1.8l-24.4-79.4l2.4-1.8c15.5-11.3,33.9-16.9,53.1-16.3
		l3,0.1L157.1,194.1z"/>
	<path class="st17" d="M88.5,155c0,0,18.9-17.7,45.1-13.8"/>
	<path class="st17" d="M98.3,183.1c0,0,18.9-17.7,45.1-13.8"/>
	<path class="st17" d="M93.9,168.9c0,0,18.9-17.7,45.1-13.8"/>
</g>
</svg>
