<?xml version="1.0" encoding="utf-8"?>
<!-- Generator: Adobe Illustrator 19.1.1, SVG Export Plug-In . SVG Version: 6.00 Build 0)  -->
<svg version="1.1" id="Layer_1" xmlns="http://www.w3.org/2000/svg" xmlns:xlink="http://www.w3.org/1999/xlink" x="0px" y="0px"
	 viewBox="0 0 245 239.9" style="enable-background:new 0 0 245 239.9;" xml:space="preserve">
<style type="text/css">
	.st0{fill:#FFFFFF;stroke:#414142;stroke-width:10.7845;stroke-miterlimit:10;}
	.st1{fill:#414142;}
	.st2{fill:#FFFFFF;}
	.st3{fill:#FFFFFF;stroke:#424242;stroke-width:15.1101;stroke-miterlimit:10;}
	.st4{fill:none;stroke:#424242;stroke-width:4.6242;stroke-linecap:round;stroke-linejoin:round;stroke-miterlimit:10;}
	.st5{fill:none;stroke:#000000;stroke-width:1.2828;stroke-miterlimit:10;}
	.st6{fill:none;stroke:#000000;stroke-width:1.2828;stroke-linejoin:round;stroke-miterlimit:10;}
	.st7{fill:none;}
	.st8{fill:#595A5C;}
	.st9{fill:none;stroke:#414142;stroke-width:6.8346;stroke-miterlimit:10;}
	.st10{fill:none;stroke:#414142;stroke-width:6.8346;stroke-linecap:round;stroke-miterlimit:10;}
	.st11{fill:none;stroke:#FFFFFF;stroke-width:5.0501;stroke-linecap:round;stroke-miterlimit:10;}
	.st12{fill:none;stroke:#414142;stroke-width:3.4173;stroke-miterlimit:10;}
	.st13{fill:none;stroke:#414142;stroke-width:14;stroke-miterlimit:10;}
	.st14{fill:none;stroke:#414142;stroke-width:4;stroke-linejoin:round;stroke-miterlimit:10;}
	.st15{fill:#FFFFFF;stroke:#414142;stroke-width:4.321;stroke-miterlimit:10;}
	.st16{fill:#FFFFFF;stroke:#414142;stroke-width:4.321;stroke-linejoin:round;stroke-miterlimit:10;}
	.st17{fill:none;stroke:#414142;stroke-width:4;stroke-linecap:round;stroke-linejoin:round;stroke-miterlimit:10;}
	.st18{fill:#FFFFFF;stroke:#414142;stroke-miterlimit:10;}
	.st19{fill:none;stroke:#414142;stroke-width:0.4969;stroke-miterlimit:10;}
	.st20{fill:#FFFFFF;stroke:#414142;stroke-linejoin:round;stroke-miterlimit:10;}
</style>
<path class="st3" d="M122.5,120L122.5,120"/>
<path class="st3" d="M122.5,120L122.5,120"/>
<g>
	<g>
		<path class="st4" d="M176.5,149.5v-48.2c0-5.2-4.2-9.4-9.4-9.4h0c-5.2,0-9.4,4.2-9.4,9.4v48.2v17.2c0,0-8.5-14.2-12.5-16.2
			c-5.2-2.6-16.1-2.1-15.9,8.4c4,13.5,28.5,49.1,33.7,53.4s30.9,11.9,46.8,6.7s26.6-24.4,23-61.8v-41.8c0-5.2-4.2-9.4-9.4-9.4h0
			c-5.2,0-9.4,4.2-9.4,9.4v33.5"/>
		<path class="st4" d="M195.3,147.8V92c0-5.2-4.2-9.4-9.4-9.4h0c-5.2,0-9.4,4.2-9.4,9.4v55.8"/>
		<path class="st4" d="M213.8,148.9v-50c0-5.2-4.2-9.4-9.4-9.4h0c-5.2,0-9.4,4.2-9.4,9.4v48.9"/>
	</g>
	<g>
		<path class="st4" d="M88.8,86.4l39.6-27.5c4.3-3,10.1-1.9,13.1,2.4l0,0c3,4.3,1.9,10.1-2.4,13.1l-39.6,27.5l-14.1,9.8
			c0,0,16.5-1.1,20.5,1.1c5.1,2.8,10.9,12,2.1,17.9c-13.3,4.4-56.6,4.6-63.1,2.7s-27.4-18.6-32.2-34.7s4.9-35.8,37.7-54l34.3-23.8
			c4.3-3,10.1-1.9,13.1,2.4l0,0c3,4.3,1.9,10.1-2.4,13.1L68,55.4"/>
		<path class="st4" d="M79.5,70l45.9-31.8c4.3-3,10.1-1.9,13.1,2.4v0c3,4.3,1.9,10.1-2.4,13.1L90.2,85.4"/>
		<path class="st4" d="M68,55.4l41.1-28.5c4.3-3,10.1-1.9,13.1,2.4l0,0c3,4.3,1.9,10.1-2.4,13.1L79.7,70.2"/>
	</g>
</g>
</svg>
