<?xml version="1.0" encoding="utf-8"?>
<!-- Generator: Adobe Illustrator 19.1.1, SVG Export Plug-In . SVG Version: 6.00 Build 0)  -->
<svg version="1.1" id="Layer_1" xmlns="http://www.w3.org/2000/svg" xmlns:xlink="http://www.w3.org/1999/xlink" x="0px" y="0px"
	 viewBox="0 0 245 239.9" style="enable-background:new 0 0 245 239.9;" xml:space="preserve">
<style type="text/css">
	.st0{fill:#FFFFFF;stroke:#414142;stroke-width:10.7845;stroke-miterlimit:10;}
	.st1{fill:#414142;}
	.st2{fill:#FFFFFF;}
	.st3{fill:#FFFFFF;stroke:#424242;stroke-width:15.1101;stroke-miterlimit:10;}
	.st4{fill:none;stroke:#424242;stroke-width:4.6242;stroke-linecap:round;stroke-linejoin:round;stroke-miterlimit:10;}
	.st5{fill:none;stroke:#000000;stroke-width:1.2828;stroke-miterlimit:10;}
	.st6{fill:none;stroke:#000000;stroke-width:1.2828;stroke-linejoin:round;stroke-miterlimit:10;}
	.st7{fill:none;}
	.st8{fill:#595A5C;}
	.st9{fill:none;stroke:#414142;stroke-width:6.8346;stroke-miterlimit:10;}
	.st10{fill:none;stroke:#414142;stroke-width:6.8346;stroke-linecap:round;stroke-miterlimit:10;}
	.st11{fill:none;stroke:#FFFFFF;stroke-width:5.0501;stroke-linecap:round;stroke-miterlimit:10;}
	.st12{fill:none;stroke:#414142;stroke-width:3.4173;stroke-miterlimit:10;}
	.st13{fill:none;stroke:#414142;stroke-width:14;stroke-miterlimit:10;}
	.st14{fill:none;stroke:#414142;stroke-width:4;stroke-linejoin:round;stroke-miterlimit:10;}
	.st15{fill:#FFFFFF;stroke:#414142;stroke-width:4.321;stroke-miterlimit:10;}
	.st16{fill:#FFFFFF;stroke:#414142;stroke-width:4.321;stroke-linejoin:round;stroke-miterlimit:10;}
	.st17{fill:none;stroke:#414142;stroke-width:4;stroke-linecap:round;stroke-linejoin:round;stroke-miterlimit:10;}
	.st18{fill:#FFFFFF;stroke:#414142;stroke-miterlimit:10;}
	.st19{fill:none;stroke:#414142;stroke-width:0.4969;stroke-miterlimit:10;}
	.st20{fill:#FFFFFF;stroke:#414142;stroke-linejoin:round;stroke-miterlimit:10;}
</style>
<g>
	<rect x="55.8" y="97" class="st9" width="133.4" height="108.6"/>
	<line class="st10" x1="40.6" y1="205.6" x2="204.4" y2="205.6"/>
	<path class="st1" d="M183.3,41.2H61.7L33.6,97h0.2c-0.1,0.7-0.2,1.4-0.2,2.1c0,10,9.9,18,22.2,18s22.2-8.1,22.2-18
		c0-0.7-0.1-1.4-0.2-2.1h0.5c-0.1,0.7-0.2,1.4-0.2,2.1c0,10,9.9,18,22.2,18c12.2,0,22.2-8.1,22.2-18c0-0.7-0.1-1.4-0.2-2.1h0.5
		c-0.1,0.7-0.2,1.4-0.2,2.1c0,10,9.9,18,22.2,18s22.2-8.1,22.2-18c0-0.7-0.1-1.4-0.2-2.1h0.5c-0.1,0.7-0.2,1.4-0.2,2.1
		c0,10,9.9,18,22.2,18c12.2,0,22.2-8.1,22.2-18c0-0.7-0.1-1.4-0.2-2.1h0.2L183.3,41.2z"/>
	<line class="st10" x1="55.8" y1="32.8" x2="189.2" y2="32.8"/>
	<line class="st11" x1="121.8" y1="49" x2="121.8" y2="86.6"/>
	<line class="st11" x1="140.3" y1="47.1" x2="165" y2="86.2"/>
	<line class="st11" x1="103.3" y1="47.1" x2="78.6" y2="86.2"/>
	<line class="st11" x1="33.8" y1="97" x2="211.2" y2="97"/>
	<line class="st9" x1="107.2" y1="207.1" x2="107.2" y2="108.4"/>
	<line class="st12" x1="161.8" y1="147.2" x2="137.6" y2="171.3"/>
	<line class="st12" x1="167.4" y1="163.1" x2="153.5" y2="177"/>
	<line class="st12" x1="145.9" y1="141.6" x2="132" y2="155.5"/>
	<circle class="st1" cx="97.3" cy="150.3" r="3.2"/>
	<circle class="st1" cx="97.3" cy="168.3" r="3.2"/>
	<line class="st12" x1="97.3" y1="150.3" x2="97.3" y2="168.3"/>
</g>
<g>
	<circle class="st13" cx="122.5" cy="120" r="110.9"/>
	<line class="st13" x1="44.1" y1="41.6" x2="200.9" y2="198.4"/>
</g>
</svg>
