<?xml version="1.0" encoding="utf-8"?>
<!-- Generator: Adobe Illustrator 19.1.1, SVG Export Plug-In . SVG Version: 6.00 Build 0)  -->
<svg version="1.1" id="Layer_1" xmlns="http://www.w3.org/2000/svg" xmlns:xlink="http://www.w3.org/1999/xlink" x="0px" y="0px"
	 viewBox="0 0 245 239.9" style="enable-background:new 0 0 245 239.9;" xml:space="preserve">
<style type="text/css">
	.st0{fill:#FFFFFF;stroke:#414142;stroke-width:10.7845;stroke-miterlimit:10;}
	.st1{fill:#414142;}
	.st2{fill:#FFFFFF;}
	.st3{fill:#FFFFFF;stroke:#424242;stroke-width:15.1101;stroke-miterlimit:10;}
	.st4{fill:none;stroke:#424242;stroke-width:4.6242;stroke-linecap:round;stroke-linejoin:round;stroke-miterlimit:10;}
	.st5{fill:none;stroke:#000000;stroke-width:1.2828;stroke-miterlimit:10;}
	.st6{fill:none;stroke:#000000;stroke-width:1.2828;stroke-linejoin:round;stroke-miterlimit:10;}
	.st7{fill:none;}
	.st8{fill:#595A5C;}
	.st9{fill:none;stroke:#414142;stroke-width:6.8346;stroke-miterlimit:10;}
	.st10{fill:none;stroke:#414142;stroke-width:6.8346;stroke-linecap:round;stroke-miterlimit:10;}
	.st11{fill:none;stroke:#FFFFFF;stroke-width:5.0501;stroke-linecap:round;stroke-miterlimit:10;}
	.st12{fill:none;stroke:#414142;stroke-width:3.4173;stroke-miterlimit:10;}
	.st13{fill:none;stroke:#414142;stroke-width:14;stroke-miterlimit:10;}
	.st14{fill:none;stroke:#414142;stroke-width:4;stroke-linejoin:round;stroke-miterlimit:10;}
	.st15{fill:#FFFFFF;stroke:#414142;stroke-width:4.321;stroke-miterlimit:10;}
	.st16{fill:#FFFFFF;stroke:#414142;stroke-width:4.321;stroke-linejoin:round;stroke-miterlimit:10;}
	.st17{fill:none;stroke:#414142;stroke-width:4;stroke-linecap:round;stroke-linejoin:round;stroke-miterlimit:10;}
	.st18{fill:#FFFFFF;stroke:#414142;stroke-miterlimit:10;}
	.st19{fill:none;stroke:#414142;stroke-width:0.4969;stroke-miterlimit:10;}
	.st20{fill:#FFFFFF;stroke:#414142;stroke-linejoin:round;stroke-miterlimit:10;}
</style>
<path class="st0" d="M125.7,112.9H93.1c-4.9,0-8.9-4-8.9-8.9V69.3c0-12.7,10.3-23,23-23h4.6c12.7,0,23,10.3,23,23V104
	C134.7,108.9,130.7,112.9,125.7,112.9z"/>
<circle class="st0" cx="109.4" cy="32.8" r="18.4"/>
<path class="st0" d="M93.4,169.6H40.3c-4.9,0-8.9-4-8.9-8.9v-59.2c0-14,11.4-25.4,25.4-25.4h20.1c14,0,25.4,11.4,25.4,25.4v59.2
	C102.4,165.6,98.4,169.6,93.4,169.6z"/>
<circle class="st0" cx="66.9" cy="57" r="25.9"/>
<path class="st0" d="M212.9,207.9h-77.3c-4.9,0-8.9-4-8.9-8.9v-75.4c0-22.7,18.4-41,41-41h13.1c22.7,0,41,18.4,41,41V199
	C221.8,203.9,217.8,207.9,212.9,207.9z"/>
<circle class="st0" cx="174.3" cy="57" r="34.7"/>
</svg>
