<?xml version="1.0" encoding="utf-8"?>
<!-- Generator: Adobe Illustrator 19.1.1, SVG Export Plug-In . SVG Version: 6.00 Build 0)  -->
<svg version="1.1" id="Layer_1" xmlns="http://www.w3.org/2000/svg" xmlns:xlink="http://www.w3.org/1999/xlink" x="0px" y="0px"
	 viewBox="0 0 960 109" style="enable-background:new 0 0 960 109;" xml:space="preserve">
<style type="text/css">
	.st0{fill:#FFFFFF;}
	.st1{fill:#318AC5;}
</style>
<path class="st0" d="M112,43.3c-0.6-0.9-1.2-1.6-2-2.3c-0.8-0.7-1.6-1.2-2.4-1.5c-0.8-0.4-1.4-0.6-1.9-0.7H54.2
	c-0.5,0.2-0.8,0.9-0.8,2.1v53.3h-15V34.9c0-4.1,0.6-6.9,1.7-8.3c1.1-1.5,2.4-2.2,3.9-2.2h67.6c1.5,0,3.1,0.3,5.1,1
	c1.9,0.6,3.7,1.6,5.3,3c1.6,1.4,3,3,4.2,5.1c1.1,2.1,1.7,4.5,1.7,7.3v14.4c0,2.8-0.6,5.2-1.7,7.3c-1.1,2.1-2.5,3.8-4.2,5.1
	c-1.6,1.3-3.4,2.3-5.3,3c-1.9,0.7-3.6,1-5.1,1h-6.3l23,22.7h-19.4L71.2,57.1h34.2c0.3,0,0.9-0.2,1.8-0.5c0.8-0.3,1.7-0.8,2.5-1.5
	c0.9-0.6,1.6-1.4,2.2-2.3c0.6-0.9,0.9-2,0.9-3.2v-3.4C112.8,45.2,112.5,44.2,112,43.3z"/>
<path class="st0" d="M150.9,75.9c0.6,0.9,1.3,1.6,2.1,2.1c0.8,0.5,1.6,1,2.4,1.3c0.8,0.3,1.4,0.5,1.8,0.5h51.5
	c0.5-0.1,0.8-0.8,0.8-2.1V24.4h15v59.2c0,4.1-0.6,6.9-1.7,8.3c-1.1,1.5-2.4,2.2-3.9,2.2h-67.6c-1.5,0-3.2-0.3-5.1-1
	c-1.9-0.6-3.6-1.6-5.3-3c-1.6-1.3-3-3-4.2-5.1c-1.1-2-1.7-4.5-1.7-7.3V24.4h15V73C150.1,74,150.4,75,150.9,75.9z"/>
<path class="st0" d="M251.3,24.4c0.6,0,1.9,1.2,3.9,3.6c2,2.4,4.4,5.4,7.1,9c2.7,3.6,5.5,7.5,8.5,11.7c3,4.1,5.8,8,8.4,11.6
	c2.6,3.6,4.9,6.7,6.7,9.1c1.8,2.5,3,3.8,3.4,3.9c0.4-0.1,1.5-1.4,3.4-3.9c1.9-2.5,4.1-5.5,6.8-9.1c2.6-3.6,5.5-7.5,8.4-11.6
	c3-4.2,5.8-8,8.5-11.7c2.7-3.6,5-6.6,7-9c2-2.4,3.3-3.6,3.9-3.6h14c1.5,0,2.8,0.7,4,2.2c1.1,1.5,1.7,4.2,1.7,8.3v59.2h-15V41.6
	c0-1-0.2-1.6-0.7-1.9H331l-36.9,52.6c-0.5,0.7-1,1.1-1.5,1.4c-0.4,0.3-1,0.5-1.8,0.6c-0.1,0-0.2,0-0.3,0.1c-0.1,0.1-0.1,0.1-0.2,0.1
	h-2.1v-0.2h-0.2c-0.8,0-1.5-0.2-2-0.5c-0.5-0.3-1-0.8-1.5-1.5l-36.9-52.6h-0.4c-0.5,0.3-0.7,1-0.7,1.9v52.6h-15V34.9
	c0-4.1,0.6-6.9,1.7-8.3c1.1-1.5,2.4-2.2,3.9-2.2H251.3z"/>
<path class="st0" d="M442.7,54.8c-0.7,1.7-1.6,3.2-2.5,4.4c0.9,1.2,1.8,2.6,2.5,4.4c0.7,1.7,1.1,3.5,1.1,5.3v8.9
	c0,2.8-0.6,5.2-1.7,7.3c-1.1,2.1-2.5,3.7-4.2,5.1c-1.6,1.3-3.4,2.4-5.3,3c-1.9,0.6-3.6,1-5.1,1h-67.6c-1.5,0-2.8-0.7-3.9-2.2
	c-1.1-1.4-1.7-4.2-1.7-8.3V34.9c0-4.1,0.6-6.9,1.7-8.3c1.1-1.5,2.4-2.2,3.9-2.2h67.6c1.5,0,3.2,0.3,5.1,1c1.9,0.6,3.7,1.6,5.3,3
	c1.6,1.4,3,3,4.2,5.1c1.1,2.1,1.7,4.5,1.7,7.3v8.6C443.8,51.3,443.4,53.1,442.7,54.8z M427.9,70.2c-0.6-0.8-1.2-1.4-1.9-1.9
	c-0.7-0.5-1.5-1-2.3-1.3c-0.8-0.3-1.4-0.5-1.9-0.6h-35.5V52.1h35.5c0.4,0,1-0.1,1.8-0.4c0.8-0.3,1.6-0.7,2.3-1.3
	c0.8-0.6,1.4-1.3,2-2.1c0.6-0.8,0.8-1.7,0.8-2.8c0-1.1-0.3-2-0.9-2.8c-0.6-0.8-1.3-1.5-2.1-2c-0.8-0.5-1.6-1-2.4-1.3
	c-0.8-0.3-1.4-0.5-1.8-0.5h-51.5c-0.5,0.2-0.7,0.7-0.8,1.5v37.4c0,1.3,0.3,2,0.8,2.1h51.5c0.4,0,1-0.2,1.8-0.5
	c0.8-0.3,1.6-0.8,2.4-1.3c0.8-0.5,1.5-1.2,2.1-2.1c0.6-0.9,0.9-1.8,0.9-2.9C428.7,71.9,428.4,71,427.9,70.2z"/>
<path class="st0" d="M466,77.7c0,1.3,0.3,2,0.8,2.1h73.7v14.4h-83.9c-1.5,0-2.8-0.7-4-2.2c-1.1-1.4-1.7-4.2-1.7-8.3V24.4h15V77.7z"
	/>
<path class="st0" d="M562.7,77.7c0,1.3,0.3,2,0.8,2.1h73.7v14.4h-83.9c-1.5,0-2.9-0.7-4-2.2c-1.1-1.4-1.7-4.2-1.7-8.3V34.9
	c0-4.1,0.6-6.9,1.7-8.3c1.1-1.5,2.4-2.2,4-2.2h83.9v14.4h-73.7c-0.5,0.2-0.8,0.9-0.8,2.1V77.7z M637.2,51.1v14.2h-79.8V51.1H637.2z"
	/>
<path class="st1" d="M659.5,77.7c0,1.3,0.3,2,0.8,2.1H734v14.4h-83.9c-1.5,0-2.8-0.7-4-2.2c-1.1-1.4-1.7-4.2-1.7-8.3V24.4h15V77.7z"
	/>
<path class="st1" d="M738.5,94.3L782.8,28c0.6-0.6,1.2-1.3,1.8-1.9c0.6-0.6,1.2-1.2,1.8-1.6c1.4-0.1,2.2-0.2,2.5-0.2h2.3
	c0.8,0,1.5,0.2,2,0.5c0.5,0.3,1.1,0.8,1.6,1.4L842,94.3h-17.2L813.9,79l-10.1-14.2l-13.6-19.3c-0.3,0-0.6,0.1-0.8,0.4
	c-0.2,0.3-0.5,0.7-1,1.2l-32.5,47.3H738.5z"/>
<path class="st1" d="M934.9,54.8c-0.7,1.7-1.6,3.2-2.5,4.4c0.9,1.2,1.8,2.6,2.5,4.4c0.7,1.7,1.1,3.5,1.1,5.3v8.9
	c0,2.8-0.6,5.2-1.7,7.3c-1.1,2.1-2.5,3.7-4.2,5.1c-1.6,1.3-3.4,2.4-5.3,3c-1.9,0.6-3.6,1-5.1,1h-67.6c-1.5,0-2.8-0.7-3.9-2.2
	c-1.1-1.4-1.7-4.2-1.7-8.3V34.9c0-4.1,0.6-6.9,1.7-8.3c1.1-1.5,2.4-2.2,3.9-2.2h67.6c1.5,0,3.2,0.3,5.1,1c1.9,0.6,3.7,1.6,5.3,3
	c1.6,1.4,3,3,4.2,5.1c1.1,2.1,1.7,4.5,1.7,7.3v8.6C936,51.3,935.6,53.1,934.9,54.8z M920.1,70.2c-0.6-0.8-1.2-1.4-1.9-1.9
	c-0.7-0.5-1.5-1-2.3-1.3c-0.8-0.3-1.4-0.5-1.9-0.6h-35.5V52.1H914c0.4,0,1-0.1,1.8-0.4c0.8-0.3,1.6-0.7,2.3-1.3
	c0.8-0.6,1.4-1.3,2-2.1c0.6-0.8,0.8-1.7,0.8-2.8c0-1.1-0.3-2-0.9-2.8c-0.6-0.8-1.3-1.5-2.1-2c-0.8-0.5-1.6-1-2.4-1.3
	c-0.8-0.3-1.4-0.5-1.8-0.5h-51.5c-0.5,0.2-0.7,0.7-0.8,1.5v37.4c0,1.3,0.3,2,0.8,2.1h51.5c0.4,0,1-0.2,1.8-0.5
	c0.8-0.3,1.6-0.8,2.4-1.3c0.8-0.5,1.5-1.2,2.1-2.1C920.7,75,921,74,921,73C921,71.9,920.7,71,920.1,70.2z"/>
</svg>
