<?xml version="1.0" encoding="utf-8"?>
<!-- Generator: Adobe Illustrator 19.1.1, SVG Export Plug-In . SVG Version: 6.00 Build 0)  -->
<svg version="1.1" id="Layer_1" xmlns="http://www.w3.org/2000/svg" xmlns:xlink="http://www.w3.org/1999/xlink" x="0px" y="0px"
	 viewBox="0 0 300 32.3" style="enable-background:new 0 0 300 32.3;" xml:space="preserve">
<style type="text/css">
	.st0{fill:#231F20;}
	.st1{fill:#318AC5;}
	.st2{fill:#FFFFFF;stroke:#000000;stroke-width:1.3711;stroke-miterlimit:10;}
	.st3{fill:none;stroke:#000000;stroke-width:0.7617;stroke-miterlimit:10;}
	.st4{fill:#318AC5;stroke:#000000;stroke-width:1.3711;stroke-miterlimit:10;}
	.st5{fill:#6A7476;}
	.st6{stroke:#000000;stroke-width:1.3711;stroke-miterlimit:10;}
	.st7{fill:none;stroke:#000000;stroke-width:0.3047;stroke-miterlimit:10;}
	.st8{fill:#FFFFFF;}
</style>
<path class="st0" d="M31.9,11.3c-0.2-0.3-0.4-0.5-0.6-0.7c-0.3-0.2-0.5-0.4-0.8-0.5c-0.3-0.1-0.5-0.2-0.6-0.2H13.4
	c-0.2,0.1-0.3,0.3-0.3,0.7v17.1H8.3v-19c0-1.3,0.2-2.2,0.5-2.7c0.4-0.5,0.8-0.7,1.3-0.7h21.6c0.5,0,1,0.1,1.6,0.3
	c0.6,0.2,1.2,0.5,1.7,1c0.5,0.4,1,1,1.3,1.6c0.4,0.7,0.5,1.4,0.5,2.3v4.6c0,0.9-0.2,1.7-0.5,2.3c-0.4,0.7-0.8,1.2-1.3,1.6
	c-0.5,0.4-1.1,0.8-1.7,1c-0.6,0.2-1.1,0.3-1.6,0.3h-2l7.4,7.3h-6.2L18.8,15.7h11c0.1,0,0.3-0.1,0.6-0.2c0.3-0.1,0.5-0.3,0.8-0.5
	c0.3-0.2,0.5-0.5,0.7-0.8c0.2-0.3,0.3-0.6,0.3-1v-1.1C32.2,11.9,32.1,11.6,31.9,11.3z"/>
<path class="st0" d="M44.4,21.7c0.2,0.3,0.4,0.5,0.7,0.7c0.3,0.2,0.5,0.3,0.8,0.4c0.3,0.1,0.4,0.2,0.6,0.2h16.5
	c0.2,0,0.3-0.3,0.3-0.7v-17h4.8v19c0,1.3-0.2,2.2-0.5,2.7c-0.4,0.5-0.8,0.7-1.3,0.7H44.5c-0.5,0-1-0.1-1.6-0.3
	c-0.6-0.2-1.2-0.5-1.7-1c-0.5-0.4-1-1-1.3-1.6c-0.4-0.7-0.5-1.4-0.5-2.3V5.2h4.8v15.5C44.1,21.1,44.2,21.4,44.4,21.7z"/>
<path class="st0" d="M76.5,5.2c0.2,0,0.6,0.4,1.3,1.1c0.6,0.8,1.4,1.7,2.3,2.9c0.9,1.2,1.8,2.4,2.7,3.7c1,1.3,1.9,2.6,2.7,3.7
	c0.8,1.2,1.6,2.1,2.2,2.9c0.6,0.8,1,1.2,1.1,1.2c0.1,0,0.5-0.4,1.1-1.2c0.6-0.8,1.3-1.8,2.2-2.9c0.8-1.2,1.7-2.4,2.7-3.7
	c1-1.3,1.9-2.6,2.7-3.7c0.9-1.2,1.6-2.1,2.3-2.9c0.6-0.8,1.1-1.1,1.2-1.1h4.5c0.5,0,0.9,0.2,1.3,0.7c0.4,0.5,0.5,1.4,0.5,2.7v19
	h-4.8V10.7c0-0.3-0.1-0.5-0.2-0.6H102L90.2,26.9c-0.2,0.2-0.3,0.4-0.5,0.4c-0.1,0.1-0.3,0.1-0.6,0.2c0,0-0.1,0-0.1,0c0,0,0,0-0.1,0
	h-0.7v0h-0.1c-0.3,0-0.5-0.1-0.6-0.2c-0.2-0.1-0.3-0.3-0.5-0.5L75.4,10.1h-0.1c-0.1,0.1-0.2,0.3-0.2,0.6v16.8h-4.8v-19
	c0-1.3,0.2-2.2,0.6-2.7c0.4-0.5,0.8-0.7,1.3-0.7H76.5z"/>
<path class="st0" d="M137.8,15c-0.2,0.6-0.5,1-0.8,1.4c0.3,0.4,0.6,0.8,0.8,1.4c0.2,0.6,0.4,1.1,0.4,1.7v2.8c0,0.9-0.2,1.7-0.5,2.3
	c-0.4,0.7-0.8,1.2-1.3,1.6c-0.5,0.4-1.1,0.8-1.7,1c-0.6,0.2-1.2,0.3-1.6,0.3h-21.6c-0.5,0-0.9-0.2-1.3-0.7c-0.4-0.5-0.5-1.4-0.5-2.7
	V8.6c0-1.3,0.2-2.2,0.5-2.7c0.4-0.5,0.8-0.7,1.3-0.7h21.6c0.5,0,1,0.1,1.6,0.3c0.6,0.2,1.2,0.5,1.7,1c0.5,0.4,1,1,1.3,1.6
	c0.4,0.7,0.5,1.4,0.5,2.3v2.7C138.1,13.8,138,14.4,137.8,15z M133.1,19.9c-0.2-0.2-0.4-0.4-0.6-0.6c-0.2-0.2-0.5-0.3-0.7-0.4
	c-0.3-0.1-0.5-0.2-0.6-0.2h-11.4v-4.6h11.4c0.1,0,0.3,0,0.6-0.1c0.3-0.1,0.5-0.2,0.7-0.4c0.2-0.2,0.5-0.4,0.6-0.7
	c0.2-0.3,0.3-0.6,0.3-0.9c0-0.3-0.1-0.6-0.3-0.9c-0.2-0.3-0.4-0.5-0.7-0.6c-0.3-0.2-0.5-0.3-0.8-0.4c-0.3-0.1-0.4-0.2-0.6-0.2h-16.5
	c-0.2,0.1-0.2,0.2-0.3,0.5v12c0,0.4,0.1,0.6,0.3,0.7H131c0.1,0,0.3-0.1,0.6-0.2c0.3-0.1,0.5-0.2,0.8-0.4c0.3-0.2,0.5-0.4,0.7-0.7
	c0.2-0.3,0.3-0.6,0.3-0.9C133.3,20.4,133.2,20.1,133.1,19.9z"/>
<path class="st0" d="M145.3,22.3c0,0.4,0.1,0.6,0.3,0.7h23.6v4.6h-26.9c-0.5,0-0.9-0.2-1.3-0.7c-0.4-0.5-0.5-1.4-0.5-2.7v-19h4.8
	V22.3z"/>
<path class="st0" d="M176.2,22.3c0,0.4,0.1,0.6,0.3,0.7h23.6v4.6h-26.9c-0.5,0-0.9-0.2-1.3-0.7c-0.4-0.5-0.5-1.4-0.5-2.7V8.6
	c0-1.3,0.2-2.2,0.5-2.7c0.4-0.5,0.8-0.7,1.3-0.7h26.9v4.6h-23.6c-0.2,0.1-0.3,0.3-0.3,0.7V22.3z M200.1,13.8v4.6h-25.5v-4.6H200.1z"
	/>
<path class="st1" d="M207.2,22.3c0,0.4,0.1,0.6,0.3,0.7h23.6v4.6h-26.9c-0.5,0-0.9-0.2-1.3-0.7c-0.4-0.5-0.5-1.4-0.5-2.7v-19h4.8
	V22.3z"/>
<path class="st1" d="M232.5,27.6l14.2-21.2c0.2-0.2,0.4-0.4,0.6-0.6c0.2-0.2,0.4-0.4,0.6-0.5c0.4,0,0.7-0.1,0.8-0.1h0.7
	c0.3,0,0.5,0.1,0.6,0.2c0.2,0.1,0.3,0.3,0.5,0.5l15.1,21.8h-5.5l-3.5-4.9l-3.2-4.6l-4.4-6.2c-0.1,0-0.2,0-0.3,0.1
	c-0.1,0.1-0.2,0.2-0.3,0.4l-10.4,15.1H232.5z"/>
<path class="st1" d="M295.4,15c-0.2,0.6-0.5,1-0.8,1.4c0.3,0.4,0.6,0.8,0.8,1.4c0.2,0.6,0.4,1.1,0.4,1.7v2.8c0,0.9-0.2,1.7-0.5,2.3
	c-0.4,0.7-0.8,1.2-1.3,1.6c-0.5,0.4-1.1,0.8-1.7,1c-0.6,0.2-1.2,0.3-1.6,0.3h-21.6c-0.5,0-0.9-0.2-1.3-0.7c-0.4-0.5-0.5-1.4-0.5-2.7
	V8.6c0-1.3,0.2-2.2,0.5-2.7c0.4-0.5,0.8-0.7,1.3-0.7h21.6c0.5,0,1,0.1,1.6,0.3c0.6,0.2,1.2,0.5,1.7,1c0.5,0.4,1,1,1.3,1.6
	c0.4,0.7,0.5,1.4,0.5,2.3v2.7C295.8,13.8,295.6,14.4,295.4,15z M290.7,19.9c-0.2-0.2-0.4-0.4-0.6-0.6c-0.2-0.2-0.5-0.3-0.7-0.4
	c-0.3-0.1-0.5-0.2-0.6-0.2h-11.4v-4.6h11.4c0.1,0,0.3,0,0.6-0.1c0.3-0.1,0.5-0.2,0.7-0.4c0.2-0.2,0.5-0.4,0.6-0.7
	c0.2-0.3,0.3-0.6,0.3-0.9c0-0.3-0.1-0.6-0.3-0.9c-0.2-0.3-0.4-0.5-0.7-0.6c-0.3-0.2-0.5-0.3-0.8-0.4c-0.3-0.1-0.4-0.2-0.6-0.2h-16.5
	c-0.1,0.1-0.2,0.2-0.3,0.5v12c0,0.4,0.1,0.6,0.3,0.7h16.5c0.1,0,0.3-0.1,0.6-0.2c0.3-0.1,0.5-0.2,0.8-0.4c0.3-0.2,0.5-0.4,0.7-0.7
	c0.2-0.3,0.3-0.6,0.3-0.9C290.9,20.4,290.8,20.1,290.7,19.9z"/>
</svg>
